<mxfile host="app.diagrams.net" agent="Mozilla/5.0 (Windows NT 10.0; Win64; x64) AppleWebKit/537.36 (KHTML, like Gecko) Chrome/131.0.0.0 Safari/537.36" version="25.0.3">
  <diagram name="Page-1" id="S9n9hUYmEw7nkbwwrO6W">
    <mxGraphModel dx="1088" dy="457" grid="1" gridSize="10" guides="1" tooltips="1" connect="1" arrows="1" fold="1" page="1" pageScale="1" pageWidth="850" pageHeight="1100" math="0" shadow="0">
      <root>
        <mxCell id="0" />
        <mxCell id="1" parent="0" />
        <mxCell id="yKRr2xYQavg5_Q21s3uy-38" value="" style="shape=image;verticalLabelPosition=bottom;labelBackgroundColor=default;verticalAlign=top;aspect=fixed;imageAspect=0;image=data:image/png,iVBORw0KGgoAAAANSUhEUgAAAfQAAAH0CAAAAADuvYBWAAAgAElEQVR4AVzBTdKlWbad1Weutd/jPxE3UzK1Uu2igkEraAEFMGoUQGYUZCDlzcwI9++8e83JPsc94grG0H9fzEwS3/t2unpd1yJ2SuV9P5/Pj3s/Pn3Wx7dvk8d13d+/f+yZUKrM2AFVtxL8EsjMRte15BmEgJAElUo/EE+orqruvh6t7x/fQ5dAXNclbPrL58/3fbs/f7nq27fv44CqSpJn79S1VgKUyJ4tVYGlT58+cX//SD0eaz/vUbcUsp/3dlA9rofGrvW4+v74mF6rSlJ318w96V7Ze3o91tr39uqF9x4QQlVrNff9jBOcICmxzRFbWl3e9w4icVhr4e2oqpLYM4nQ6lXERuJl9vPeY6tXi7E/ffnc+/vv96y19vO56/r8WM/71uPxwM89X3759drPj9SvX7/u33//Tq1qJyH0uq6e2VzXo1v/8yd9+/5tz/7+j7/97ft+PB6//uWvX5mP8ddfvuy//Zf/+tv3e/vx6dPKjOq6rnnez+fH03z6/In7eaNa68uXrw+CZ2Y/v398fDyfdf27f/eX675vVBKQme1Euh6PS8G+905Xreu61lryP/7xD+pxdfbkl6+/VJ7PrK+/fL2fT/fnL4/6/fu3PTZVpeP+/vs399evXxI74P3t2++pkkj1r//yqz5++32yuvd9b8fVnz9/vn///bvRun799Rd9+/Y9da3++PjO11/+5bFmLBV7P2dUYrar1lpdXd2d/fHcFlprlWasrhZKPLZQvPe+D0LVuoq9b14S+vHpk+/vH9bqVap4Zuyku8XYdPdaV3t/fHx8//Yt/Xgo995/+fd//XT/9o+P+fL5y/O33z76y1+/PP752z/1y7/8mvvvv3//63/4D1/vb/90/eXXXz7+9W//VH9a9f3bxwZ9+frXX77ez48bgfTfXfr4+PDM8/d//vO5r3V9+fXXz8ztfP78Zf/z73//eNpZ19Ulqro749n3dtZa2bNRdX/6/OkSxB7Pntl7q75++Vyzt16AjMdJtK5rQeyZ0bXW6tVdhb99+526Vnsmnz5/quw79fj0ac+duq6l+75tBwkJ7Y/vH9HnT5+SEOL5eD4tBKg/f/nC/fyYlOSxx6N+fPq0P57PoF5fPn/h4+MjdNXcw+cvX1d5DIpnjyVwIqlqre5S2feegHq1uPdwrSUJHAeRzOy97w2Uuiv2EN7qupbneVtdXSXFcRyrCuzQq3t1x/e+Pz6+p64l9swvv/xyzfdv24/HY3//uOvT10/r2/dvfP7yJfu378+vf/mXT/P8Hn36/On522/f6avq4+NjQI/Pv3z5tO97O070H4uZHeL9vCdVdV2PK3GyrpXnx9MWKlWt7iqEkOLYcZwEStWrS1JIUt1F/mQhcSSOA6i6QpyE9Xg8qiQOz2yqS7Hd1WAHlZKADkJQCAngmQnVBQKSTJyEINTVinMQCJ5BvZqxQapeiz07QYCq15Kcg7xxCEigexWQN6BKeN/DWqskEQ4R/DIWSEiEQDhElRLHkqgqIUhiASHQXVUSxJ69oUok6XUp3kHVHlu9qvaedDe+917XVdhBpbn3pkraextUq7sz9sw4+h9ajhMcB3UXicdj1rqy94aqVqkkwDk4hA7iVPWbCIk9e9+jqu61lggIkQMQEi8hIJHYeSOxLZVEAkIgCDiOpBIgRHxIIgdCPpJASUB4E6qSIMze45mouhRQdbWqPXtPDiF1dZUkHwTU3dmzbUJ1lVR54xDJjNXd4MQO1S1s3/e9S1W9uhWHlxAIBFQ/JI5DqCqRo1S9VpeSfHz/uMeGql7rKjBIFTsJwTEqSJyqEomqV2fPJCEvQhwhsT2J/rdSHAhV1bW65r7vmUlWL2xL3S2JJI5fglTVBzHqo0oKOWaeH9+fVWtdj8ejEQgSJ6hQSYlDQKrMx8dzHCfGcVQHgiRQBY4dR1USP8Rjl16AkJlxHKlXQ0hICFq9JMi+79vjUCWJql5dkjJ7e5yAXqqrFdsJ0urO877HSapUpQ5xAiQkDlQp8UtYqwvs+3nfquq+1lJihALEMUJVXVWq2OMgqlrggFjrWi0l379/fz73hF4vVQghIInH4QhBBwhQ1VoLv0wiCaHYk6A4Jvpf43tGoq/HYy1JcUwg4k1VqjixEydxQh19KOElB6qSgMRBL6WSKiQhL4CEeMsx+76fOvDLTK3r6pZkJ0hkZgCpWsyMnYNDL4gjB4lU3dhjO1G9SYA9jhOEjlKVqkokjp2fQFU6sMeGZMbOgUoqkcR5QYEA4U1CKr0Q20lQlSQQkkqSE3RAECIEEP8mqA5J8cw4JoiuKlWhhKouKRBCEqpaJRVSSao4CREqKRBCEC9B/7u9Z5Dquh6rJQiREAQQOogTxySEBKneOPJiG5X+FCCAEIkTEE4C6IWQ2B7PVJVw/FJ9XdUScQIk9kgqVeG9t+2gkoQQQiDegqoq/iHVVSohIHEIb/oBlYRCfnISQFKJeMaOkxCSgBBHXhxedIQIiZJ40wHECRIvQlKVlERIQIIICJByQHiTSi8hgYQkKqlUkKS6qyRBSIhUpR8KcSRBSEgQECAQL/ovwQlEdagknKAXxJuAEAIBkQSEkAhHCDkISEiIAAIc25NUlXKQUEecg+gNCAkgVYkjkMThUJUk4nvfCVRVNwICCB1AQIi8kVLpIJAQIAgQJd4CAgIEQkJCEJDDMUIcIeRFiMQ5pO6WkBBIJE4C6EAgCI6hQEIcQrwICEFIJMROJFT6gR/yIpVAgYDeECIIEBCQxCECiCO8CCF+iv4hSEhASKUiCRKS+P+JeAsQ8W9CDhKQEBASJPBbUqXiJURVCiEESi8EwiEkBARICIdUiJAZB3SUOAIIAYIEEEdCEiGQeAnhEJJAICCEF3EECCFEvASSQPhTOCQS54DuKoQ4BCQmRAiBgBASkPhJIBAICAQEBJKAkJCEED8kRBQIAhEghPiTIPwkIOIlEBAC8RKCfiuFxAkBqQoFEEiI/y/xp/BvQl5IkBCQxEQCx7GJSlJJEBBCQIgkSii8BSQQCm/hTbwlgEBASAhCIgk5hBAQcmBAQhwBoaMUDgHhCOKnQAAh/hDHvAmJQgKcw1BVIvwgjgDhTwkQJASENwFC/BASEAjxJhAv4qeABAjCn0QIb0IQwltAQDjCIQ4Rcug/K7Nn7EhVqlKVRAhI6ODQAQKCgNgOCETsWIiQhIDAHoeIkpIJQuouiOMEqSBAVakEtoMolUoHkMNJrJ9wDEJVUhzHAanG4yOoJJWAZDyRChIO1U8kIQFVkYRDEsQOkhDiJXFeCAlBKlWVQhISjtgJR1XpAEIgQknsxFFViUAAlRB/UGK7qlRVUoKqJEJCQiBAVQsICCGREMdBHAIhEgjhkBAhgPgpsYP+E34+7z2T6lUlqbsLkkjohRCpVBIKJGQ8iQ6EvW2VBHlDYvb22Ki7gYBQdwsfE5dEDnW1qsjssVC9SCUghx0bqXRgG1RVXeVj7EjVc3icVJUOjngcVZFDUnV3VUlJHDt0lxITQCVsgwoJccSekBDIAZKqSyLkJ8cmoOpqqfiTSDx+qeoSgSRSSRxCSCQzu1+qS0mqVJDDOQBJvbqw4ySqLiDYCRIkvOXNUqlUCALiD/ER/R/M8/mx97h6VYG615KCDo54bEnV3ZLI3HvbkXp1IcZ7TOkFQjj2vve999CrV3eLoOoSxLETYu8xq5dK5N57kIQkJPEikTgJR0jiUldXV9kej1GvjmN7oKozNkFUSQgC9FFVUuI4nhmnuhXyhkAHAiQOZ88kQaoS5AUdpWJmPBCpigSqSoBeSiVEPGM7qSqJJI4BvVCHpMzs3d2rqkskiJDDdkDqXn3Is+/9vJ/V1+ruKkBH7JnE8djjuB/XVVV6AYKQAvE46D+R5/2873vU3XWoXlSlKpI4EyNKVYjkvp87qGpdqwL2TBCSAMdAPDN7z7B6dXcpCVUlFHKQeN/3pqu7WszYHPnJMeoqgWaPk4BKdXSVyk5sq3otCB47gGdMVfUhQhKo1V0qYk+cOAcQOwGBUFWXJAQ5PEd0VJUgsZ0XleQjHCVBUB0BJJVeCP5JVZJC7ElCVXcdJLaTdK9VKgkRSHyMB1VVd/Xqrnj2fj4/al1rra4Oh0jsyTGeGdvrelxVhRI8dqQSgthE/1cxez4+PjZVva7rip3qtVZXYzsECDmc2PveW+rudS3lzeEl2DMOP8SJerUEsRNVIYQQx+yPj9ulWkdJQGLPzL73C1qrV3c/Pz7uCarHtVollUQIAdXqJRWe2bP3zDi9HtejuxTHdlLVVRKemQSqWtz3vfeMVF0qVa3urqocM2OPTXerJCVxPDN7T/QCCHACUfWRgMQhQiDJzL1LdUjMbDtoPa5LyPf9HLp7rasLhA7AM3vP3uprtQjrWksi3ntrre4uyU5CCAGUjGds11qtUrL3vp/3HboOCQL6z2DPvm+rukrINr3WtaqKxLwlJE5IfCSIUgmIPQbU1cTjECQhCCXFR0KAJKCqErL3PeMEkHp1V1U8M3vP9gzVq+u4nx/3OGF1r15d4khCoFa/KPZ4ZhKodSCRg0AgieOjqo9V2rNn7wFJVarqrkMksR0nQUJIOHZ8jJ0XOxGQhKO6V6tKVSK2k0CJzEwSkEQS26F7daky93ZU1YdAqi5B7Nljh+oWx3pcXQXZs1VVAhH+EChEXkBVOpJ97xfqWl1IvOj/IfFLuhfsvZ3Q67qWDsIPCUkAccQznhCpZO8ZUF3XVbKTEEkliRyzZ8zh2J6kulsSxJ79Zq3H41rXFc+LJ4nUrZK073vvmYmkdT1WFyGHE6pXr7WaOHECKlWXEhOiF8/LtpOsx3Wt7ions2ccoKSqUukgykEQSUwgfkkCwcfe94Q3hYjuXr1WdxXeexyj6iLxjCcBSuWMQ6mqi9hOQFUlJK1uhdhjAwLx8riu1RKZGRDEQW8cQaUDvYGQkr33eFzrcV0cAqK/ETsEqYrM3k6odfCTJJIQQIgjM9vjmK6GEB1dDSEJEQgJ25MDJGzHTlRVgDh8z/Y4tR7XqirP3nuOJFLXofLs2TNjoNdaLSGkzDjqXmtdLULsgJAEcYIoVVUcxwmE7tWCYMf2EIQKBYMQkjj0ErDHM3uCjlYRso8Zh+5GIXG0rqtLwnuP7VAqVVXeyJsdqEMSIgfohZKqkviIq4rE4biux6oSOEYShEhACElUKiSE0Asie28n6XVdi5A4if4u7EhCEp4ZJ6k+wg+SSAJISILEM36hq3WgNwgJIfzkPRu9lLAncVCVCEKSZ8ZJaq3VoJm958WJVF0v9hy2CdWHSipVZk/orrVWC0gcXkSIg6Q6RMKLBKVSPI6dF0AHeCYBpJJAVSoJZu9979mprq5VJcGevWdva/VSQfaerGtVIbxnYgek6moEIY6PBFRV6KgiiTmkkhCJEyepEhk7kOta3SWJUCoBQSg/IZUQCBCSSjBjk3Rfq0jicaJ/lkIECBIfBKkkfpLIATpKIkBMSBAgCSQgCUkIIQSY+76lqupqZnYSVL2KN4Hj2KS6BNgez3jsUN1dKs3edniRqrpeVIpnQqkOASH8IF4iVamEEqOfODzjSUIAlQoRz8SECL1UtYSy7/t5z0xWr65WgRjPzB5TVd0tZk+qSwISJxAIEQhxJPYQIVUJqEOMTYKqJI5ADgKO7RCqulSq6qqukkJAIuQFlQRBBIhULYlgR+qqBHvs6Lcq/hScAxCCAAkSCi96408BAgiEQhInRhyBkNn3jVRdXZqZgKq7mrdAEieBAkLiJE5soypJMHtPAlXdpZKE6CoSB0kliRACASSEQKUSR5zoKJUIicdOeJFKQsSemCQQSaWqwsm+973tsHp1VYmAj9gJQlXCcVRCHEmQCHHsSCoh4jEgBAqoVMp4hKRqCUIIQpDEiXMgoVJ1r+4qERIO8SYkSAghQFVXSSRjdECIk+hbSSiEt0B4C3kzUhWSOMQhEIJwhBcBOZxxqBICknjvDahURWypfuAlL04goBzmRUh2EkKO2XuSqB6PR6mI7XSvUkDojZCDcEgqhFSCBMcBlaqkQA4TXkoSgthxyAsIlSR7z2ETqburq5TEOZCIxyGAQAgQJEiCxJ49pa4qibGDIE5CkIRnrO6ublWCk0hdBSEkjp0EVFVrrSpVfkJSqUqEkMMJoK6qRsrYiZAACdDfV0sivIQ/hATygqQS4ggEJCRBgISflAS/qKqEIIntCaCXEEklISABEmJCSAwEEKWqJH4BlDgJ6FqrJMVxpBJCSEIiMQlBiEMqlQQ42XsbVfWhCEJ4EQgBIrFDEggQIRG/TExAUlW3yOGEkkgyHjtAVwtCEiRBQg79AI5BEMchIJE46mqpyN7boOrVrR+SOfaOqlZ3r66qvDhEol6AEPIHlUpCsR2QVHpD//XRpQovCS/iSAIhBL0gEpIQSUgFgYQAQYgctqMqHRDyEyAhIQQhbwgIgRA7kYoAVV0Ee2+nqiTxVlU6Qg4C6AUBcRKIjpBQVTqCk+fzHqmrr9VCvAmEAAVEEichBBKDEHESO4SEVK0uSGyHqpJg5p6dRKuXlIOABAEkIRCQAwnFeQEBIaoqRObj+bRUvdbqeunCs+d5P0fdvbpXVxc4L0DqRYIASbDH6ECK7SCp1FJJ6J9dSCAgAcRPSQhBSOIIgQBCQhD+EEAhCSaIH4Q4EhIOIQiZA4QkSJBUEKQSthNQqfCMI6m6JAECgXiJkzhQpYP/Vt6IDnTsGUt1dBFIgIAQQkIoPmI7PmaS1VUh9jgqCVCv7sSemdBHVQc7iUMQOpAEAkISgTgSR3WIl2DiFx2lInvvgKqqSz+QxHtvO5GudfUhICSxA5KqSggI8YxFSSolzgsqSRz6TQghAQGEOERIIID4KfxJBBCIt3CEQEIOXqoKAYkTAiLEnntPqaokkaTUeitVvMdHult5EVRXlTjCixBykomT0gsSEoi8OHEsdJQUJwgdlThxiJAAISQV4/nB4wOu6yrAM3apSlL11Y3jvXfSx+olERLHtqSSVOIlJLbRCyRxHa2DgJPYHoSkgplJgtQqgRAINGPPOFxrdXdJIiQeO0iqg7fgGatUqhIJdhIQxKB/BYQkDqEDED+EI4FwiB9CSIhe+CGEtyQ+9FJdgrzYThDJ2HvGvVZ3qXCit1JJZc/s2TOru6sKJegoCQggJF6SOAk/6YXK4SMc4hBHcBykssceJ6tbCSGkuzUzez/3vT2hutfjcbXA3jaiqnv1tVqQvfdEqlrdEpADkFS8hcSO7SnVISlEKkkc4RCEhHDEc9hRdTWgP+RwHOpNAhLH40RdJQkIeXGiepGEcBznxSb6OyD+oBdAiLdACEGAAEEIOZCEUCBxgoTI4QS9lBRCSGwnTkjicaqqS1JsA1IfKsV7Zs/4Wqu7JBLrrUSIEEKIkBcIh9CBhJPYDpCDAI49eyeq8szEhtWtHBxVjT0ej+1Qva71uB4F2BMj1NWre1UBM+MA6moE2I5EqSSchByOZ6aqq0pIoAMIh1SSCIlJcDy2E1VXERBIJRESO9FREpDY8SF1d0mKHcdJQFK9CPDsGTuxneh3FMgLh0ochRCQkPAiIUACEuKAEIIQv1AqESAc4i0EBLG9Z6Ak8gYCz0wCdV3XKpW9Z+xwXVe3UOIRUqlKSYQQEhBCggCJQkgoCY5zOGMnITP7vp9Pu6s92wHU3bIDesMJUpWAdVzrWpVgJyBUby0J8hOFhJKZiVBVqzI2OSAzs6u7CvSGBCZCVV2lEMcxIXECSFWVmBC9AMnYCahKJLYTxy6tXlWNZzy2OSSk7lbIvp/37bdJ9E9xhDeBxCEhXpLwQ4CggyS2E4HEEWIblcBJCCDyghASSbz3DojYsZ0I4hikuq51Vbdn3+OYT4/HaglIJJVKUgiIAAHxBxUqIUXk8Et8jOMkM7Nnxk6wxxw6YhtViZAEVXfX0T8Ujp2QUqmrug5JkMNJAOcgUFJVSSThRSgT1yESnMQEdJSqSiUgL7wkCEmlcohDEhKS2EmISsrsGScRUle/yJ6ZPY44JHUv4dz3x/O590zsRP8AEUBCQoifRCAJAhJyQJdI4rFNQBIIEiOJjCcQUOJJJJWEknjv7ZDDczhACJKq10sv+763CZ8+Pa7WgVBJJZX4wTkAIYlASSUJJcSJj4w9PpI4HjuM92wfgAiJbaokHyTV6+juepEq4yNBVd3V9YYUkjgHGU+iqkKlkoQkkEpHoA5yzIzHiboOlV6QAkG86Q8hiWOPx3ESEg4p3vfeiVVVXcdaXZmZvfcECJHWuirJ/fz4+Ljve5wQ/WtBXlCpVBJHDpwQIgRJHIfqboXYM+NxSqUqCZBEsmcSAsEHKpVE7JnZkwhIsvfMOI5ISapS13UtMuMQrse1ug5JRKiqu6olcGwnRhIKSCpJxC8xCGxPnCCJkGP28/6Y2QMIEElAcD+fd4J6XVdX6a2rcDx7ZiSqu6skESD8IHAmIMnhkKqqVYdU1dVVLQnlJ1QqSUBAEuJIAKGfQDlm73vvGUsqqYTjmb2dRFXVpaprXe3Zbx47jnQ9HkvSvj8+Pp7P5w4h+r+Vvfd46HWt7iqOxI4nTkASs8eqqj4EGe95oatKJXRUFZlxICGJnSBe7NnjcSJCkr33TOwckpBQrdUlIUSttbqrSyqBqOq3EsRvE/4ghMCeSRypJdtJUHVXScSZfT+f9+xJQgixAyL383k7odZaXSqBVF0k2fveG1BViZeQEBBCUuKAhBNQVa+1qqtKUnd1VQmJFwmpqgQkdqgXSQlBQEBCSEk89/N+7j2p7i5JseewQaoXStfj0ZmZfd/3nr3jUI/HY1XV7OfzeT+fkxD0f3r//vu3fW8+ff766dNaLSCOZ2bbDjQ8v3/3py9fPl2lImT2nnFcvVqYqFRrXVICiPzkmYntjMeO8+Jjz0yC7Rl+EFVa61prdfWq7jqEVF1V3VXVJaEk9sz4CIi84dhDQh2KE0m9ruuqLtkez549e/wys2ffG6o047Edqaq7SxJSCcLs554ECImTIOIkBEoKBkmIVHev63o8qrsECCEESZBUXd2ru+J49kS9eq3uEm/2TEAciWffz4/neFjr0e3YccaT1EuXAF2PxxLM/Xw+73tvJ9Lj8Vjqmtn3vWcmB/pffH98/9j3Tl+P61prCXEk9sx4QqF9bz59/vK4qgrCeMaHqgsh9Q9SAImQOLH3HNse22PPjMeOnRBBbINAP1T1UdVVJYHqpeuQVCoB8Rx7HKCqCxEgHo/jqEoFqKrWuq4LkcQxiccOSTwz997jkP8GeimppMqeNwcIQbwldkKorkaRVFUqVfXLaiEBCuElsVGpa60+SgLbobtXry4BTmbPdsib7bmfz9uJ+rpWxU7IeJw+Vi8RWNdjVZXn+bzvvXcS0d0lZM+eGbtKx/8Uz8zee5KouruEqlQKzN7jgI6+Htda3S3I4cw4QFV3X4+rJUEChQjJ2HPsY2zPnr3v+x4nUalUkgJIKlVJKATQG3GotZaqChGkgsT7vveeHVX3uq6rq0pSvGfPjCOVurqqe61rtWccDpVIojqczN5z3/eeAJLsmW0npeoq1Xx8PMcJiJeq1UUS2wmornWVVF3V3dWlUgGxkyBIAiQep45eq6tVa61WiFTq7iqUzLH3Hv8hmX3vHaheV1cwx8zYq9e6HleRpNfRi9z33nsmgZCfxh6b6/Go0v+Y7JlxAkhdJVAIIJKYCFV1r7W6qkXy/zIFB8myrVtyVj/3+a/Y92aqtyAzCjQAQ2lIqoCBkgpVCjSCltAJvXt2rOnOin3eS9MYTWnTSPa5Hq/rNZvdbNI22W0tkfa+3/ducr/f7/vejSxLliyRFiRZtiQebVr9nSX1AUhnjgTZe+/7fQd7zvW69OCRx33f20qamfPjOtMkbUG2xzMej+Tce9/3+77T9COPAvlos+/3d9IiWRL+kGzPSE2xZc+cc64zHkk82vfjvneTliLZM3OOLctjzxmLCtvjMU1y797v950CM0N38yGEZVsyotndyPID0p7HdV3jNm2SJuVhSfSRYlvovzTv+24BS35QSLaVEAIhzTkzHuvRpOU3zcz1+rhefr/f972bvbPv+52eM2657/f7Tna/3+87KT4zkmVbJAH0sGQJSjaVZI2lttk7Bc25Lks02X2/30Gac70uoBT6uO/3nSLOnHOu6zyGpk3BnnNd18x45kx39977vnc3m21KQdz3+7537733zrb4N3145lyv13izLZ2Zc12v15mx1NI2v77/+v71/n5v04Lner2ucy6pgGXPWFS2xzNqspvd+/2+i+zX15e7m7YgPqSZQWWzGwSlbdo557per3PZEjTZRsgeW4KWR6n+972/v783izz2jKFskgJC6OFzrmNbKm2KPLYs2T7nXOec0e5mm9yP9/d3MmOyed/v9ybNZlvAfzdnxjza0oIsHkLWR2lLm90A8sxIos3mfX8H2ec6VymFfuzem4LOzHhmzpwRfQSdM9e5ji155tBmd+97H/du2vJo9t5tk81uNpk5M2MJkGfOdVm729Iz17nO9Tq2RdNs9n1/37ubTSLkeb2uy2Oym03qh5A845ljoDz2USz/8fU6osnuNgUkjYe0mzSyVJpHPXPOdZ1rzphHC5ZtPRBQ8aH/Y9/f3+/dje2xbFpSWh6lksbnXMeWSD+wZzy2JdnjsU1pmmT3vt/f3xuk7mbv3QClrfjN1sy5ZiRUyocshGSPLTV7b9o0KRKyBP2R+75DpTnnIB6ltN2Egsa2JHtsAU3QNedc50hCtlWa/YdsS2mbJo2g2U02nTMfEmCPxwObpDBz5sw5g4C22WSzaWmbSvJc1xmh3ftj17ZU5PHMOWOhj5Ziz3x9vc6xyO5mGx56JJu01DZtsklkz+Oc6zojCSHN2PrgN/HQv3bv+95ssUWhLdLIhWSDZnzmGgvRR4r8mLEEAoQ+3GTz2KgqmqMAACAASURBVPt+33fSJC1CkiUEbbMbkH2dY2HJ8tiWLSF5PLJzf3+/7+xCJVkqzW7S0nxspDPjsVBBQHkIPQAVEKhNYMbnOsfio1CS3Xw0FEF2t1SyzO6mhZmxZcuyz0zbNH2ALMuWmhRKaXlIMg/ZHttqcu/7/tix1AbZPtd1LCEhex7nOq/XdV3nWG1+a9Nm73urhyWym92shCzNuV7XjC3JPmdsCfHf0P/ZJqVFFiRpWtlW22yCzsy5zgjaPNrKHnssAS198NGkeWz2kaStNZ6Hm5Y2e+9S5JkRyPO4zkxBQp4ZP7Lf3+/7fr8FkmwB2Xu3PKRmFyTGtmQJqaWl0PJQaQEBBYRnbAlBobRJC01bSrMJICGaXZA8M0ayxvbMpKGIblpAfqRp2vIY2/OQQA8evR/v+94k9YjspkLnXDOyJDQ+8+N1Xa+vr9cxbdIUSpq9760syyKPffCQ8FzniB/29brGY1kPEB/6V4RkW5Lp7uYhWTSPjXzmXNdl2uTebFN77LElKGk2m6alJd30kWRLmTnnXOfS7t202b23rbBM6ZzrXK/XmWwQmsexxd7vx/cvgSRbsnLfmyJmDs3mw/JjbEt5NGmTIImmlZDskqQSsi2kUqAgiaRJ07QVguZj7ZnxjEHSjD9Kke3c952kmjluSTat0Lmuc13nWALaZHe/v7/v971BYqzu/d40nTMztizLM2PJPtf5488//3wNbdNii7b7qGTLpm323qVFYM9MdpNU/np9XXPmYcsIQfUfPA8/EG0T9LCkNNkN+IeA5rHZSLbPOeNxm2Q3H22a3BskIWjB9vijLULNvbtNsUwbz+M6x20RkmUjaJPcewuBUD+SMmfO9brU+77f39/fhQoLoWSTbCs/xnQTSX6gpJWQLAESgjbZTQEJ8ShtdrdInrGFKJXPGT8AYSl7bwvIFqUfgK7X9Xq9rktJ9rf7/vXre0OlGZcmmwSqx9jj8UioFF3nen29XselDyQbaNK0gK2PZPdOtrZnznVEaQJnzjzOY8aj0lb/47keMyPapq1mbFm0yW5aodIKASUPwLrOx9Bkk81m0yS791oey4aiBw89/FB2994EWbSVPXOO3ZbyD9VHm4KA0k3aaq7X6/X19fK+37/++utvf+sDBJRkk912zpkH2QRZlgUtkpAERbZEk/f3e0H2nLGlNLv33tXYM3abtrHPdSwLIVl0d/lNUP5B1/V6fX29ju77/n4/9t739/e7WJ6xs5u0BdGCZjznjNqkaa/XdZ05Fo+CZInSQlvQA6vdbHbrOXOuc1mmSWPJj3Ouc80c5VH9++t6fb2uc6l7bx6aGVkozUdLm91KHp8ZSzShtuecEX0kufdOmuYhZFmWpZY0GzyeM+Nu8r7fjWWBPHPOdY7e951N06QIe45USikC0haY6/W6/vj64v3rr7/99be//SX5QzRJ86P2yBZNCqgt+rAFhYJtGbXv9/fdMufr6+s6M5u97703gGfsPJrY5xrzEPLY3XtLeZS2wgLKuc7rcXjf96+//vr1vu9NGvlB2/t+p4Bk9SGPzzkXzUf7ul6XPySjIqk0BSSPlaZJqFCBmTN+CGgeFCF5zpyZ4b7vjf67c71e1+t6udlsNlgS0M22gIR2N5I913U8VvZOJXnOiLa03d2E/gCEhB60JS22xrZos3u3CEua8zHm/X5nm2R3BZo5FqIUCalAwXOd63pdvf96/Pr1l39DadM2SWtZj9IWQRskyxJtWoRnxqLc971t5/zx9XWdM8n+SFJpTNM0lc8Z8UOecffetBRKKbKg6cyc63Ud7t2//vrr13s3kZBltWl2C0KgNkjjmTnQJmk9Y0n+UCkIWpDkOXaa7G5KQWjO8VimJZukKQ/POWfGuu/3Rv/9mXPO9XodAdkkpE2y9/vueOYcT5IC9pljW3u/N5I8Nm0qiTQFlVIK/QCE5A+ghEpAW1oY+ZxrBtq9N0D2vrdUsi1LAmTJkmiKHzPu/ev7+/1+30iCCgTpI+3YAsRDEj8kU5LcqaS5rktqm6SA53VdM2PadJO99wYLWlqwx5bUItnu7iZp+U1INAmSz3UdJfn+/vW+t6lkfhPWBzSbUmTLelhqN9ncFfgxbVohLOthzxjobu4PqM5jxkOa7G6atvSc13XNjHY30b+fsT0P2xIfbfO49wbL4zHlUcm2bLJ3Iuuj3VayykMIAX0kbcHzuK4z2XwUPXi0IGlmrGTzQFL2vjcJelgP6zfLtKWApeZ93/f7flNA6EehtEgCKhC2JBBCzY9ie64zps0HSHOusR6IR7P3tuIhCkiWx4YKQfeRBwWKPtoUJI0hze4m5UOlRQ/LEtA0pUJCgGQB7b13kWSs7KYFydbDH5L7SDbbhz4stU323m1T4Ly+Xq8zw32/N/ofRhIUZs58SNCmSZoW9LAsChQsKUlrmdJ2W8lC6IelPpJNgXOu6/r6es39vnc3QdYDKB+y6d730lgj9r7v3S3ogca2ELIkWpIU0Sa77/udtPJDkoUEpZS2QpIfQuKR3bSg+WHRJLupsM+MWmTLHnV3Gx6SEFDkmRGPttkfSR+0sixKQaVNmiD0o7RNkSXrAbSl/F1b/R27W1mGsve9SZGsv/NjJAQteTQPGmhz771pini9vv74mhnev7539b+I7G62mt8EAgRVkxRJtkUpLUgCfVigNEnT8hAgQWnzKHCdr9f1el2+73uTBiRZUmmTSCPa5oFtcm82WyTxkAQILNG/Q6DS3PedBCT/kARtkk1bfYxtxG9NkfybRNPcu5Fkz5gUe8a2SNIW7JnxkPf7TltJFrT7SJMmpSCJJikqLS2VLOsBKin6QJTSUh722Ih89AHIY1siu9tSQH0A8tiWRZP+oG0S22qTfb+/03Ku1+s1Mu/3+47+C3nf9/veyDNjD0LyA9Fki5DHKi2FApZsyw812Y+0/KbSko+CzvX1ep1zvHs3UAqWJUp3I9lC7e4im27zKBJQ+oMiiX7QFtCjm21TkPxDbpvu3mkBIXtk8WgF2OOxbKQ2yW4iyQ/R1vOwTZo2MOdc53olf/369X6/b0mWoNmkTZOUgqDJho8CBVkWEpJ4CEk8QlvKQ54ztpT7sZv6ceZ4LDVJC23JJm2lOWPL7WYB8egmPjOC5Pv71zadOedYYu870f/K3u87GzQeC33MnJmUpqFCttRWCEiLkD0+j+597/veLQUJAWk2924lnevruizTRrLVh/UAQZEsaHvvFgR9pOWjdB/ZBEnQH9mkWLZQaUvBkseiTZoUaB6e8czAJtieOTN+yKZJ+qDoYUptz8wZNpsE5rqu19dX8+vx/es7FIT6I02aIh5tk8gSUFpKKS2S/JAtA32EH0KW/Mjeu/e98cxc1xlboi2lbZrNo+V1XSOr2Y0+KE3qM7ZU7vsOD4GQgIL+c3vvlmLZKlj2nGuc3wroA6EHUB7yY+Y4e7/v+94AQh/QdnPfm8I51xlLQsycmSZ9gIQ+EH1ks0hWm5aHBE333s0m2Aaa7GZ3K/lDUEqLeJTSIglos8nMOTNHbFaW52FbtgfSJk0TQKIgZJ85AtrAzJzrXOR+f7+/v793k/AQapImrSxomqa2pdIWyqMFSZZl2aKPNAjxIZDkfOydSJpzzoxsBAX6I03TnnPGFpQiiVJaPGOpNEklQZEslYL+AzTVAwRtPY9zee79kRaE5LH1YT2QLITY/b7v3a2tB5ItaHPf9yZrH4/lx5zr65pu9r43RbLs0jZpmnjOuLsRksdiN8kmpcyMoLnf73uTWrYeUAT0sff7XSRd57htGjjnumZGaoqEJVuyxhaUe+87uw1QSqnkmXPOJQkhJNwm+7jf9/vepho73U1SZgY2j2KP6AOQbAGSBVSS1TSbBEl8VKWU0jZtUjwPeySLh3gISFNJHo9nbFragiSP3SZ9YFm2PGNlN+g/W4BtQcsPIQmSpmlBDwtES2XZsscPScm9m7SlUD6E1O5umiAkWZ4551yX2d373uDHzLRN7nuX1h6r3cqSLUEpNE11rmtmpGxy7wZJlpVus0mBJimSxqZJWnGu69iGNKWlIKSZORL0/bj3bhG0JGltn+t62ZJKQUDbZPe+7900WNpHCpqxaNOHJKBIFpJoKR8CWUrzo1BJWBaPpkk2LR/SnHM8I9pCkW2JH/JjznGSblL0G/0NSZasGatp0f82ljVzTAOIbrKbhAJCHx6Tj00k2zNzZo7HpttQmt30IwWJpil9pCB85pw5425274UzM9c5TfZ+v98L1QcttoWEbFmmSfV6va7rdUaC+75Tatne3fu+37uWkYSQgOwmgM45I2izzY+mknzOZUG/f31/3/cdkCjdRyTN6/UaW/QhJEBJdrPZJAXuvbdYsi2JkpYWhDQzhbZpSZGEHvmtaWJZ8xAo2dy7iSyS4Ou6zhnTpE3nnLEtUZDsuWayH3cqIT4KTSuhh+0RReg/zZy5rtfrWBUS+36/7/e94aPIli117703G+yZM2ce/pAsCZK0lDbZR9Jiu3m01czYlih5oDPnXOdKcu/93m1KAVmyJQGybNlC+DrXOa8zY7sFoYfVNNmkkkCAEJBsWgSoe9+72bRJNqlkewxJ3u/3fe82lKTdJBXMuY4lQUEPS7TJNtkkbZpC+SHJgj7Sooct8SjogcSPzSZpHqsPyzyafoCkZoNmznhMWwpzzpF4tJI8c87QJpuklEKhbdJS2zP2KEnRv5y5ruvr9XWNHqD7+/v7fb83QrRIliX1vu+9k5XsOWcetqyZObZMKXo0u9/f3+87qWam3STbzlgCJESRz5zrOley9973vUnaIo/H1gf2+N/Mx5mZM5YsCSGJ0gcg/k48mqaFNtn3+/u96Y97740eiGQ3+8ij+WiTtAXPGUmUFj1si/6W5gdIpKWtNJbaZreVkCUhhB62EJQ2P5pkFwkJ8SgCJCGa3cofMhQheY7NR0GS58xY0Dz6d7T5oB1fc2ZGe2+q/zhzzrnO61hCwL7v+95tJAEFgSWSTZoWZM+MZ4QYnzPCkj1zjbPv96+//vr1nQTbbZoHY9MWjR8zc86cc65k936/3/cmtHiuc/wxnrnOJcn/IGR5bEkgHgIKFAoCxN+V0kfafb/fGwlVfb+/33dJs9m9N0i0TbLbj03SVmfGgu5uQPJDDxClTTbl0aRprGMDve97U8CW0AdCAkShpW2a7C6yhJCEJAMSKLtbbEkIJFlGSLKFTItkz3hE2/S3PDa7IM55XdfM0d53on+1hGRZH6Dsbh7IEh8CSc2jpUiyNbZHEvbYIHlmznVm3+/vv3799f2dFMsC2qYqTVrP48w55zrnuk6y9/39/f3OpqC5Xl+v+fDMua4jCUsWUimSZUlA+TelfAiEEL/1H/beFEnQ+/39fm/2vt/3I+uxS9PdlJKPthqPZHrf9yYBSZZtjQR0k5ZC6cMamzb3/d47DbIkJCFa0MOWKGk+Nnrwd9LoB3KbAAIKSLJNQbZlmT4k2R416YMCTZpHheZc1zkzTrbV/0P2fme36MNq0zTt2EYISUCz2wA+Mxa2bMuWeBQ8M+fM7Pfj16/33RaP7bFos3tvtvWZmXPO9fF6Xdn7fv/69f3e3SJfX3/8+ee5rpnxzDkHiR8tbQp6WEApFEQpBYTQDz76g49+8NG93+/3/b6/H+/7TsbHpc0DaJuGFsvywP2+3/f73pRqNDNnLKlJ+sCWC5ZNm73v933fu0UyEqAmkT1zzjVNk03SFqG2dBuNx7I0tiRE26SthGzTIn9I6oOHrGbvFNADSkt5eGbOzJgP/d8iye4GSbanm829G0uWZVsCutkEmDkjJNmeh1XaBPkxVt7v+7EReGbsEU2yjySV5cecOdf1+nq1m30kaZF9znWdc53x/EDi0TbJbirbY0u0Jf3Io6VQeeaMx4jShxAIWiiwue/7/f3+/v71/b7vjWQVStpCm49GkmWJ3b0f2aZCOufM2GqSfugxtsSjyX3fe9+7SZEtAb13Nec61+u6tsk+mtLS0jaJ/JgZnxmppW0oDyPJpaCHJcSjVKh774Yiy7IkPoQ9H2fmHEv/11hid4PkOedk977v970g2ZqxDXSzDcVnLIFsn4dFm01BSCK7dxOwPGeOLdjs5qMpSEK2Z87r9cWHkMqHENI5M8djW0YgaLvZvRfN+MwYaNM0ye6dpE3DnOu65oxU2lL0YX4Umux+v7+/v399v+97l38oLbR5bII+gDz23iR9wJlrxhZJ+oHQnCNaSnvv3rt3NolsS6X3fXuu63W9XifpPpLQJm1pk0i2zzlzzlGbpK2EJIQQbQFh/dZSaO/73rSVrXnow7Jn5pw55/V6Hes/neua07SSzvl6fbGP+95ti4RlWUj9QRF6WJL1mLGdZrOblv4WkH2u1wXZ7G4lQUF+yFKRZHs+zlhCCChYlqU2uxQkW7JoQJYfAkqBUpLs/dg7yD/YbDaJHvNhWUJtsvf78f2+783ykETbSOgBm6QfabKbTcujLX5IopR+AJIMiI/N7iYpVEh8pEX2nDNDS/qgH0k2KfX88MwcsklKbYsfpWkLaDx68GiTvO/73iRYnjnz8Hm9Xl9ff3x9va7rjC3pf7o+EJJ1zh9ff3T3zu6mBApItkeCPtIW2RLQx5zrDG3u+960BUqpZM/ruprdTZY5Y0vyzNgWm6bpnOtc1zkjCSFKKyHR5r7vtoDk8VhI6DceAiEeTd7v+/3YlFru7t73+74LnjlnxjaibbJ7b3aTNAhZgs3qMR4pj83mYzePAoJSS0KUR5s+AIEePNJNmlYIBAJKedgzLlAobShN0gD2Of47ukkByyotpT9A8tgISkmye9+7SWTPXOe6zjlff/z5x59//PnHH9c5Q9voX87MGY9H9szreu39vjdpES1tkc51HUS7SVpki80m6ZzXdQl1s0kp/+DH2G36oet8zIzHM0N3997dOdd1zoxBgAAhIVGaPtLsprb84EMSshBCIPrY5Pvxfr93bUP7/v7b3/7aBHvGlqHk0VLZkgryj/a+b5DssdJmd9OkabtJQ0HCkpAoJU2ySW39oIXSNClUsh6QpIA845Z+pAlUD/NhW5YlxG+C0h/8EHogQWmSlrZJ02bOuV4fX6/X1x9//vn1us4lid17o3+ZmTNnzvgxj73fd5JiW22STc51jh4gWvCMlSa7K41NaVOq3xDCkixBQZLnnDnzsMcyTXaz8cwcjwXiQwhJ/Cikzd7vjaXxWPQD7LEeIChpk32/78euJDb7/etvf/21bfUbbZo2lbEQKvJjZqAJAkmw2TwotGmSTZqCsB6oFPKxSSVZlvgo/QAJfaA2oVR+tPSRj6bIYxf0sGw9+E30g1JAfsxYaZsmaVrKQyCur9fXH3/8+cfXuR6va8ZW233/+nXf+p9nznWdc8YeC5R77yTlnEs09/v7++0zHnvmmiNgzjkjKfd97242D8Aaz4xHDxDIQlgzHj/GvyGVpqVFsiwLxA8hIf6hze79viPLc0ZtsrvyOTOyeZQ+kubRH9zv7+9fHwhoyyO7aQFr2Gxb8HhmznhkCdpk7/udUslSsskmm02hsiVaCml+FLDG+iihgOwBBJTS0kqWSmlJdu9kKz9AQrJHtkxpefQB4mPmPK7j3Xt3s2lpK1njGX/9+eef//xP/+7PP+QRUh/J5v23//pfv7/1H+fDI8/Dj+wjbWdGQsne2wbJ9pmxpPHIQHbvzWaTFjGeM2dmJANFtiXZ87BHtvyQUNs0bdqAZI9HEggJ8W/aZh+VLFu0SRrZ47EFor+laVoKJff9/vjuI0mRvPf7TtrqUX4rxbItSyBoc9/vtLXHbprNpknTFMSjQoLSPEqxbCE1DQXNDD/Ej1IQastH82gKFk304bElISilfAiEsPwh5bF7J22Bua7X19cff3z98fXH1+vrdR0kmube+95733/97W/ft/712JKoxjNnZnLvbpLKkm2p7f2+FyTbI1uWRNtsNh8tWJ45Z86ZkQ0UeWxJnvGMbT1sGdGmSZPNnUr2dV2WEBL/RqiPPCpZQNu06MO2DGrT9EFbHhV0d+/dvTfZzcLYe3+/N5uiD0tAdksRiA9J7f2+t63njCndTUub3aQtD9l6QB5NQNZHHqV4ZvghIQSlUNqiB/1ICzS7+vBDQgj6kISQhKQCBVqSvZO2ks8f//TnP//Tv/vnf/7jel22pZbs7v3+fr/f9/3+69df71v/7whIUyTZnvv9/X7f73sFnnMswX2/F9APQEDzaNJSec451zUPf8w5NiBbgvLQ+IF+8GibNo9tZc05YxWE+CigR0vbUMSjUCoZoR/QZnfTVLYlxCPZ3Tx2N6HSeHLfdzatHtYPkvSR3WwSJNP393vT2mdGgmSRxd7v+967lawPS22S3S1IssgDkGYsPiQ+SgsUkGxBm0dbWh5C/1AobSxLQh/0gyKp3TQtc+b1T//8z//8T//05z+dsQV0N/f7v/Hr1/d79f9JpXmUguD9/ev7/X7fC2jmWIL7vreCAqWVBEnKQ7Jfr+v1uq4ZS0aac8ZFH9CP1HrwKAVRykcbkGzPiBbEQxQQUmlpKeWHQJJ5CAS0u/duG58ZW0K0yTZts0lB8ri7aQtICP3oj2Tv+85DMvn+/n7vrjQeSeyuNFbu+36/vxP/kCzIZh9twZKShofG/z9dcK9rW7MtCTUieuaY65zi5yFxKByEy0vwBFgYoKuiVBhISCAMJCQ8THgHTO759pwjs0eQY619fq5KtEYRJEgGCRIAAQ8dSOJHDjwCECRFBklsq8QDIIkcOCghNkDpel1ff/rzn//0p+t1CUBie+21Pve9jn2ve9332s2/4BE7SJzuvj+fe9tOAJBEEOzeDpDEzqEqCQBJVdWYr6/XVaMogCAgikRAkACSOHYOJO5uPEjWQQL8JiIHDh74FiAHgjjmQyRB4lsABHFvO4lGlSSCQOAkCJIgCUgQCAgSR4IQIgEiQfyIA8D+3J/P/bkNkgC99w5LZOJ139sqVdUAmfTubttxAJH5AZD6RpH5hgCIpJKKSHzEQRzHcUAQVWIQu7urSkQCgjgIkhKRDse8Xn/+87/60+t1zSkp/tb7vu/PsdZe+z722t38ZwBEEiSxu3v37rbjduzAjo84iN3dlDTHHIOSxlE1xpijJBIgHgQBBASII4e7HeewnQQgpaqBgxRFEvkGUCQQJA4CBEjaHYAQxQMEchg57OAYc46SCAKIEwBEAAQAAQIgQRw5ABIkGAD5DYG99/q8f727kYd3d0KAQNydEJRUIJLevXu37YASEQQEGJDUUVL+DqV6CHbbTnD4aDsAIYlA4kMqEiAABglIggQBzNefv32NMUpAeh/da78/78+xdnfvH27+PyBIAEHio0HCR6+9dz+2HRCxvdfuMV/X6/W6ZlXN63WNIQn/ngDBg/iWeHfHSXDYDgiJpcCAfiRx4kAUkaPdIAjA2b3dCUiJEsEk7c6BgyKv1+uqEgkgcQKSOAiCOAgQPxIkOEjit+DID99//PHH2u52+xG3EwCSyBwEAcbuvdda7QQqCQgpCUkAUqOqgiR27GTUqDFK6G7bAQ/bfTgACJIgkAAEKZEAYjsgEIRV9ac//8f/4X/09fq6JAGO1+dzr73v9evX+/1537tj59i9bf4fVZLwLWBJpRKAeK21u9vODyQAqPn19RpjlESqVOKBfxD8CBIQxLcgu30EFGk7BwASSEBSohInTpAgjh3bORy7u3cCIACl0oHY7QQgKZWur9drjpJAHAEIBj9IgAKJ3wIECIDgb4L4EXt9Pp+1tw0K3d57r50AokgQCBDH8bF7OwGlUhBQIhEchCTmYQMkx6iSyPiIDZJAkDiHE8dHEgQHRUlVQEKKIlXzuv705//gX/15jBKC2N3353Pfa69132utvXdvdxBSBPlvZx0EcUjXnGOMkoSsvbrbIcHYASKNMa6vr0si8f8j+BEkAQHiSODe206oUfK3dvBbAJBM7Dzadrc7hx273d7dAAE4UKnGKMJ22yEpler6er2uMaoAUDxABkESQiRFgTgIAiCCIAkO4kjSvdtH77WPTtVQd6/1uVcjEQ+JcOC2nSDdnYCUSnECCjzwV/kBlTTGEAHYcQ7wAECQcdzuY287BwKRGnNOiVRVqUrzul5fxwtI+rF7r899r3utvXu33b3bBqg5psR/qpJKEgGIY4waqkN0OwSlocqBgJRUGkUQfxM8iEfwIwCCJPgR2/tzf9qgxjVn7O692wQpAt22E+ew427v7u0EIIAkjm2AABJIrDGHEHuv7QQkxXFdc4yqQsCqUg1VgtgGpNJBEJQo8QAYAAlAkEm89+52DrvdnapBd+9137vjkCJFwk7sBED2XgZIqdRuJwFVIoHYOUCAlFQ1BokkbYOkJDIIJQaO7bjd34CQVM3r9ZrHmHMMHSVVSXJ7fz6fe+3+tva91u693U5IqmrUKIn/nVSqMYaAgPqtJJGURlWNEhAAIUiCIPF3QQACBBAcAZAgcZwgONx7r8/706Y0r2va7b27I4oS0qt3t+0kdtzt3r0dgJIIJLENEkAAUVVziEnWXp3gIKrGqCpVAkqqGlVAYDvQgyJIlkolUaRAIQkpCUF2b3cQJOjDkhjbe69OAomSqNjOA4jXfTsAH93bnYBVRQCOHRAiJYpVoyQCaVuPkugAFJDYOZDE7QZAimO8rtec1xxzVJFE4sRO796fz/u+u9vH3nvtox1Lo0aNGqoS+d+qjuv1GrAdHATBYx5jjlGSgBDEgziIb8ERBCAIAkGABIlju9t2AMJr3etzfxxJY4xyt9sOS0UR2Wvv3d0+ctjuwwExRolI7DZIAAFKrFFDOPoIjiDUo0QECEKWRBKwAZIAQZCsKlWVSipVMYk0Rolk7CQInOx97wbBAIkTUKxRpRLR7gSJ4/7cn24kSLL3tgFIVfmGUAclkdSoUYfgREdJYg7ksB2ElIRv67OM9wAAIABJREFUpKiqMedQlUgCiPdea+/d3e611u6/ce/ebQRjvl6zJJVK4r8dJdW8roHEjg0CBKl5XXNes0QSB0H8DfEIgCABQAJEEMBH2927995rA0J67732MkiWSo4TBJQKQOJv/bBzII4dkBw1RMfuNngggChVlQjAsXMgAURRIhEkcRKEBAmABBEEB1WHSqKoEgFIc445RhFI4vjo3t1JACKJo6Meo0oJ2t123Guv7jgH2p3wm9rtAGTVUJUkQkdVDaLdFFUH7djuHOBRNVQSHyIpVVEkgMD2+nzen/tzr+62HR9tt50flGo8RGjOWeL/NIriGLNA2O4NgQSpa17XnJcEEAgIgPg7AgGCwAFIfAvSvXt37732Wp/3BxARO+0OQvAAQIggKccBRCTpvXe7E5IAAoqqGoTd3W5IwoOgVCUCCBLHcQKI4oEjdnbv3QBYlEgwiZMAVaVSkQD4DVVzztfX65IE7G63/6pDKukOh0qlqnmNkrj3vbe/pd02jiSgRCDovTuEVHOMGiURJEiNYvbeIaQxi3Z3705AVqlGjaOGSAogAAIIHLv3/vz6449fv96f9+4ORCZx4gAkJY05Z4kkAF1fX6P4P4sI6lCVEFgPiiCoMaeKEv4FAsSPIInjHG07tnuvbrvdve/3r3fAB5AHkId+UCBjB5TopN1tOyEJAgRFPIIABCUitpOw5igBtOPfAj5AUgQCu20QPIDESJwEGDWqSoQdEOChGuN6fV2jhpjEceLYvbdBgMGDBGtc1zUI7rXW3rsbgGpUwU53Q6OGQHRvR3WoHiKBACAJuzsJKRFJencHFGuUjlKpRpWEH7F7rc/92Wvdj8/63N0dqYgkIACGrKr5el2jQCTGnFeR/ysTR6Uac1aBlKpEEd2NGnVIJI4ACAiCII4gQdt97L327rbdu3eCJPb969evhKQkJgiCuB1JpYNHnFAlBk4cxwkBAiBIxUZ46KCI+JvquoZIdrt/cwAQIEtFEogdgHgkzm/EOCQluzswQIhSXa/XNccYBRIAEcS9l0FQJN1uIDVer6uQ9F57r72a4nV9fU20e60VXnMWqXabNUaJLFWJQBAkiONutx2CEBnbAUmVRFKPMUYJQez07vV5//Hrve61u3vvvXbbqRpiAEoUQFXVuK6rCkBiqETyfwM6qXHMWcVD4gNtgyWpJJIgECAgAOIRxHHvvdb71/t9f253EDz4DevzfjvgIXQ7OBLnAR6ieJSqRBLIgSCOYwNSkQRJgN/EB4Car9cskb3XXmvfa6/VdgKQVaNYRGzHDkBQJBwDoOacQty91trdDkCqal7XHFWjjnGIBBxDEiVm3/dKoLquSbfbdndvSzWvr2uw3e/Pu3Fds0QFAUdVUaQkHkAQOO7e+3N/tgGN19driEzaDkI9KI4xBNj7vte91ro/n/tee7cd220EHGOUwNSooZJEiQEQgJLoOOH/IgQY85pjzBJBEqREJgZJURJJEAgQ5IE4bnf3Pu71fr8/n/vuTkBSKpUo9LrvGAiA9G6QROLYAUhK1KNUJYlEkG92bCMiJYriD4gqVYka83XNKmn3XvfxOdo2CFJVghi77SQAQVFJQFKaY8Dde++12u0kpFQ1akgqjTHmvGZJIgGOGpKAdX/uANKcg27jSNoROeachXa/3+/tKpVU+laSKEoiAToHYu/e931vh6zX9RqjCmm72yFFEpSKsdd6v9/rXmvv3bu7nSBBQFBjzhqSxqhRNVSS4EfHKsG7Hf67IUrX9ZpjDCkACNQDP3gIJAEESdrd7e697rXu+1776N573Wu3O6Q0Rg2JSLedOO1226DEdJsgVTqo30qiECQ+EANBkJikVFUSH6qqUaNqjjlrVJXbfX8+7/evX78aAUkJIOL0YYAEASQAQWnokd27HwiSAKD4AEGOY445alSRrDnnKBL7XgugVKMIpFRFJAFAVdHdfd+ftbrNMeaYs0okVVKViMR2JyTsbnecMCBQY5QIZO9tA0GCI9173e9f73vvdoLEMQIQ4lFjXHPOa45SjapRY5QQ7L3WDpB22/w3Y1SN+bpmqQDHpFRjDiHBQUk8EKe791rrvte91rrX2rt3nG/e3b27G4LGmKMkxbHjOHGCgABySKIIgkSpigTxCJA4RowgCBASVJVKlCiWSjVq1DdJcXrd9/25120EPIAkbXe3m6RKJeIHVSIAd287CUg4CB5BEIT6UVKpVON1vWaJtDuqhySKFEmAABgEiePee6+9HJXGUaVvPBK33U4IJE4QHInbgEiKtGM7PoLAvde678+n28bDNkBKNUqqY8z5er1G1ahxqIpA9rrvZaf3Wrv5T3OOMa7rGiSS7maNmvMa1XYASiURTLvX/fl83u9f7/fnfd/3XgZASiKION57OwTHmGNUFZzYTkDwQOIAYFUJORDUoTg+EjyCxDkAHiAolaSiJEpUHSIlijG811rbdgACDBy7D7tNUeOao0giCSkgsbs7ASgK+eYkduIEQBAQpMYY8+vrNYckEprHkFSqChLwEGnvbgCM071WG6DqGGNIYhC7d+/YCQIEAEkQyNrLHYM6qHj3bncDyd7rmxEQAtqGpDGuOWuMIWnMr6/XHDXGmKMoMslen/ve7f3+vNfmfz+HqmrMApK0Xdc1r+tV2mt3Aj6SeO/9ud+fz+e+P/c69tqRVBoqknDsdoc6qkoiY3ecQCodSbcDoKokEAggFuG2t9s4SCFxDpCSKPGbKIoiKUoUDwB2unu3nQA8RObwI7Fj1hhVJREAKTKJ124boFQEECROuw8bSeyOA9QY45rXKFIAOK9v8xhJJ5RUKrvbIIXD7bZjUapRVSQTp3t3t9tJ4Nh6kITdsZ0DKqXX2rt3A4jtvde9nIAqKQmrxnW9Xq/r9Zol1ZhzlkQ9ECT23mut+/j169e9+G9GSSyVkAQJ5ut6XfOS7vuzbSMgbPfa6/4cu/fe3b27NyTVgxT8iKNS6UEg3Z0ErBpFKe52ApSqKBIBCCLubreTgJTkJE5AqVQl4uBDIiECfABJfLTjOAFJVamCJO482h2pvvGbRIC99rYDqkp4JHHv3r3bSdy7u+1UqQ6JJADO14/ruibiQFJpVNIOq0QQSBzbIKiqEgHER3fv3t2x45iSKJIA4qPbKSl73Wv37jAI0L3XcoAaYxRBzTlfr6+vr9frdZUoVRUB4uFHu/de+/1+//r164978b9RqUQRSMhRNec1RxXxuT9r97adxOnex712EASJH0lIUZQYH+1QpTpE0O0OQFUNIXA6hvhXYIIgie3gSABSdOLYoEpVJSIACEriAwcB5GHngNsNkWPMWQi6e9tBnISiVFU8pFKRTO/tBJCKSIAk7t59OIn33u44YPCNIEVdr9frmo8xalRJFFUiQ9YYIwcOgkgMlCQcORD4/txr7XYI5kBAlhS3u2NL8r4/e9tOggBJu0FoXq9rSpqv4+v1eo0xRIIgCCBB7L122+691v3+9ev9/nzW4v8gHsEPlo4SwXjt1W13727Hjo9uAyRFMoh7d8CH4PgRknqQYOyApFTFOI4DUhIJxHFsgEhsiAKCg0AQJ6GkKpFAQIAUv+FbAAT5hqRtHDXmKATe3Q6IBAAhVUkgRUkk43ZAslS0nUc/9m4DiR3nNyfBQVFzXnPOMcccc4xRJVKjSo8aVUEAEhQZJ6EIBEBAELk/973W7pB0nASARLvbjgPEa61tgnECHqJUNebrdU1JY17zGEMSASRO4iSOe91r291r3ffn/evzue+9+X8ydjsJKMS/tbtjg2Tv+16OAxIBAhBVoySy91oJDiI+giMIDgJgAEoiKdhxEFJSVcVr7b17SyU6gUoEEQR/R1EU8SBAkCBBEEAAiAwQJ04Cx6FKApBuA1IFwSFWDQIgCOJwItWoKrF7+0i3e6+1TZCScCRxviEBwapRY8zjmiWVxKo5Z9UoSRT4dwlyIAkAkiCw17322tsJjiBB4tjdDpLdvffucFTFDqUxXq/XdV3zmnMOUiTFBwjm8O7DduC+73t391r3t8+6727+X8Tuvfbqdty920kcx0RqjJG+1+52u+0AkEpzzjEoZu+2kTjuvbeNgCATBCQIRJREiQhAgiJF0V5r7+4GCSRBVYkkEgcHSTxEUfwGOAcAPkCCeOQBEkgCgAQQ24BEBCApqcQkIL4FSdUcc16z3N376N299toNhCRIEEfiIwklSiWKGmPOcZRUNb5VlVQUJYoUGcTf4oCHStxrr727QzJAEsdH7Hzbe9uIxpwTNqga4+v1GkepVCAIEMRvie1u27Hd+/3+fPZa9+dYe+3tdvh/V/ban8/7Xmvvfe8d4ghIabyuyey9e/de991NYMw5rusak1Lc7djuvfe9VncCSkwC8EBASqwqkRSLFEEg6b1Xtx0nQYCqIYmI2wFAiUhCPYoS6e62k+igSAYBgiBEiQTywJE44YGE+kHECR4BEIxxzevr62skvdd932sfa3XbBhB+E9HtthNWFUUgBscY17zGGKU6xqM0SkfpQSWxu912AFA1SnvvPoKSEMTf0jkQxHvvSDXm63UhAVU1XtdVFAmA+LsAQR5ux4m79/3rjz8+n/v+vN/vT+82AoD/O9Pd97rvda9j7wAgQVXVmGMSPrr7vu+kRtUYo8YoSUzvbru9e+/eq+0EJJAAIpmEpDTGKFL8AQKM+3DbcUBQVUUy8O62DVUVCZDUN5Jxt3OIokAgwZED1INE4jgJEFIkEOpBMXESJEEoal6vbwPJXvfnPtZa9+52QxRJ8cDuh02VRAFJWFVjjlFjVI3SqCqpJJLSGDVqFAgESBDkAQbdnQBgiUiQIAliOwkA21DVmNc1AfChUpEiiL8LkDiHESd97HXf96/3r3vda9332gmCB/9HpHs/1n3v1btD8JDqUBWBIE7vvcA5RlWJIikiu3e32+12H3aMIzFAkQAIUGPM4jeQBEEgju3uOCEplUQk6cM2WAcpkBRFAoxzIJBIBkECEoATSFRJiOMj/A0B9CCZxIkTJ6qqeX29Xq/rGiC6173uz+ez1r12d0MSxUNMd+/uNiRRJIJQUn0bY5Sq9IMEpTFHjSo+RFFU4thuHyD1IHLgQcTtgFQASVXjIAiCAEGQIP4uQNDdjoMce691f77da+/eu7tBIAjAf4rXXu3uvbfbDimJpEAQD4IEGIQcowgiCQLE3dttB0D8iIOjdzugVKMAA6ohEjxAkfgtbTsJdZBAnDhOApDUQVEE8jAAkhKrhLQTAFWl2AlASkQ6jgNKYIA4oA6KieMjjjlqjOu65jEkMWmvz+e+73Uv9w4IkRQp2O7ebZAiSBCkKJJSVY1SiaQeFFUHCR46xphzCIm9uwMQolRS4jgASCUOVCWRoihKxEECIEAQ/ygI3Hu14zzWfX8+7/fnXnvbjtt2kDhO+F/HvdtJbMdIAIIgeMRukBRJkZBUhcNtO4ljtzsBicQJkgDZvR2QNccAElAiABL8lgAgmcRBQkoEkcT5DSBZo4oi4B+kxNI3xA4OVZFOAoIH4gQBISLIA3yIzOFH25RUY85xVEkikb0ee213GwlBUkdi9+4GCBIgwQcAUqpjiKRKVaoiiSCxSB1jXNdVBOCjaogSKTJIggAUgYBSib+BIL4RD+JfSuCstXa3v92fb/dO4qMdJ4HTTvhf5UEQRHDE7cQhqsp7bUAlkhIpSiIY7912jMPdNkEQjyCJu+2QrDEGiIAAggAUAcIxIJEAggAgCRBJjCRtB6TGvCbJ2Ltth6qSRFEEECAAKRAAQRIgEIAkjjxAHAFIIofb7nYCSqNGlUqiiqL7N39LALBqCIF7dwcBcRAEyRwkpTGGiqoaNcYoYu/dcVOUyKrXNYdEguDr6zWGSCQAiW8E/wogCBDEvy/4uyD2ute9d+/u3Z/35/NZq61S9tptxwRid8L/kqxDRQaJE7edBCCZ7iZLxb8RgaTX6gZCicgBAiQeiePuNkhq1ADxjwiSSAyABIIcAAgCIJjEdhyQrDGqJCZ2DuogRRDEgyQABsFB/EaKIJDDIomDBJHE7W53B4RUKpIgKJUKiY/2bzioKsZpd3cA5EGQpQIIgOSoQ/WNEtx7OwlJEaBGDUmsY7xerzlKIgiKDxCEeIAgvhH/KEDwLxBJ7Pux1l577c+v92dvB6MG9l7utp0ED/5r1nVdcwwh8V8FwZHEIaskkiBIkHG8191NUlUlECAAgTjio3snJFVVIIl/RIg5cARx4uAgAEpE3M4BgirVg0gQhKRIkABBEKSIIEASJEAAgiAJAsihEg8QRBLb7XZ3CIhFBk4QaY4hEHb8VwFASbTd7e4A8BEQVWOIAgGypDqGjgB2dxsERQIIRFKsGtecr+uac4wqqiiRogj+AED8TfAjyAGAIAjiIJK0P9/u+173/fm8Pw6pMSa6t7vd3Q6//WfUGLOqGHfsPAySIAEkCACVVBIZxL177+2UqlRFEARJkUASt/uwAahUKpFAgARH8C3BI86DDxCkgMRpOyCkUWPUEBHEORCK+kExBwFKYrrbSUCA3bYTQNQ4JBJJnBhB4rYdAwScdhKN1+sqArEdH+12HNQYAuK91naQthGK+lESS6JEUQQQx0coUQeDbySoGjXmNa95veacY4giJJLiAySII0CQBEEOx25SUkkFgAASd79//fHreL/vz73W3qo5hkoMAiDo9tEJ/zWoetBuG8FBskiCyG+lOkTG6b1W707GrCoVQJAUVQKQ9A87CatGqcTEgQPiSIAEIID8AB8iCSBx2h2ArDFHVQn5G5AlVZVKIoHwUIlZe7ljPHp3tx1KNeYckojYiQMSdOy9t4PAduLUeL1eJcLutt2O7XZQcwwA7rV2gridkHqQUqkkUQQBBPkN1DcSQRA8SFHXnNd1va6HJEollSSSIEEESBDHQZAgiduUVFUqgEAQd+9fv95//OUvf/nj/blvJ6g5x+APlSS3e+3V5n8SShpjyG0bgEpVGmIOOwmAUukA4uy19hHMOapEHKSoMYbIxHv34XasMapKgrudGKKYAwlA4pE4CYBSEUzi9pGA0pyDFGx3+E3UUSodNQ5RBGLvo7sDBDm6dwJyjFEC8UgMECTB/nzuNgIkSKCac5bE3oe7DcA2MOasJLZjiuy97RCqUQRAShQFJggCSiSCBykwPwAEQfC6XvPb63pVaYwx56hRkgjiCHK4bYMAHwhAQhKFI0n3Xvu+788///P/+8d77cUqlUQSoKQx5hhx931/uvmfBgRrFO22CdQYow4lcHcnAXSQDBzb7QMYo4okDh6qUSKRfrjb3UHVqBqCd7djsEQgAAKIJMgkdhKISuI4ToIkYI0xgSRtQ5RIUSqVqlQ15uu6CMR798NHggRA/EAolQgQBBIHBB99f+6EZAAkoEYNifTubscJYLejknKAgEpyb9sBWQJAlI4S4BgJRPEA4oAAcjghRQbAdc1Rkmp8qzlqjjEfo0QwQOL4AYKkSBAEwAeCtHfv3vv+3O8//vkv749t1SwJJABSGvMaA3Z/7s9u/hdIAkpwt02g5pw1qgSy997tOJIIILEDkSAoqYgfBElJBJG023Z374aoMWep9962iRIPEAQpilISO3GAuPd2gJDKAY0xEjs2IBUfKtVjjDGvr69X2r0+n7VzAMgDYBLERgCCBCHQboMkCHivDVYJRwKwJBKIkwDI0b27cwAhS6wqJY7dSRBCVD1GAW0nwUGKhO0gyA+r5hBFjhpCggAYc44hVl3X9fXnP//pqqICJE4cGyRIgqSCB8Egvde92+73r/evX3/8ujfBGqNEikBIcYxrDMR935/d/M/Fb6LtGIhUNWqUKHrt5XYskUmcg5Qo6kESyAHwAAkgcez2IwhUQ/SPgAcI/SgdQOzYDtK9unOQRBCoxsjhOBAlipSoKpVUY369XnF3r7sNgAeQwIlz4AgCIAQJxAEIBHF3kyqRBIIARL4hIYEgdtsJggAgwQNA/gogVVVjzikkDoLECH4LkMNJSOpblYTfqkpFsY7Xn76+Xtc1p1jEIwkCBACP/FV3r/u+2/j/qIJ3ZNuWdEnI7v5HjLnOycxL0SxQQUBAwDCuUsYFK0ooAdqASjPoAD1BBgHyfR57zRHxuxNj7ZO3jO9D3u/P9/vzva2jSiJIECrVnK85kOzPb9/W5r9UlQQKyBeTYtUYOrzW7o5DET6SgNT/T+wYCPEggCBp20jSNikSQOxGAAJEleqLSkjiR+Lu1e0kJI5AqgICJAEpit+pJJE1X9cVu93t8CGBQHzEAUkkzgEQYHAEiRPHpB5k/sE2AoAUkjiOASII4iAI+ACQdgOgqsa8rksKkCCOjyQiEQBBfgOqakgUQRAgKYoPcF6v44fXa4xRkkiCSZAgIBgffay17vu9GiLu+73WvQxVSRQBklKNMa7rNSeS9csvP78X/3upSkDwSGJSqhpVlLzW7gBgkX3YCSiCoFSqMQaQBEGQIEFA0HGc2G2Dh0gmRgDi0FGjhkgltmPHSe/ddhCRyAESor7wQBCAgFSiVDXnjO3YAQiCIEgAOQCSsDuJgQBIkIdjHBQlUmg7AZEEAUlJ6Xa3DZYUwN7bTjLHLBHxWncCquaYc8wSiCAPu91OAhCUwCQ+qDkmRRIAQVKiSCBxVY15vV7XGGOOOccYVSSII0Hs7n3f617r3nu3cey19u4dVBUJEqDmHHNec17XHLHvn/7212+f/B9ISYkRgjlIqmpUifRayyFZEvtwnBBIQtY4ZpFJkAQIcoBAHrZjBwQlikkQAARAsWqOUQDtbju24+7dDgBRQHAQVKnGKCGInQSAHpRKNRIkCA7iIEiCCAA+fMRxnN8gXwiCB4jYHYoiCIJUSdlrH52qUaTca+92Z17XLBL9fr9tkGOOqSqJIoAgsLt3ux2A0pACuDupOYZE4aBIUaQIOCbIqjHmmGNe85rXHHNUFUHESa+97vt9393bjhPH++h2WFUCSVB6va7XvK45r1He/fnXP//pl1/57wOAjhOCCAKAY8xRAHvddyCqVLQ7Dye2A81xjaoCnCABSQAJkMOJbQAk+AU5cBCAxFHXNYrA7r23ux2nd7dBUKQoShQP1RjFOO22E5CSKJIgKZIAgRAgCYB48JAIJG73I3YIgkGCIAGQxLGpMYYOUlSpfN/rvt/bGnOMUfBe++gxrzkk9Of73Q5ZYxQIsiRRSmD37t7dTsBRo0jGdlRfRISURFJ8AIhzAJrXnGPOMcecr9frEonEWe/jXnvzCGPv3mut3TZYNfQgqz5eH9c1j1G11/3rn//4//z0C/8dHu44CSGKBEslAfTaK5BUVUycIInzIMeYJSqxTYBH4CN+5EFJfICg48BBCNSoOV/XLBDrsVd3YiQgJfEQJR44qCKT2G4nQVXpAAOQBEkgjlgkkMPUdxQBu78kCMDgcBK3bQQhqBpjSKIeVeX7vt/v99oaNeYYRHevtbaqxpij/L7f7U4oEoA06pDc3r17u20A5KhRpYqdsESJRACNKpLgoVIBiLvtOeeoGsecHx8fU4Hd7n2s3d0liRKS+L7Xvfd2Sr9h1eu7OUr49ddf/v7HP/6/P/3KfyEBtNt2k2NMSSS+0G2HpGqUggQ5EAAiq0QCdtsUKdDuvbt7tzshpKoSD4BwHHcnAec1X8dVAO77fd/3Wm1ENWrUKBH8DoAdBwfB+Esy5hglkUmAAGRgWzVEJO5ujBpV+oLY3XaDRB5AYmc/QLJq1Bg1SLCkqhqV931/vj/XplRjDjHxvtcKUOP1urDWvXtvHyFYdY0xqrSOe+82AFHSqKoxCnFCkYFzUHNOkCAozXmVBO9771FDJY2a43q9Pibcu9deIRjbkVSjRpXE+/2+3/d7N0GKLKlqXvPjhx9/mJPpv/35z3/+45/++PM3/ldjXHOShGNyjCmSdtsBclBSiZXeqw+zJD5URRJxdyiSQNy7H3HIqpLIwAhBJkYQgqRKGqNKAPZaax8hVeNRpdhBggTxEYBkCQkSBFUlEJRKBHEEQVQlAIm7wwMgSAKOk1hDQtodu91fDEBVox486jdo91rvtWyDEgik12qSNa5rsvfevXt3twFozDmqir3X3rs7AKijDkkEQFIEkSAhxSAAIc05Rg2m9+4qjRpjzC+X3Hvv7iYlIOCYY9SoKonrvt/fPn+9bztUqapGzTk/fvzdj7Pg/Zc//flPf/7Tn375xv98XD/88DHGEAPVmFNAeq+94gSB6iCZdd97rW6NUSRIqXjY7VAkgNjtth1AmmMIQLttUkBCUBTFIAFBgOhutzsp1RhzzFKxe7ttxzkcAJSq8IXgAQSsOSclIsGDEomj7TiJExNEkOCoMSvpx+69u30A4ahRpSoSrFGlquKx97rX0cFBwLtNqeoak273Y+/tIKo5RpXYvftwCFJfigRIUVSROJIggZMQVI0x6oCPOuYYY15zVhW8927HlESQuq5rjBqSiH2v+9u3Xz/vvZuqL2OO+fG73/+ulH3/5Y9//tNf/vLnXz/5n9X8eH2MMecYc16v1wcSr/W+19FxpFGDIux2726IIkCAxOEjlIgjCXIAkcYoAujeNkUSAEGCQNx2uwMCJPGQOGqOEoi9Vh9OAj0IkiICBI8YIGpc16UqiQRshwBIwE5ixwcA4hFAY1QQ9/6y3LaTUFKNQyBFSGNUlar7Xve93jv4Lo5FlqrExHFidxuJOEolcu/tAyxJFEkw7galqhrlOAkAiglAqWpUMQGk0pyzSqyaY4pCuh2QCJAEvK5r1hhE7L17rXWv3bshPlRjzI/f/+H3xP3+/Muf//KXv/7tb99u/hfU/HI9Xh+vF2Lv+1hrbduQShQZxO7dAEkQDJD4kUgivgRfCGmMIhD3dlgUACLBER+9ux1HVZJIHVWjBMdr7W07AaBRKooP5EAQ26A0xjUvlUoUsnsHBw8nsWPHAUiCQBCphMTee+21VzsIDpFnyNXBAAAgAElEQVRVYwwCSAKNR43uda/7vjcIkkBsg5BEMQeQxE4QSlWS2LvbDlgqUSSB9O5Q0qhRbgcAWVUAWDVm1ah0mzXnGKMEhBxVJIEEIOTvgOu6Zo2C93f+0k6QINR1XT/8/g+/Q//6669/++tf//7Tzz+/F/8ZCDnnvI45rzkZZO977z7cDgKAxGHv3SAoiUDQvbttR1XEIwkISKoaYxCI7aQkBUE6/5Hd3bulKkl1jFFD6LVX7+0A4HeSSgcRx4nTNjXGHGMOfhevtQCQFIkkHeeAKJEEgoBkYnuvvfa9EoqSKFJSKT66gznGHGP0Xl9MSSWy995BoIOJESBIkESqUVVD7T4ciCwdFOA2eFRJcUJKVXOQ1Liua9ao7G6Oa8wgdjsRSYikiAD9sMM5r1Gl9H2/131vHkjShx3ohx9/+PF3v/+x3z/9/NNPP//8y7dvn6v5LwLBqhp1jBpFMO7dDSBBEjuJE8fuNkhKIpL03t22o5ICIAhAUmKpVAKRg1KRQOKj7SDB4e7Wow6pdKTXWrt3QvA3Uo2SROThxA7HmHOMKiBA4L7XHYJUiQDsODh0kAKDAETc3XuvtfcOdJQk6ot3HzsYc4wao3uttfe2pCoJXnvHAauKbTsxfqMaX6q/cwiIFCUyDnXUEYBVY4xrXiXVnK85q5Ruow7He6+9QzABAiZ2205Cal5zFNX7/nzf694gke52OyGqfvjh44djff70959+/fXXz/tebf5PoygRBAFQokgknUhFSrHd3bsP2wlISiRid+9uO2GJSAAEFCnxIYrCQR2kErt7705CSkLcFFkPkiCQXnt1d0KQAkloHMUDQRAngcY151DJcdrZe913AKqqBDB2AoI6KJFAcLh3773W7m6gqCpJJamoXnv37mSMUVWjex+9LVWpSO/VdsAxCr272w4okqgx5phjVO8+3A6CQxJJQFU1atYgOea8ruv1eo1RY85rDlGxDZC0e7/v9zIYf+ljbwOQquq6XiVir/fnt3XfO6B9r2UEqjHmx+sx1+fff/r52/vz7nbCfzeHqvAIAB54JAChgwCyD7ePGI8ghxMHASiJiRMnFHUQCCjxAH/jtHvv3QCoMYpBcLBURQpJvA+7AZJAQFI15yjwEAniUfOaQ0C6d+/e3e7mIZEgENsJgKrSQRLBsfde+3AIskSRFEWR7N6724aqVKq4e++9TKrGqMrebRuQBLedBKR4SKXSYTtO7DhxIJVEUqUa8zXnqDGvj9fH6/XxKqmqNEQQSQACtvd937uRuN17rbX3XiBZVWO8rlcRuD9//uXnz/f7DhDkC0hVjTHmNS/3+36v+95OAv6Pc1QVAQT/KgQBJJQoEVhrbdsJ8nCcGAF4gBQlJLG7DYKqEoNQIikCCI7Y3b27SarGKCLIQUoqCYm79+4kAIXYFlk1Zw2QJRXFL3VdV9HxWvfaa7cBUCIBBEBsJwCqRpVEAkGSXmuvdofiF4APkYT7sBOROpJ0772aZI05RtxtOwCBJADBf4BIEMQjgO2ODWqUSKmq5scPHx9zzOv1+ni9XtclUfyCf0ji7HXf3Y6PXve9HiFVVXNc8yog729//+mnb5/flgGySnCMg6JqzknY7t4OEPBfqkg9wOBgkFAkgyAACOf9fq8AVJXc3Q4AiiqJJEgQBN1rr97tmnNUSaJIEHHHSZw4jsGSKAKOHSekVKNIwN67QQBEvLulUo1Row6JX6Qa1+s1FOTz8/O99zZIESCA/AYAKZWqahB2+2i3ncOJu22A1HeMu+MEIEgwid29Q1I1SkRgOwm+SCXiCAKCBEEdIBO7bUc1hoKMMa+P3/3TH3435xijRo2qQYl4kCAeebj3une3G0C6916f77uTqA5JBHC/f/n118/P9wqpGmOg3W47lFRVzIEkCAD+W5GEDjxI4qBEAchhd/e61wYPkbEdgKxSqUTiIHjEa6+9d9eYY4wqkQxit9uOEwZAIIpE4EfbAFljTBKJD1Egkt57lUpSqeYYRYI4Ro35er1mkfz8fL/33jYpPAjAcUCQokRpjEnso7sRHITbvddaOwBUpYNw7CAhCATxkYOgKImH4yRGCNSoKpKIE4DgURoUiThOAo0xiuC8Pj5++N3vf/+7qhJJEAFFxO1QPID4u927HaQkxr335+e7bZAl4Uiy78/35/1eK4A0RqHde2+3xJIKQIJ/4D9LAEggCVhVPHTwQJK93vcyDJDJ7oZ4QKpRRYlIQlCkEne32yqVRhUJ9uH2F4AiiO+CuN3tNkDVnJNpByBVIpH03kuUQEhjThKIk8w5r9fHa45RWutee+3tBA9SZBwQIsUDmtdF3Pe9dzdVEojs7nXf9+o2VCWRBJAvIpHY3W2KxEGQFJWHHQSo8aVoOwEhiqWSCCIISWmOY46Pjx9/+OHjel0kgMS99yaUvt+7JVFi3L37sE3WGHPOgr335/vdCUiROezuvR572wEkxvbeq1tHSWQQBAEB8L+hQFIiJaokJOFDFBB0r7UTOE67uzWqwBAk9SCJ38RxDkglqcQE/fAjBg8gAQgSjOPuNiiqVPEBgFKRRNy7KZEEWDVIIgeuOa/X6zVGSXvv1bu7HUMkJdJJCH4BoXm9iPf9XnttqEqi4vZa91p2QgpEcDAHRMFJu22ViH9FBAECJEjVGDWq1HaCBzFqfKeqOcec46gxxnXNWVVMYnfvfd8riXvdyzwAxEcQHNSYc15zMHHf9x2QLIlu292999pfejsgA8B2UiXGOZAgsePwvwb1qBpzDIlMdycgJBFAfCTpvXe3nZpzAHHsUKpDymHHRsKjdFCEnXZ3O53EhMDYBqkHk7TbkUgkaTsJooMi4m4dBMBDopAA17zm9bpGUezdh93upkosEbFBAAQIouZ8Eff7fq/3Ckt1wHHvtXYQJHASAwSCQCLj+ICqFABBkAMHSSBOqR5i2wmCxBhzXtfHx8fruq4ffvzh4zVGDUo8kMR9rL3Wfb/vtrv36gbo2EmA0kGpxhzXNYfIZO1FqqqGtHe327v3Wr33OnYjICkeqlFZ92onRuK9dzf/W0rUUTVGEUjiHCAJ2E4QHOm9u5NUjSKAxABJPQgmjtsxRIkSCcT/kIQACMDu5qMkgnDbCQAnQRAEUEkkENs6CIAUS1VEAqnGvK45KHW32+7uvUBIKskJAIL4wjEvYu91f37eDqlRgyDsvTtxnDiOQxwBSAI5DKhKAPgPSJDEiaMHQeSLg4Rjzut6vV4fr9frn/7pP/n9D1ViAvfuY/f6bm/vTmB3bztx2yEpUhSlGmPMMcchug1KY15jdLfdvde6132ve627G0AA8NCcI+u+bSBxet1rN/8tRZGEVENEEhwJQLD3XglJUejebgQsiSSQBAgkURKR2O42SJEiAfiI4wQhQRBIHwBBUTwSO3biBCQBBCqJBJJYogiQkqpGkUGQ1LjmHCr1Yad7r22ErBKTACQIIgGqBuH2+/35dkKNMYsS7La7fcSOEfxHCYKAKokgpVIdQJLe7bZJkUAQAImDAGPMa17X6+OHj49/85/+mz/8OER097rf73Xvte5177V3JwjA2N7tbrcDSQUekmqMqlFjzjkKAEnN6zVn2+3ee93H+773Wm0AtgNAmmNirZWAiXuv+97Nfy8SsA2qKH4BCRDkfn9+OpKqBt1tAyEJkaCTIBFLEsU4bruBgBQJJnEeOEiAANK9Ow+AEAkgsR0ApEgAIamDQACCIKQ6RkkM0N0cY44h1e7dju3e20nAwzF4iGSckEJi73XvhNKc16gqJvbea/uRBx5BnMMIAB0kSzXquuYkEa+99lobPHAQIAIkAEtjXNfHx+9+/PEPv//Djx9zFO77fn9++3zf6169244RIiJh934YIVUSQUqlOnSMGmNIJVXNo9zu3ftY+37fq7sTAL132wHGGHAbENjuve/Vzf9A2E4CjSqCIEWRIID9/nw7ehSdjpHgIAgECQCKEo4gcWIEoXgAiRMEIAkiABK37SAPECCI2AkAkgKQIJFGlfgdAFL1kEhgd4OjqiT17nYct9t2EhAxQlCUiAQBEtuJQ1I1xhw1BpB4r7V3t50gQZCj7SAAAhA8pFKN63pNifE67vsGKR4gwEcSkKzxer0+fvzhx2vOMccorLXu9/teux/bdgCJEpk+dm8ApA6Qqt/wkFQlqarGGFWyu91f9rrXshMce+3ddlBVRAAC6b2797b5H+C1N8ma16voNnXwiLP32o5IHEkcOwGCAAgA8QHaHXxhcIgiCSQ2ElASg3xxghCI8wUkkjhIQBKIH6w5xxh1iIgDilKVRLK7A0qU1N22Yztx2w4CBA9SB0jHcbs1qkpHPUYRiffae63VRhAAPrp3QxKAIAl46JjXvEpC1l73+74BHSUCEEtCEoA1Xx+vj9fr1XttaIhuu7cDknvtvbvDGkMSE38BAR4ipDHHGFUFEABBglWjSiLddhLH7b1WO0GC9N7ddqIvROxea7fjhP8d4ERV4xDdTgCQQHdDKpJgkC/uNo4cCECJAgEEIIXYCQiCBHEEiYMqMYnzHf4VAyBIjCD4kjh2AKnGHLNKRJyQlEoige4dgKojcQ4/4hgEmcMxIIoHCMSO6tBBUhoiEu+1j24DOez+LioRBBJEFAhAdYwi9t7rICSNMQqADqbtBBrX65o1yt2GDgCJE4rs3bu7oXlNUUC+4BF8V2POMUcNBInjJGBVSQTaDakIJOu+d/vRfgQB9Cgh7X4ESfhfkpJqjBoS6djdDpCsverj42MUgDwce3cDRB4IWBKBgKJKgnd3QOIfKPpA1aDtJA6CICBEUWDgPBAC+YLEeajmnKUibAOkVBKA9O4E0DgIBkHsthNQhxN3d0ISJCWRQXSUJAIhS0zifXRsI7Hbe+9ut6GDJJBAIuMkIGsMcXf37k1SNa9ZICgS7m4HrDmn8B0p6mAAUITbbht1vS6SAAKEOPJwEI35GAOJu3e3Y2qIDOI2xzWHRNz3e+3dvXvvICBISlSpEtv5DuE/iyQk1ZxjFEkk6d57996sMSQSdvuRto0EIEiRBNLdpkhRSduURBBIEACJwRolO44dfAlBigeCAEH+ASSQIABUNQjG3bbI0igRgO0AkKqKIojAduwEEhUgB4LANkiJokSJpEiQARAkju3E3e1u996rOw6rhkjQcUiCQQiwVKSP7ialGmPKTgIkTqjSGKOUhCQAAiJFipLYtoNQowbxCILgN0ES1Rhzjjnc7rVXG0CNMZg4bnOMOWqoeq+9d+92d4IcAA8AJAiJiO3wf5ZIkBrX63VNSQR8v799vtfa0YNA773dPtpIwEMHkvRe3ZQoKmmbEkUSQR4IyKqSEx8AySB4UBRIPGLHbQPiARIAKSGJd3cklkaJAJLgICXxgcOBY4AS8UgQJO4OKalUBAiAoITE+E0SdK+9d/fuvdtAVKNEAHaH3wEEKRJJfJCSahTbHScIiPpOjEMQCABSR1EEnYCkSBEIQAIJAoAgkURVNcao0bt7r21LrBrFOHbMqho1qmz3F9t5OAkOx6RUB+2O+b+NkkpV8/XDD68pEcn+5ae//v2n9+dnxpwSkrXu1d8ZlChSIOK4j0hVKsW92wlKR4AcAElRzGEHlAjHiUMdJRFI7O692yE4xigSBEAgiTvRo0QkAIKDjwQASXxH6ghiuxEAQaCDktJ2jIAiEZCicATuXsde23ZCUhKJJLajLyRAkATsPECRkmg7QEhRpCiKcOIkOFhVOhC3RVaNUYgTBNKgEgABSBABS6WDbj8Aig8kQACIIkUGRg7bHSRBHnbbgKhSEU7C/2OWJEpjXnMWgcT7l7//9e8/ffv2LeMapN3rfa/d7t5uSvwCIIntdlSHyr3uZRs1hgQwQUBRPBLHDkgxcdIO61BJQGJ77907AeacJeJfJQYoiQcOggBCgMgBkAQJEqLIxEcDIAGQoijS3W0nAYlDqpIoBu5e97rXvZwAFCURcGInpS8EAQKI7QQBwS9gCIKiSOKRBAEQJGBV6YD3bpE1rllygoCqkoIAAb8ApAgCsB0nAUGQBEAQJEggCB4E4DjIgfjoAyApFREE/L9mEQQIgEjixP3tl7///Mu3b58eo+De+/1+r3a724ZIfEcE8BHVodr7/X53nDlnFUAE0cEDiR3HIIHEsaNRo6pEIHDce++2kzlGicQRgkwASCQA8YuABI/ECEKQAr8APmKDkgKAX0D34TgIgEA1a4waQtK97vV+v1cHoKgHcjhGiSXxAQSx20EQBOBROig+QMDtDghJROyUVCqh994AasxrFEEQVBWJIAiogyAOJ4iP2AkSiiLF74DEDgCSIgHk4djuLwkJScQR/t+jCPjo39juvde97vt2SYm73+/77t1u2yCYIAmCIHHbUkmi930vBxg1JXwniiR4ID4ShAQQh1WqMYoEYrt7d9uJVDxAEAARAKREAHqUCojzGwQBSAIECdD5ApLId4QkIkji/IZ1jCoFsddeDwcESEoCArsdihJJ8QCQ9hEHIVUqiZIoggCRtB2SUglxopJExXs3ANYhgNRREhE8pKoiGbftJAjiI0EoCkFwkBSQBI+EFEUQjt3du9tNlFQqIgn4f44C0HvvtfZae+92mxLRu0M87Pt+33tvd2wEcBInThC7bYoimd6rA1AqMQi/gCAolZLuThyVhCQQOcasIoB2P+w4OAgeIoIvFEWAUlWNUYw7dhwkSBCCAEGAAAIkAILYaTdQNXQAiRM7NlWlkgQg7t67dxsIEFASgqR7m/8gURRit7sdABpjlEhRIkEciR1QLJWYIBIf8XYD4JcApaGSqCAEqapRpNxrt5OQhN0xEkqM204ASSSII2mHVUMiE7f33m2HGlWlkmOE/7tEwP3FTuB2WKOEOHBIkWvda6/dthPH+Q6O04d5iEIcJ8ERIGCJDxwsVbLbATjGEGKDwJijigS63YedwwF4iCIIAgQBUqyqMSjBbjtxvjgAwUMUH/ER53DihFJRJBzb7QCpGqNUFKmk3e22EyQICSaw3W18R1WVSMJfOgBVY5T4GxAJcoCqGjVLOPJw7Nik+MhBSSRFggCoOkSl9247poggB0KKcXc7BkVRfMBxoKNKIOK9txFQogAiMcL/lQRhd0KQVRU70qiimN4NSuzde6/Vbcdu5zvYTnfbQCiJIJI4jh0AlMQHQEqCuwOxxpyEDwBjjBKJ9OG2jRwAKVEUQJAEAVCiVBJBxHYettvtUJSqVCUKdHe77QQJALIkIHG3HxBZNaokilQQx3F8xAlAIHDszgGArBpDKsZu242ArBoSD5AEkAeAGnPMOUeRTO/efdgJKYoC4pAgAYoSEFAPEm7bcXggQBCQYty9YwMkRYoikQQkqlQUie4dkRQBu5044P+CI7ZR85rX9bqYBCA5avi+bxtIgu619m63HdtJHD8SJ3ZDKh5IHLsdBOAhiaJ4wDZUo8YYRG8bQFWJRLJ7246DQGKpSiLpIKBESiSBHCAOAkG6e6+1/j+q4GDHtm3LzvLfWh9zxT4JmfihMDYFoIKETQUJ8SIguYIoIBBlJB6AAhXey755d8Sao/fGmBHnZorv61TVuq5rrbIhs3v3HBDZrlqr5j723W3JLtuyHog/hf5TLCNEJpOMsLzWtQ6xj54JhyUfEkLAzATJ6+P18fp4rSUp7/f9ft/37pkgrLLFIxAkVykHD/GnIAEJAcl2pnsmCYgQXGUJULBlW1aIqmwJ7ve9e2ai/9E6MsFV6/p4vQqRh+X++vranQRBd+8+JvM3PZPhSDLIetA9PT0JCEmuclkWaNKDr3XVKqW7g5AlSKanJweEKletZZFMBvwDlG8khB+Tnu6dVPl6Xdeqsqa7d+/pmZGwV9WqVfv99b737llVJRkBkowkWwal9737wJYFdO+eGVGu1/V6Xa/L3PvRk4Asu2xJQJgMsuv6+Ph4Xa9VQvN+3+/3+757JuHQwREISFUlcswEIsmSUCAJAWFJzEwSAiSdqVVVNkwGS1UuW/4mof42M/pf16qqJGQir+uqKmX29GTur8/P3ZNgETJ9TObR3XtPEmEJIQ4p6fe9pxNk2VKtWmWbkJk9qetaVUvp7hhxTGYmMxC+lWsdRXfPDHJVyc5DwGQegCRACFm6DpeV+33f08fMWOVVq6rs/fX13t3Jta4iJJlYtstetUrAfb/3ngm2JZj31/vdM6jWev369fH6eJX23vfRnWC7yi5bSsIQuWpdH6+Pa60yZO57v9/3e89MJpNMEo4AQnaVJNLTnQRXlSVlJgcIiccQfszsPXWtq2qR3RvJVWvVWmUhy7Ikenqi/70eIKY7kWxXAZnuvt/v996TsS1bmb33zGRIpr/tcMh2uQSZ+36/uztyVflPOoBkEleVXGQmQYBIMpNJIMlMyq61ltPTgFzLBmUSJCvHZJLwkKrKxzpsk/f7fffuHhLZsuRDs/fu7knVslBIAtiuta5rWWL33U0iS8DMfb/f+74nsl8fx+ujqrv3fd/dM7hcli2LJARUa12v1+vDtkhmpmfve3dnJjOTTEAKPySXBGRmMgPIrrIkMpM5OCShJISEhLWu5bLS0wFkuWotH/Kj7AjQ/1auVS5r7rv3zMhVtmHf99737p4Zl12rkvvePT0ImOm+77snwVVrXcuazP31fu/dYa1VrpIQIIQgIOsBOXgIQjIJSWa6x0etcqbbVnmVlccElw3kMZkAqvVay+U6JCXvr/e9954IZAFBsjKZ6Z7Ilm0gx8jl63q9rrI00xMkhJLM7Pt+v9+f3YnW6+P18fGxnJl977u7g1zWDxIerut6Xa/XS8AcCZnuPZ2Z6ckkQRIQEiRbiCOZmcyMfK1VtZQ+9r0DUtnK5ADJXnUt25CZZEKQ6rBLdrlWlcuW/mevta6PXx/V7/fX+/2+WVW2mff7vfONSMh2Zh+9G0kQ9n2/e5LUqnXYJPv9vvfuUD9ESCYggUBGlkRCCP9MJJPpnrFsl5WZ8Q+UH1JZtghJOILruq61aokjybzf9927EwFCfBMkmZ6JJFeVBZnu2LWu1/WqKkPAthKSmbnv/f78+rz3DHVd1+v1KifTvbunJ5IQCIQQklzruq7X9RKQmQlo+pije2YSJDuTSYJcpQMJJZnujVbVdV1O973v+x2Qa5VDQkC2q1ZVLTHpfCMISUi2ax3lkvXvXNd1/fF3f6ze7/f7vm/Zlpj5+vxqhMSRIMjse9/33mA95n2/ZxJq1aq1LEjf9+5uYruqLEJmEiEEEpIsQQIhfBOCTOYRW7YMmVi2ECHhkMuWRTIJIMlrXde11iKTyUzv+949DUIEREAo5JgEUK2yJXr3yF7rdb1WVUnItYrMkGPvvj9/f37dd7drrWtd5Uymp2cmA4QfkmVJ9lrXw4J0TxCZnm/d05OA5EwmBMplS7bswPTeocrruirT+77vdyK5Vi1AECHZ5XKVNQkQkjA5CJJcq6psS/8Or+v69evXIjMhPGZ631+fn42wLOYI6b7v+/1+35Fsl+e+7wlSPVaJTLqnMyGSfCAgCRJ/kmRDwiOER77NBIItWwgCMkpIgmyXywXMdM9kUlVrXWtd11rMZB57754Jkk1CCDpgeCQzssu2NLtHqNbrda0qW9jXtTQ9SCKT/v378/h6p+xVy0oymUkmfwIk2S6QXHWt6/WSYfbuAeXbZHqmZzqJCOGbrLLrYZJMd5BVVSZ03/seoB62hSAEy7IOhG2hMD09mUwmkWXZQv/LYNf18brWuupBMvv9/no0AQQzmWP3fbzvDfrW7/ueSFrrWq5Kenp6RliHLVsICFhAOIRQMjMgfoQkkwcChAQSSLLI5MBeVXY5Ybp3z1Fr1XWta61V5Ji/SZBkwhHJth4kM92xLUv07gZVvV7XKrts17WWpluyLTRfX5+ff/3r788G2ZYmmYSEcOQgEv6b8lrX65LI3PfuEAghyUympxNEIAdIcrnWWlUhmZ6JwLKApKcD2OVy2UKQAOEh+YeAvbtnkiHhEYj+j54ktdbrj//oP/7167oukv76/dffv9/ve89kJgeZ3r33ve/dPeFIZn+93xPL1+u6bM/s3t0zVavK5YcAgbBEQpBIMn2MkBCQkIMQBMkQEJZcNjOTo2qtsuUk07t3T/data7rWpfLEmQmA0lIEEJCILtq1SoyPXvvSBYke+8JVL1e17KrVq1aq5huucrl4r7fv//6l3/8690zwmQyCd8km0wSQLbXWlW213VdwPT9vvdk+JtMMjOJUUhmJpFkV611rQpJz3RChPgmvkmWq8o6gMz0ZAJlu+yypHvv7hmQlGS6e6L/iwC21+vj1+taVenu++vr67177/ve9949gZnpnt279zQBMpneLWyvWpY0092TwS4/9A1Zkg8hQAI0s4/uAUESkskDcYhMgqVVy2RmknGtskBIkJnee0vydX28rnUtAckkhMlMJgEh21XXdZVLzHTve08gJDM9qVrHtVatWqvKiJluedW61svd/fuvf/nLX77ue+cxmViSbQmRBNDho1x2lcsk0733hMnMhG9JJgMCQiZBlmXXYZJ090TILssSySRE8t8ISHoeCdafLM1kJhMI8+iZ0f9tCQiqVWVb0917370zc7+/3u977x2SeXRPd0848sNHWVZgZnoCyLJlCbAkP6pKD/Qtc+/7ft9vEGRyTCYJAkmkJ8haa1mZyWTssoD4kDVz752M63Vc10sIEnLMTM9kApKr1nq9XpaV6el7704yOSbRul7XutZxrbXK6m8jr7VeHx8ryefvf/8f/vL76+s9Rw7KdpWlhBChf2KXy7KSOXqGMN0zII5JJiF8C5FsHVZZwHT3RFatOixNzyRB/iZb5JiezEw4QkAHEpn8mJlMJvp/l5Ps3jOZhJDJMQTS+35Pz9HTvfuY6ekREuSBXDZHJpNJQOhhSYBkuQ67hA7LsjL3fb/v9zsck0kmDxDKYxLZriorD18efL4AACAASURBVIKRBPIPmMlkkKvquq5yWYL0MTMJPySXr1Ulk/RM9x4QjySqta51Xdfr9fGqMrnve3e3VOt6fXxcoK/Pf/8f/vL78/NrJkGSq2wLkgnfFAhCdlW5qpLMdE+TBwiRzEzPTDIgHipbBPkhp7tnhKpWlS0lk0mQbNkCkpCEzPTMZCaTIGRZEHJYlhDo/1numX3fe/eengkgQEKavXdC6B+7u+ehgyQMkQ8IM5OECEnoB8KyvWpZB0g+JGXux/ueHJNJMiGgY2YyAalsWRC+CcnyNx0cOXTUuq6qZUPSe/fMBCFASHLZMsoxR2RZRwZcXuta1+v1uqpM7qO75VrX6/WxIO/Pf/zLP35+fb57JrJdqyzITCb8SEJ0VK1aq1YyM30kg0AHM9M9PTM9gIRklyFg2VVmpmdC7CofQmQygB4QvoUk09PTMzk4JFkSAly2LKH/s9TT+9G7pydIlpCEpruJ0CRz9O7dkwREfoBsc0wOQEJCSLJk2S6vWk4CCB+IzN773vvu3jP5E4dt9cyESCqHABFCj6pVyzYkIATosK91VZVhZnp3TyYBLEtCEuJvQmSXH5NEsutYq1atEt27e7drXeu6Xp6e99fv359f9/vu3aHKdSQ9RwZBgACSq9a1jsrMdO/uTEBIKPPome7pgCSXVRYgJFeVkjl6hHyUj0wyeXAIyVIyyfSkZ0AcSSaqctmW9Q3pfzI9s7un55FB6JtlMgGhyUyS7r13CJJgkgDCEohvAgkECJAtl10uKxMQkixCpqe7p3fvnsnkAUi2ZxKQZHtyEPQnu6psQwhCCPmo61plmUxmd89kiECWEAiEJAgPV61yWdMzgO2qWvUw0z3T41prXddVPfN+//78fN/33r0Tl2058yMghABhu37YmZmeIxMQj/T8s4Ak27IlEEhVS0KZIwmWbckJCeQBkiyLPyVBdgkl3Y3QgRAQQP8DmUlPJiFkQoIOu0pGCDE9SejeuwNYlmaC0IFAh2WJf5JEll22LEgCEkKQYzJJ6L2758iEQ7Icgixb8iQzJJIthGT5EH8jybVqXeuSEDl29yQBISQgCKSylBChqrVWlbV79yRSuWrVQ+qZSWLXWtfrqpm835+fX+/73rv3xLKAZCZzCD2MpHK59LBmMhMySQCRZKZ7JslkAkIPWxLiUB0uK/Mt6ABxSILJgCTLsqxyWYi6Vtkm+949M5lkIMlMov+WzOQAASGBSJYsC0EICcmk9xEJSRxR2daBkF2WJfKATIIlHwIyM0gCwj9JMt093zI5kCUh+RBSJhOOsiUUEJKsgxAk1VrrWtcSJJkkk8kDhCS+BR9CYMtrlW1pes9kwEeVy5bIQVxrvV4fH2tm3l9//f35vu99zAhJFiTp6QkgWZJlyZIsW+mZycEjJJNMz4R84whBtiXEo1atWmUFevckgNDDsjSTIGTZ5arX9VqXy+tay4L07vt+3/e+984xk4n+a5IQQAImgWBZB4+QBMHMdO+9kYQAIa0qy7Iku2xLyszk2xBJlgVJZhokcuiwBDnmyBw9R6JvPsqSPJMhSOWSUBgCyLYgIFxrrWtdSyGZTIDMTA4kS0JMkC1ZVtleLslopmcyQYcfsiQguGpdHx+/1sy8378/v973vve+uyGyLSDTPUnAsh4I+Vt1757JIAEJk2M6IeQAckDJkiBArVqHLdG9e2aCDttlS5MEYblcq67Xx8fHa13XWqsMyXTfX8f76/2eZB7RvzEShBzTe29ArrJDCCQkksgcPYMQCB0u/6jDLkEyPZ1MCASQBITMTIBkJi7bEiQhJJOZ7t0zEyQhZFfVWiszmYCqyhZKwswg2xIC5Fq11rXEkRBgpntmMpaPMgkQyeWqcsk6IDNJCEl02LLKVogk+1qXk8z07n3c7/fuSdABymMSsBAQUK21yvZ9v+/d07EkxCPJTGYSEgJCsizIQVS1qsplSTM93T0jUbXKlhQiya5va63rul4fH69lW5D09N73ft/v993Ts6cn+reWECGT6b73DuAqOwl5kAiRSSZBkpFkJFmyZNdaq6rEHN2TgxCSCEFIJoNAmaTKNiJMIGQy072nMwEhJNdxrQXJJJHLh0gmPRNsWTIg2VVrLUtIQMLs7plMXK5DSgjBrrKtAx3kAIUkCFlW1SoTCKiqLIRIet/76/21dyYhJITHZABBIKBaV1novt/37pmx/oTIZI5MEpBkW7LDhAAuf9ORyUz3RFatKguE8KpVVS7Zcnmtj9erbAGTmZ6e3vu+d/f0MdG/EQpHMpne3ZMg2wo5Jt8ISThUrrItgThEpPW4LtHTMz1AjskBgmQSIlsWYFsgkkmYZGbS05kkREhyPVaVpDBJJPlgenpmgg5bICHbay3Lsi31THfvBFS1qspSDoRddhgO2RIhklA4hCXXda1CJJOUy+WyLfZ9v7++vu4Omenp7oksdSYJ4Ztkl0im971nMiBZsoQ0yUzmm2zLZcsS4ZuEDgspx0xCuQ6LJLav6+O1SlaSIchrrZINSSYzyUzv7jm6O9F/JYFCyDG7OwJ0AJkkIAhhkhBcq6qWLUTIgVxetZaYyUzCI9+Gb3kg2RJClsSRDPkx053J8BCojlWrBGQyHDpgchAOHciS5SqXflgh090g2VVlyxwBZFv5BrJEQP8/dr2uqwJ5uMpVZRm6936/v3aTTE/37plAdveEEB6SEJmZTBJCAFkHMJnJHJlI/oGEJISEhA5ASQhIVeVyoUC51nVdVZLmQYgkHySZ6ZlMMp3J0TNE/5keSYAku1sy4iFyIMtAkpnMxFVrrauWZGYyGZDkcol8QwgCeXAEcuiwQAgdkJAMj3T3HCBBgqtqHeSYDIQfAkkQQsA/yrI5IiTLmWlUfkiWhJxDspRjEpAUQJbskm1Zqnp9XE6YJLhcVbYIk5n7vvckmenZfcxM3/ueBBIiBCHT07IsAWH0gNAzmclMElm2LJNYtiRLQpZCCAnyUa6yrUeVa1XZFtM9EyYzI9tkMr17MglDgByg/1QHJJJMeiZCD8gBARRIJpkktqvWtUoyM0MAgawHJIQjECAcISEckkAIEBLhCAJlpicTkMgEu6rWWpP5BhIEYalskZCj/ENCzCQgbAuwq8wPyWUICJSQEL4FJOxyWa5adV0frw/1dPeeQZJlQY6Znk4g6Z4+ZibdvTMh33iEyYywhCAJQjy6ezJJAMmSUJKRyirbEhIkkwngWrVcZfkhS5ZtAZnp4ZEEi2SSmQmPIQRCQP9SCEKkKjGZJFhHDghJCGRyAJLsVWVZOQQSINCDIyEJCeJbSEA8BIIEHUiIQ4hkQsJjMsiuWlU9fczEsgDJ8ipLSUhwuWSbIz2TCEm2ZNdBEohUVSDyJx7iT8Lyo+q6Xq+P18eH7t73vrtDEII8JgeP6emenkkyM51MjklCgCQTEEiQ8E+6ezIJCFsSkJkg2+WyhBQyByCvVVW25aPKSAiRZKYn6OBQyOQgSAICBELQfznJJESqkgkzPRwCkRBCIEwCkpAQQkjosGSEACEhIDOZTCLxIyCJv0kGyXbZEB6SkASZzIHk8tH70R27LFuyXC5BAFFVLttKMjMBiYeQ6tADJNsgZrp7emL9sA5+uLxer18fHx+vF/e+9949OYBkMiE8EtK9e3oSBJPJTP40IWQykwQQCg8RyGQmmYAkW0aQCZIt2xLiyAGSLFmWLddDEkcyM90d+ZAUJiEcAiFZEkpmgv6bzA9kS0CmB4KElHCEfAMJoSAgEuhhGcQhhAhJJg9+CCQkvkkoBNmuI5NJiFy2JaZ7pifyIan3t47KdlmHHzxkrbWqLCmTTALiCAKpLJctW0JCYvbu3XviQ2VZB48gq67X6+P1ul7svbtnJhACSYggZI7u3T1JEEpmMvmbSSaZTCYEISEBIoRkJjMJoL8hyA/ZHEIQQAcSErbkhx6QzHTvHleVLWdmACFEoHzVqir13hP990nP7L0HSZCQ8E1CBHFMTziECEFICIWgBxGHQGRm+KGEgIRlQTgs20Ky7Dq6p3sy1Fouidm9pzcqWxK9u3vvHll2WQLJJQRy+XpdVRLkByEgJB6iqlxVVhLZdN97925s12EBQkgCQq1rreu61NN5CPEQkiymu/e9j24OAemZCTnITOaRTALoYUkgCCTp6Z4JIUKyLKlqVdnyJOgAoR9IIBCHDstKpmfvPV6ryuV0NzoQJFnXxzff7689+u8gyb73DuFPQigQDiHIJAQCOcCyBAJkWRAQSCKZSUIIOYQk64Es2WXrEb4lQwKqWrZJ77t7BrksCwGZzhAQAoFlCZCsta4SSWYGEIfQw3rYlmU9quzp3Xt6sF2HQ5JJwjdVrSqXNckkA5ZsWbJsq/e+76/3eydBCEK6eyYzmWQmk5kJIeHQYSOOEMTM7p6ZCEm2y+VVq6os59ugo8olCUIQInyTZUjmiFyy0MweybZkEq7XH79+vT5evu+vjv6tJLj33TNJhCR0QCYBhKRAQo5JZpBsS8jIh0RAQpaSOTLJ5IH+ZKtsl6tsmUxP9zRCluxyWSL7vvdkpHL5qLVKAmY6D0BISgiCcpnMo5GMhB6ussu2xCGvVWstJ90zCT7KVmZm9+6ZDPJRNoLAZCaWvWrZ8kN77/f78/OrEZIgIf1jeiaTZJLhyAFCZQvyTXKmd/fMyLbsqlVr1cMWYbo72FXXWpIgCQgSEiJZEkeIJEgy05HLtozC6+OPP369rku970H/hSDJzBBACIF4hEMgEIIwmZnuGWS5XDpcq0oPS5ZJd89kHhmSCRFSVflRLpdN+tjdsmXLhwSZfUxGVWtdr+t6va7X63Wt6u5kwqO7933f3SSII2RmOAKE4Ot4XddVyyap9cff/XFdV4lJCELKo7v3+/11v3t3AFkSIskQJJXLVSIJQoTur/d7zzRIEDKTvd9390yQEYQkMx3quNaC6d73vRFhchAfetgql+2ygExPtKrWupZt2XIyPwSSJQQhSIKQENCRgOT1en28Vi2LWPpXJBkSQA8D4puQJSDoyGSOnu4Gya4yyLVWlR+yZaa759GTSTIzCeCqsmW77KpSunfv3vIhSzKQzHRPEte1Xq9fH78+jl9//N1rTfckAZL7vb++Pr/ue3omkwAhCSTkMXV9fHy8Pl4fq8oK6+Mf/v7vP9ZVVgChwEz37O799fn59fV+3z0TkEBkZkCyy3WQ3Z0htknv3r13hkBIJnu/37t7xrJlwWSmG63rul7XxfTe76/3HUKICPiQEJIs27IkIBNUx6oqu2rVykxPdw9IsnWQDIg/SQGSGSTVutaqw0fpX5PpOSLJrrKROCTbtYocCLp7er4lAUkmE7mqVq2yLVmaoyczk0wmDw75kOTHqhIz3b0bCSEE4ggISVXren38Oj4+Pn798cfHNTMhCUnex9f7633f73umJzOJEEiEJDO+Xh+vj9frZSTbH3/8i3/xn7yqLCGQyLdJz+z3+/319fn5+b7vHYQk0jOJJJdrrcXce+/pyEdJ6X10d45Jd++juwHJFplkQr2Oa10z9973vXdCMkkAyZIsH7LMNyGEDgSyq+q6LpLMdE8mqrVsS3NkEnQgETIPgrzqmw70n4eZSQKWLBuEkFTHqlImA2R3797TE0LCt8lIrlrrKv0pk8wkk5CEkAQiV1mWZLmqxMx09+ab+CaELa9V61rX6/Xx8fr28bpWSCbJJHPf977v/b7f73fPt0ToG4IE1brWdQj5el1//N0//P0/LKFvIDLhUCaze7/fn78/P7++7hm+TXcHJJfLVco8EtmuKuX+tjuZdPd0797dDUi2NBkS1ev1utaq6fve++5NCEkIhCAfVWVJIUQICR2QIMm11uKYTCLkdV22RM+eI8jmR9LzTbJdLpFk9K9FgiQkjoQQy/Zaqw6YTI7de9/77kFASEIyke1aaxUCAYGQg0RC5DFhXatsS0BVienpI4Q/CR3lqo/Xx+u6Xuu61rdaZQky33q6e459v9/veSQB9PAhEJJdh63r1x9/9/hDSSRZHJkglxEh2ffn8fvzqzuTTLp3B0k+JCwfQodtqd9fX/f93juZ2b27e/oYhFQ2mRyq63VdZU+/3/fu3QGEUKC7B7tqrUuCEALikGyHkESUDeLhWmu9rssi6b17ZkJZJEEi0+neDZYs09279a/IIcu2IJPJIJeralkGZpIw07N77w1IQGYSDsl22RKSJY4kBCGJZCYzo7WWqywhygU93TPNPxMSdrlex3WtVeWSpTpcdmamd3dPJiHT+95JJpAQJNmuKskcku3r+Hi8Pl5MD5YlEMFH2TqY/f76+v37r5/dk0CSSSaJDyTXD4cESL/f7/v9vvdMZu/dM5nMBElIIpPJoLWuta41+/3ee3eHI3zr7gHbtZYkvoVwSC4LEUC2RSCga13Xui4LmJkgLFvpSVDSM909E5LMTObQv0wmke2yxUxmOvZy2SVCvpFMZqa7IyQD0xOE0IG+2WWBJgEkS5pHz7CqymU9yibTPZNBiBAkhA7b1+u61lpliRBUq9aqlZnZDxEkZaaH/H9UwcGuZdu2HNSI6H3MtTN9P4UySEbP9jNClEBYokIRvoIif+C6qxT4wnsy95yjRzDW3nlAtIaECJKAorq6JDExCPHj4+O1urqry3sPKIlfUKpvouLnvn/99devGQckQMDetihRVHXX6lXxEXvu57mPPfbsvW0kCAAeCBLHnqCqe10r+76f2eMggYODM7ZBqFQihYM5QJAqShRAUCUmSAD2Wl29JBAEWG+iPDMBkvFbbM/s59lxYv53eQNASSSQjEOVRBJJAIKxkyCHQVJV4h4bCIgjCEGqSgThJCCp6nLGbyAJBlCppAI8TmLiGw8QBA9RqkMgkoCqqq5C4tl7RhQpgUC+IAgOkaWWRCIHKP34+ePVJZHg83k/YH0hDFV3r7VaVDx7//71168EARIksJ2IKpUkqtZ1NQkktveez8/f9733nr23nYSk+IbAnokTSl2rV/b9PHvGCGJPQtJJnACUqlTIgYCUQABVpTe+gSBAStT/q9Treq0WFY+DACQoMfHs+/fnfT/PDP8DESABRJEEPA74BiQAdeRAgOAg2dXSnskbAtgOCKkkEogTkFR3Jz6SAEjsSFWqAuy8IQB4gCAAkiASUiIQJIGqq1RCkDmsL8WShCAHAoCkVBIJJkFI6sfPH68SEXue+/MBVW9EUurudV1dUrLnuX//+gRFAPniJJRU1aKkXleLJA57/Pn79+/PZz97Zo+TUF9IBJ49SUCpqrq97/uZPQYYzxgkA+QNJKu6ACcAKBWRoA6pRCAEQfEACFJVXd29Xq+Pa0kCgoPQUSVgPPd9f37en3vzXySROEQCSOxxDgCBqKpVRYIBgiAU2dXizNiJc8yMCUoqAUxihKS6CrETfMnYhsRSEbaTIAkokUlwkBSDBEA8MwDY69UdgADiGZOSqrp7NQ8kyEHqjUoCBASl1+u1irSf55kZIwAJ6m+9+g3+vO/nfjbVJZFM4DgBwa6urmqpBICsajj+/P3r9++9n+0Z2wkJVZeIwLM3AJKSqmqez/t59gxJwA5ABgFAgEQdAoEk1EGAkkgKTIIklESCIFi1jl7Xdb3WqjeVSPEbjsT27OfZm/9SRZEEQSIJgiNAEICU1CoSQA4kFFlVpD1JYMeegwAlkSASA6JUVc44IEHR3mMcUhFBEidBQAKJcYiU8CWZ2RuEqq+uADwAByCkquqDEgkiB0iCIAgCBElpXasJ2M9+nCAIEIQskaKquo748/PZM6OqripJZDJ2AtQfBJCE7C45ee5jvmwfAanqFol49gZIqnRw9uf97L0NEUgCgvgjSKQqvYEgJf4NQL4gIUVRpMiutfq61rXW6tVV3V0UCAoEAgQBkHnjvy+JpEgAQQCVShKRAwDfQCRx3khQKiJxCNrxzN7GwS9ibLCqpJJnxtSXzJ5xEko8ENtB3pwDAEmJEkkgM3sTpFQlgpREkQRIUSqVxBIlMEiQxEGqigSpo7uVxB47wcEgTkCQ1BeS9n0/TiBVVR+rO957JwYllcRkHBvsKiIYz9iJ957DJqXqlgB4702Qqi4RmH0/e+8ZggwQEDyAxB4PVOrqbpUo8BABJrGTGAdBokqlUld3X69rdVd/qyKCkAISJDGPOB7+i4oUD0l8E/VG4iAJMAgcJw4QHCRBIDw8s99MCgRAikHAKlGiZ2zqS7LHcUBJIBLbCPLm2AHIkkQSIBLbCUAdIHWUSsVDlFQlUcQ3BjmclETwTawqIQdBgEgce5wgAKGDCWaeZ08cVXWvta6PjxeyZwIECQ8AieNQJXjssR0kHo+3HYLVSwLgvTcCqruKYjzjt7HHdiDxLW8eg6Cqq6tKX/gmIHGcBAC/iaKqV3dXdVWpqlQqJZOIQuyMbVWJRML/torioaouHQQpin8IQBKP4yQIEgQECZIiZ57n2fuxSkQQUQQISRRIexxKogiPnUMqMoAd48jbjA1AKgkEQgQJnICURFJSqatKFA+pSweQIAQRJE4iCgT4JhWBgCXx8HxzEiSgKI5n9uwZO6Xuvtb6+PnzBzE2SHicAMQRJygxe4/HToDE9hwBUN0lAJ49ScheXZIYJIFzP88ze4IqEQSCwE4QsKrri6pEUSwiiHMgIEXiIFm9unmoJIrg4RmHEnzMtqu7SwXw31dJ4tHdVZIQhCAYgCJFAhlPnDhfQIkCCYJ7nmfP3pFIBlGJ4iEKCOIEJSmIvWeSQBIFEkEIEoEzhxNQIojEMYLwKFWpJFGURAEESalU3S2RAIIkThCoyCAAwVKJAHiAhGfv8UwOJAiBzOzxgQCq6uqu6/V6iQFIAQ6SIAcAqkrZe4/HjuPxzOwxQNUhEnCcBKqukgqJHdv3fT+zbXYVggAMkpCUVFUkpSrVIZJIggBBQggMAoKqVUWAb0gc2zNjS2QSx4GquteS+N93UW/VR5EKEgCBbfAQQc/4iOOEACURX+I5HIcg3qQSxS/IF1JdTDyz9xiBRPHAQZEEkr1nzzggCSKJAyASVaVSqSge+EKKkkrrWt0qMk7iBAAlMQeOUokEAQIg7O0Zj5MgTuLMzLYTgIfeqvq6LomHRBxx7CQgVNXC7D1+G3uOPTOgWHojCSAxWIeqEo/HM/d9P2OHVZU4IAECkkpVEg5RVV1NEEkQkkgAkHgTWNUlJAGQ2N57z+xxJDHBF4m11lXN/1kU1b16dZdIgAES59nbBEAgnhmP7TiURALMgSR4I5E3AFKJBEECcRJA3V1xZj97jEAsEkAASJQI5jn2ngEBHkAIECRFipIoUUASEFKVDl7Xa63uomPHCA9JAHIgkkiR+MYkzmxPDsfes+dwAlBiEKCkdb0uiSIlkUzGEycgWdUFj53E4zk8e8YRKL6JlGQbqFIdsWfPs/fzPNsIITJ2QFKUVKWqkpKAodRVCOMkkMTg4JtUpaqS4j9i7+d5ZsZQFZOQEgGoj+L/qqru63qtKglJAOSw9/M4zhfPeA7bUVWRAHGIIEGQABKEAEh8IQA7B9ndAuLZM0EgikDeTPAAs9+eGYAEBQIgDh4lqVQSSSQhyKqSSK7Vq6slO04AShRFEAgOgviSAAQJwEcCHzOzx2NPElJEEkjsda0qHSWJQmzHCRCySrA9Httjx/ERkACCLyQdB6ov8czsPXv2OABBCggI8E0qfQlAEHoDkAOUCiBAgBRVJYnE7JkkCIA5AlCqJgGpqBwEj/+9+nq9Pn58XAKSmUkCJ/Z+9h577LE9ntkzHmt1iSBFVXWJBBAcJAjEdhC8xeMgYFWJZDKTECAJJPHMJMFb7Jl5dsIvII4gIKju6uqWSAIIQalKJFAlqYp0EgTUG8VvYBLniw2CJYlBEGA8M/b4GM8YJIEAJNVHdZdKJRWRxDmcQCQm3vvedhIgAAGQsGM7zuE4UH1J5tjjOAj4poNCgoMU/xBFiQTxJaQkvuEgyJIIx/t+BpRECSHUq7qqJJVUku3Zz57w/1zruq7X66OR7P15f+69x8742c+eGecPj8fbw5IISL16XdcSkoBgEIDI30AiMxMbYIkHkgACCSKJPW92AiT2zJ5QUlWRgT0zIKRe1d1VOghSot4okASDBEmAQJS0enVVEXA8Y+dw/EZKFAWCtsdO7Ngz44A4SEnV1VUqlaq6WwrgOOOxgXj+sHMAoggwtsczdhAkCEGCjGc8HhMUq0qUcBBHALEofhF18ABAAIRIvAUgRUlFkZwZU1KVel3XtdbqIolvyfM8931/bvO/rGv1OpTZ9/3rr1+fz+cztmc/e8YTgACRw54ZiARQel3X9fF6EY5JIDEQIIdjhGRmxmOHFL8AfMMRxzOe2XscII49DlTVB+nMPkBI3dV1qFSiqkrfigIQj8dJEIAgdb1ea60WbM/ekzfH3nsCipJIInGcII7tGQcBQLJKXd0qlUqqq1cJQGzPbI/t2TNjj2dsJ1SVAGQ8nhkbQZA3IIc9HtuSqlZ3U0KCb4He+CaJEkUSJEgQAOMEAFkqvVVJQFhHq+vj588f19VVQQ4fsz8/789fv38/m/93lSQQeZ7Pz99//fXr876fGXsOiOIXkAQRJ+CbVNda67ouCQic2E6CxMc4AQEfs22SkooCCQJJ/C322I6TsUFIfVQV4xnPDAhSonhIVdVd3VXdXd3VFJl4PDMOYjvo7rWuVQIwexwQcfwW5G8I3nI4jpM4QQiKqqvX6tWlo0oigYxn7LE9nj/22wzVXQwwMw6ABNmzxwBJMPF4DonVvbpKRRAEgiQUJZEsFQ8AgapEMggcT6CqWquLICVVd6/r9dFFqq/r6ioRQeJjZt/P/fnr16/n4f8FJvB4P/fn78/fn7+f/WyPx0nU3eIBguKBg4BI1bpWr9USASSZsZ3E9ozHEXHEHgcUv4EAEjs+4jiOHcdjk1L16lYV4C8h+AVJCKmqu6tr9Vqru6skkUhmBsF4cwAAIABJREFUxvZ4ZiyquldJpO2QInMgscczezsBQMJxbCMAE4cgKal69VuJpAiSQPwWf5kvez/HnqG6i0FiAxRgz/Pc2wApKj5mbIlV1fVGEsQRhBLFo6oEIrFTq0sikMSeQFW11iUGYqler9fHsSqJqlslKkBsZ+zZe57fn5/P5n8ez7Fn7/t+9p7tOB47JGutJeIIQJGiCCQgpGtdXV0gQVGZ2ePxlxkHkigyB0jC4+BbEidBfMSJHR8BKXZXV0lAEASkKJEYOwCpUh29rrW6SipVVUtJZs+etySgvgGgqkokAWb2fvb9PEMcRMYzHgMSGUBHvekLDwDEtwQJ4iTztvd+nvt57JG6CzHANyF77/u+nwlAicnYDiDqW5UIECBIihIFgFUlAPZ4eq1VOoBkHIBUVwuE1NU/fvz4+HhdrZlBSaUSCcSe/G3vGfP/sMfjOfYex7HHToIqda8lgUACENSBJECk67q6qgAQkjB779ljJxlPoKMkMARBzDjBkWBm4iSO7cA5nAQkVV2lEoEAIFSlqhKTgCAIQqSquySKpKq7S9TsPYcdBDpIKgBKJfHbzH72fd+TBEeC+AgoEmQdqmoeAAESBBjkG78hc+zjuZ/HM6AkOOGbhMzs/Tx7HINk7CQAdVD84jggpaqSeACsKpGIj+puHQzyBh6lEsVSd71er2v1IsfDQyoyh50EAcAv4P+GOPEROyE4z54EVH+rIom8AawS8gbquq6lLiCAVNj72c/sCQLbAamqLh4gAHsSADn2fjyO4zhvQIKAb9UlkUQAkOhvVaJ4AHaQACIJAgnVq7urPXvGE/OokgggDnSQICXas/d9P8+MEwCSENshSErVVS0VAcRBKJJg4i8pVXW1OMee/Tz7efbsBEAOkBRFjD0znsMIEgQAKZVIAU72HkeqWr0kkiDYVaKIxFFJIoEkOETxkEpV1dXdVUUBjkGAFGBPjCBIJNZ1XV38X4g/nDfEewyI6qOqVSRtxzZZXYnjmPrx8bFUQgKoCs9zP8/sDRJxAlHV3aIIMPGMnW8e/22cOE4CQlUqVQkIQEhVLUqlKlWpSqU3SiAIgowTvgGcGY8noajqkgA6CQFKlER69vPc9/3sPQEoVTFfEEqskgoUASIIKEolYMYem5Kqu5hkz7Of576f59njIAhAUJQIf4nj/A08SiWRxJEYlEpVJZEgQUkUAdgmwSBxEurgN9XRXb3WKpHJeGbsBEAcJEgAVNX6+PGxmv8jCIIgkiAxbIeqqtVdKokkZsYzBrs6tmOrfv78saQKAqiU+/68n70HkoKAlKq7xQOBZ8aOEyNv9nhmtuPYTkhWdZdKShCCqtWL4Juqu9ZavfqtWiAAAvnieDwznrdIql4tBXAcIGKpJNEzz/78/HyevRNSqiKAOAEkihIBECQIkJKqixnP7BmAqu4Wwb2f57nv537uZ5wEBwFSJJw4BwLkGyiqVBIoUqKoN0qiSBAgSBBAnAOJx4kjVYnfqrqrV/daVxEYP/vZRxIAYZAEAXqt6+Pnj6v5nxI7dowg+EJWr+O6ilQSe+85DFQJYwPo/vnzx1UqgsQxvz9/3/ezh9VFkSKlqiIB5BjbCZCDgD179rOfvDkJSXV1VakAggBVVTwASOtaHx8/flxd1WutkojEoQR7zzyzZ3s/9+czVbWu6xLm8IRUqVSHwHh+//59P3vbCEECAYKAEA8ABAiQlKpaB2LP8+xtm7rWaomz7+d+nmc/ezsBEMBxEnzxgYMgcoAqHRSp6l7dXSXxGwggCJLYCYh8cQwE4BdVVa+j1+rupcw8z+f9ufcYlAQwiZMAvfq6Pl5d/E/x7BmPAQIEpKp1HWstBcl8sx2AYuJQWuvHjx9XdYEAYs/nfd/P3gMdlEiREokACDJ2AjAIDnv27CN/A8BSVVcVITAA30SJqrqu6+PHzx+v1b2u6+oi4T0jiZ79Nk68n2dvSb3WxTz7eAypjq5ukfR8fn4+e7YncWwnBkhRFCkwCJCAIFUiASTOHEmg7q4qefZ+9jcnCBLsGU8SSLTHAN+Q2KBUEklAta51rdXi3wTiSOA3BAzyDQi/SKyje3V1l1Tw7Gfv5xk70DcCicfpXr16VfF/ip+9Z2x+Q61e1+vjuqoKnmPPGAmCt+Co7mt9fLxWdwOxxzOzZ2aPHQf8AwSCgALGE4AgCMffxuM4B2KbZKm6GzwSxLZK3de1rrXW6/Xx8Xq9ro/r9VEiPffzUMT8QUnM4YAqwXvvz/tzh6jqtXpVMbGf/WzP+O3Z954ZsN66JJE5fMT5w8HBN/EQWSokGc/sZz923uz9PDNJWF32NvgtMzYklgqxqeu61rWKAKhvJEEASRzHAYgcCKCqUkkUSUkUSQTx2AERJACp1askep5n+pBY4v8Az9gJqBIpVndXt4ok4tixEeQNAaiqta7X9fHxurobsWf/MTO2x6KOInI4AUnYDggiwMzYcYIkju0ZJyH1ViIJBHHs6l7req1rXde6jrWu6/XxagHxzIiCPT6i6pIIeOw4nj2zn70dg6VaazUBez/PJM54Zh/2BIRqda+1qmY8z95jOwjiGCBFUaL4tyT27Jk9206MJHs/M45BMQcOkkjsUNSBONA6ugtJoLeSSAD5AwgBBgEpdnXrIEGQBAXGiRNQEr6R11olIJ5xVSkJyP+AHASkqpJUqioghwMQAPGWsZOA3Wu9Xq+P18fH6+rViWfu57mf59l7PPZEVdVVhbHHdkDSMSAATp494yAkgcTzPM8ApEQRBMUgTuKsdV3ruq51XddafVSv1+ujiSAMJAF2AqS6u6rEPfMce2Yc23MYwFpXS0ie5xkAmZltjxPHdupa1+v10b3389z3vccOCMSBqCIlUqRIIIk93nu2x05iAJk3j52YJIIEBBEEoookkEDdXVWC41AsVZEEbCdBIBIgDqqrq7tLFPGNIOmJCVKqEoiDXNdSDhxSYfY4/FcgX6jqetMBIPFMgoMECThGSPV1rde6rnX0ASTz3Pdz7LFzoFcfJYxnfCDIAYiI4/t5xgBJKbb3MSL1hiQA4rGd5HVc6/+nV3UzB/hNpAhSKlWXFHue5xkHCZCZvcc2qwpIvPdjAM44BwjmgLp79RKfZz/3c4+dA7ANUhKLJEhJSOLxnsMBciAJnGTssR0ciRMeIEiJJVGkSEqiQBAHQeLNdgKQFHGQkrq6pJIoEsQbEcw41FFdBKCjJGVmyO5e15JnEv4rgzgOVFWqKokCkcweJ+E3AQFIVV/rWt1df5BM9vM8+3k8MUBwXWutrsLMbI/txHHAI47v+54hIEq2Z2bb+sY4TjKesYG8jqtXr159fVuLFOwEonBUlcQvVbWqgXjvxyFBETP77QkQx/Z4EiB2AlKiSICqKknJ/XwZ53B8ABIlkQgpiUjm2OMJyCDfACb+kgSJnYgiRVJkqdQlEQABiBIBJkiQxE4AkKICkFKpu0RSbwGCNwLjCVWq7iZBqSUAnj2qta6jHQf8j4jjBID4paoEIpkZBwBFiRJJSXV0lY5S8RBFJJnZj42AZK11rWutxp69Z4+/jMMDSJ7n2WMHpDwex0FJIgm/zdhOcKzVq491rev1en28Xq/rIgkkAEnHoEgGIaS6rmtRjGcCkV1Fz97Pcz/Pfp5ntk0SCDy2S1U6qkpVJSQzn/f93PuJgcx4PAZLIkAApCiCHO+ZsQ0wPhKDIJAgCBwfMapKEgmCJXVXlUDYDlmSqpDE8REjAAkRh1RVUvEolbRn2wFVVYlDULXWqpJIEEBwSKpWlQgC/NcgCUAADAKoWgQTjwOQlEQKB6WqrmpK1EGQlEQSmT0OAJaqV19v3HueZ+/tYzwACRJ4nmfv2TaBeBwQkAQCieOZbSdBgO7Vx1rXdb1eHx+vjx+vlyTijYDHTpDYAci+XtfV3UIAHiox9t73/fz+/PV5P3ssFQnGSaqr9Y0S6dl7P8fsiZF4ZuJAKjFBElAUJdrj8dgIbE+cBAQJEAjiiRGwSiIBBKBYXVUS4ZlAVbV6MYgTx3ECgAcISiURJCVVSc9+xolqdRMIAtZaSyUlTniIEv8/IP8dQIAiASS2VSWBSByQKJUEwDMbVFWv1TooiSD1hcTMJCCqqqtqXa+Pl2bPfd/P44nHCUiQxH72s59nT94cSCQIBDmQOew4CbrX0eu6rtf1en18/Pjx46O6igAIYPae2Xtm7ADs63q9rtdrVUk4CAKJ576fX3/99dfn88yU3oog2IckIDEC730/ezx2YseOnQSSSnBiO5GoKiV2ZsaJHR85AJIiEzgOKEoikDiJQbAOifRMWNXrui7hCADHOUCKpEiJjENVqYrce4/jqmstkYxD9WqC8WynqqQqEAgSkAT4b6mSeIBEZhwA1FFVkiiRDBKPyTpUIoDESRBVSQAyM1B1r9e1qlR9rUXb+3n2dpLxERsB9p49R96cAAIR2I4DxI4dJwi6evWxVq/r4/Xx4+c/fv5QlZBQlIJ4nmePbUjq61hrdUkiwAMIPM/z/PrnP//6/XnvB4m6e/XqY4lAvGfGM/u5nx07SOzx2A4IqVoCYTshVd0NxN6HZ2InjoNDKsGJEwAiKSKIHTsIwENUElDV6/V6CQkAAkFAkPpGEvAYFAkgjiGpSiWKQEB1d6lkzxhBACS2Z2wjCf9rdXcRPATMjGcsVa/X67VKIpEERhKpqkggzszee2yrqhTHM1Zdr9fHj4+P0lsJSGb2OEDGc+yxk9ljJ0YAOwlCOBmPHQAxEiM4qqqrq6tK1+v18fMf//jHT6mYROpuVWGeZ08clarXtbpLEkVSFMUk9t7Pr3/+85+/f3/e956ta62Pjx+vV3cz9uxnP/t4nntPYgSYGY89EamqLklM4hCsa10E7Od+ntnbzpsDhKomHTsICBIgjmRsJI4DsgSCVFW/Xi/BAQiChySWpBIJJnsmBOIDRK1rlZCQBEGpq7tXIzOz954/9pvHMf8tIFIkRQGOcUjd/fF6LZUSe+KEoN6Qw5nZsx1blEQg8Ujd1+vHx0eVSASx4wQBGI8TJohzP8/ecSBqPB478ZGDx/bEAClSUlV3FYLqvj7+zb/5x8+1riJV6/W61roKjkOEBN8gkgCoN4pxZp7nue/P379///r8PbO1ruvjeInC8zz7mT1jz97PnsRvCYIkEKVSCUgQJAi0uikm930/s2ecwwkSqkoimS9GAlAlEgEBgpCqSpQoUqoiEgQASalaFHEktjN2cOQQUdVFJgBBlb5QIhL7eZ69n23DmRknSPjfJAhUeiMBkKKk6ut1dUnxzDgGKYpk3mzP4QQUJZFMQqrq+ni9uorw2zj4Y2JQJADfz/3scVBV43nzWxIcxJ4xSEqiKKlbCkKpXj9+/vj5ul6rqq7Xx4+Pj9fHkkiQOJI4JhAk0EESiWfvZx/P5+evz8+ZYVev67oWiTzH9kyO8XYQ2E4AIkEA8EBsB0ASsKtEwft+nr1nnCBvCKSqUlXg+EiQqtUlgiBUVf1HiQQQ5HBsE6jqFpPYY3ucA28JIlJvBMGjShLBBHHsuZ97P/tJCHhsAAn/qyRAdX1TFQ+AZHVXSciME4QkCBIBnNgzExClKpVEECDEXqu7S4zjPWPH+QP8Ij772bMnqKokHs84b449Y49BHfwiSiodpPp6va63tfr18fHzx4+fP17dJQLEkTcAOQAQRxKP93zZ9/08SOxxQEIUEr9N8IWsKpJI4mNm7z3j8VsAJAi7iiA8+4sNBECQQFJVVweOYyNgrbVaYBJovV6v648uETMee/ZzOGH1AvYxexIAJAEicUyCUlUfJYnf4Nmz93725/38P2zBUa5m25Yc5IgYY65/Z5ZtmoKQeECqsqWCBywhOoBEH5BoBrQF3qARPNAEumDfe09m7n/NEcFcO88tYYnvu/dMcIzHOcz/IjhKpUcdAvEgpSoVGQRHfsORxM54ILGqVJKIgyBrVXWXhCDzmx0EB0Pw2LNnPFGvJhDvY/wlYzsxwC/Qo6SiCgDVa61rPa7r9fHx8f3794/X6+rmgSNIgDzwSJzYnvEk8b7vPSThOAkA8REkBgmCZEki6Zm93/f7/vz8vPfs8dgBkYOSQCLH7HvbAUAQByXqSJzgQXavVSKBoF/f/+Hba/W6rmt1FeHxntn7fb9vj0ERvve9ZzsASIoUETgIIKl7rSWRDIIk+77vfe973/ceJwGQGU+ChP8OIIUHQZaKAAgQANXVVZIIZg7PDA4fccKSqqQihSQgqequKqkoxvG97z0JQBFIgjCesWPW63WJit/v+/2+7xkbB/NwAhLV1dWtApAYrOpe3Wv1uq71ur5/+/7t+z98f11VEr4EQQ4ABOyZeOyxQWLf93YdKok4CEpFEoRIAMGDwN735/vnj58/f/389b5n9owNEnESgF9EZu89k4SU+AXMww50UKzuLpEi8fr+b/7195dU3atLIpDs497HHHY8e++ZcUCAoKpKBGAbLFV1N0Ek8ey93/f73seMJxQBOHPgwf+OkhjnAZYKBw8QlLpKJRHMnr337AkQe2wEEFkqSRSRkBSrVFJJpBBkZs84BsEkDo4kCMBe10Uxvu/3+32/Z3sSHEHiJABKR6kEHoBKXdXVx7rWdX37+Pj4/v37t9d1LQGJDzwIUuQcHicAVJJnnKqSSiSIg18AEMQj+G32vt8/fvz4+ePHj8979tgOwMAJgoiSusQ9e/aMA4AUDyR2nJAlgVSpDpWk1/d/9a++v6pUOgDiSJy5933vvcfOzN737G2QFPhFPACQFCkyTmzP3Pc9nrFnfO8xQQRJHOMI/wepSnPYBkpCAkoUSEkllQQic++9730HiT1jAiAgVekgA1KkRLEkUSQIe8bjCYDESQiAIChVrxYZ3/u+3+97zx47CcB8AcJDpChREksq1aOr17rW6/X6+Pb4+PgoBDN7zN+kEr1n2wakqq4CDOgLSYD4/xEACeKZff/88fPHH3/87fO9Z+cAEOQLxKpa3ZyZve97Jg4pHojtHNQBQJSqu+u4vn3/h4+rq3ggCEBIYvb9vt/3ezsZ3/sxlEokkYSEKIkkgCQzHo/33PdtIEjs+94DIAgCEMHB/6mqxNn33rMdgrZDqVRVBCGKh+K9933v24mPOAkoSlWlgyBBgADqIYkAZvaewySBBAGSAJSqujuIM8fe82XPDIIHD4h/EkkAOqq7q0olqV4fr4+/KxFAEokiJVUxdg5Qv+FBEARBHASI/1QQeMYznv3+fP/6448/fn6+33sQAETiIIGk6l7N2XPv+952AhIE4CMEKFEApCpVl0rV67pWS+wqiQSD9FrN7Pv++fPXe/wYewaq7haV2XackARFAInHdjyz93YcgsDYDnIAfIgg/5cSmX2/7/veMwBmxqRUUiEB+Bs8s/d9b8d5wA5ISdVV1RJJ5GGoqnTgmNmzZ8aiQAI5HIQ6qtpJ7PjLzOwHApISHyL4kIgYoKReXRIJgq9vr4/X63pdr+vqUpVKpSqRkqoqQAAQ/Dt8Cf5EEMR/IkAw9/uex33fnz9+/Pj1+b5vJwGQ2A4Qkaruomdm7xknOIgjYwMgKRKEWKoHRZWqRGn1qhKJIHVdq+CZHz9+vrePxAfUq5tSZs947CAgiEec2GPP2AnAI0hiBwD1oAj+b8zMvt/v+32/ZwDMjAMEeTiAQBCxs2fPGAYP2AFAVXWva7VExOMHKRAASfiYGVsSJdIHAiAERSFM7BiBZ2YfQ1BfQJDgIVFKbIBkd4lgEOTj28frdV2rVVXd67o+rmutJYJSdfHAIwF4gGDwnyB+C/4/9q9fv+59vO/3+9fnz3vPjJOMM7NnAgIJIJEA8sBvfMSxE4AUARCUelUHB0l11VqriwQSqLolMp+/Pu9x/JiZSF0ihcSPcZzYAEkQmbntACAIhASZmQEpqatIEPw/4b23Pfvz16/3HTuHf8scThAECPIFSAgidkCqej2uJhnP7JltiqJIILDjOA4pUkRiI0icgCBFAgmSeGb27DEPlUSCQQCQLIlBQJBVLRKIk+ru9brW6u611vXx8e3jY60lHJJKJYEEnAMgJQEg/gXxW4AAAQI77z9+/LG3Pfve9/vzvbdnZs9hOzYAJk4oIjgIPpIAJJIYBwkSQABSJRHEIVVXd5fEA6R+o2ec2LOP2QElUSQCezyH4wQkSMAehCScAARVQhKAZB06yP8j3jOq8s8//vrr196bErz3Hsf7vu+9ZxwEEPUggsTxwVJd67qu1VcFsPe+975HpT6EmXEOEA+CABI4jo8EqEMkEI+9Z8Y2SOogQT8QsqpE8YuqVBRie2ajr4/X6+P1el2v18e37x8fa7VygGR3lUjCjsdhdRUPgDiI34IjCYLEe+9ff/nr37aJ2DP3fe+Zve/359vjQCKDBElAxjZROigfQZAgkiiACIIEwaEDgFTdlKhSSSoSpKRSlYDM/nx/7r0nICmJAOzZs/e2EfwdD4ny3jsUVV1FkTgoqddS8f8m44x9//HXv/zx877fPsazZ8b3MU4QHAR1kACSIIjq6O4qFR0740ekquqqzB7bCSUiCPKbjxxUqaokEogzc++xHUlVpSIAzx7PBKKOokSKKlUJQMYb6nWt1/Va61qv18fr1d1M4jio1Y8SkANUqUDwN4E4AtvjsU0g2ff9648//rjHceyZPeOZ2fe+HQcSEx9JeAAgRVJgviBIIkokyCQIcjg8QFJdxYeOrlKp1NVVKtqz9/t+z4wTHATxiDMzDogg4AERJDh7TyixShJJHJSq1yrx/ykhuT/fv/72l7/88eP9+b73fY/t2bP3+94GD5AIQEo8gIAkVCqpRALwOAcQoKRSl7L3jCdRFZHEjhPHdgJQ3V0q8UCSve89dlBVXd0lAnv2vfceE1CpJJEUVV0lkvZEVd1rXV3da73Wqiom8Izdq9f1enWTxEGQBCBRKkk4gsy+7/eeMY/se3/+/PnzvvfYscfxY8YTJyCZGc84oQ6KBwjiCBLkICk+kiBBbAcAIUqlAkNQUld3dfVDUry/3I6dBEkAgiQA2wEBJCApkAiS2WOQevDAg5TWWiX+X0zsz/fnrx8/fvz89X7f+957bM+M954NqkoHAoAgfuMXUVJR+Q0BEASipJIwM55xKBKBYztIAJAUq1R8SITtmb2dAJK6r2uVSnvv+77fe0iQoEhQVKlKIpUEquqHKFWtLh4gEAfdva7Xx+qSkGQ8dhL1sbo6SGLf75+/Pu8ZSy3a3u/3533fe8Ye2zmAIB7HABJ7ZjvUUSJBUCRBIImT4CBBBkECBAehPzEHSamqJVEqiWTGM04cBAGCLwQIIEFAEAiABDnGj4ASJZFEEufg6iXyf0fseb/fn79+ff56v9/3nrHjOIlnG6wvIkCCzAMAQYJESWLs4CBIHJQokfB4ZuwAAZDDAEJSfyIOqcSxZ/Z2Aoiqdb3WqtUzs+/P972BgABIUNS/AEBVVauKh6pKCB4EybXW9Xq9rtXVcPx+f9732Fpr9VFx4vH9/vz8tT2hJDqZufe+956xJw6CLxmPEyBBZsahKJUIEBQfQL4gCUCC+I0gCYB6kMxBUlIVEXwhiDgJcRAgCIBBAiB4EAQDIE5ie2acgJQoikc8njisLpH/aw7v+32/3/fn+/35NhAcpJiZAUuqKon6Eh9xEgAEpBJthwClEgnqIIjYntnjGRvEv6BIPSAmAbuKiWffe+cQ2X1d64HA+/Pzve0BAfA3kZJKRVHUg5KoqpLi+KC6+/X6eL1e17EW4/n5448fv/YerF4qiZ6x4/HM2HEOezy2ZzzjOAAIBLbHYwfEIzEAkiAJAnyAyAFSdgI+wEMURcchKD4AiBIlZTwzdvgFBAF+EQkgPnIQJEEwOIIkM3vfIUAdpEQxcwShqgj+z46d2Xv27H2/7zelokQd3vd2CKpUKlV1FYLMYccBQkpAAhJSVZEUKZBA/BjPeBwgIIgAkkpdQgDbQFUJgPfhOATV67iui2B8v/e2JwgCAgEgsqQqqSSVRIogVVXKYYfqXq/j+hM8+9fPP37+2ntDpYNM4tl7Zmwn8WOOxEkMgCCIJPbssY0ABAEQIED8XRB84QEydqiSSIqSAMLjUAdFAAECgPCXODxwJI4oqVoEEDtxApJ45IBIIPbed0BQR+koxTNjG6AA/o8ej+04ycy9d621qqtK1Lzf73vsUKWuPqpVwtz33jPjJAABPkSpqkQKIEAijuP4GMcJCCBBV/VRmPGMA0kslWfP2M4hda/rdb1EIp7xETtOgrFBsaQ6VFUtUUoCVpUAIgjV1dex1roemb3fn78+33tvAxAlkcz7/XnfsydIbI9nj4MAIKtaBJLx7CMIHiRBkcQRBAmcseOwukoBHIO1uihKJcbJjKHqKklJ7D3jAwkCAgRzjPeMStVrlQDkgQAEmcAej6okMJ49BkCpVK2qLmRm9t5OEPC/t2OPPXHsJOvj41UlMsnc9z12AoBdq3t1SYK9PXacGAkCgFUqlQTHCMCSkDiHY2fiJHiwurq6BNt73xNK1d3wIw5JqarXtS6VmNjjYzyesWOzHqqijioVRVFSdYkkHCcA11r9KIqJPXv27NnGwQNA9t4z47GdBICDOJGqpBI8M56xYyMBKfHIgyJ8xI7HM+OwWkUyCLVWFwE+AMKJqrtFajwezziO4wQAKcKxY4cqgiAISiKTIAScL3gQTDzjONQXSiUC8d73RgDwn534GB8BqOvbt1eLwNizZ+w8zKruXlUikdgJkMR5IFAdXWL2HidASUwCBHn4yAGS9ZAKSe793qZUqxfjxAn0p+5eVSUGjsczntkzTqLqrpJEkFKpJFV3VVcXoYxnbKO6q0qk4yAIksyMgyAA8hjbcWbGPEQRSFSrSmTu+54ZOwSQkFIR5Hg7EOHxn2b23oFKBwmq+upC8CApAaha3QIws8ePJLaTIJAIxwkCisjYIVndReRAYhsh6CRT6H9wAAAgAElEQVQ4cnhsUhRBiqRIzL0nBMl/l9gGEo8TEOu6VpWAJI6NBEgCfSkCSWyEIpMAIEiwVN29KnvPw3YCkBQJMHa+IABJPQjAMwYpdhUydhJIRRw6VneVCNixHdtJAKmKAhGElKq6q3ut7lUVx7PHAVldBSRAkOBI4GRsj+08PE4IeLZJVfVqkRQlEMme7SMAQRAAgSSeGTsHghyOZ2YnPABQUh8VAAFIlUSpqoQkM2MnAILYsXMAiQOABIEcRqCSSBBJ7BmHCAIgIUTFNg5SJAAdRAypSP5XSBwASRyArO6uEpnEOUCAOAKCZA4EYFUxAcDfJPUjHu9j9kz4EEkAzgEkSACQokAcISVKVDKOk5AEEoBkHyWR+ZNzgNRBEgkAUbV6rXWtoyqJHwEhkYmTIAgA4ovt8ZEAticJMHsPparrWk0KQBI444kdg1+AHHZmPD5CCQwcxzPjAAQCqR5SDhCsqqYOinAyHicASCDJeGaQBAkAAgiCBEEoPsAg8YyDBEdiUCIREARBIohUEo8qkfzPiSBAQAA8qqpVJY7t2ABJifARPEJSVd3NIABIkNRRKgHJ7Htm7JAEAwRIHAAMgiAgQQKJpKrqEoHEseM4zgGQqEOiCAJJ/EBAVpVKwpdIvdb1uq5rrWqKBJI4tnPAsZOAh3ggMYKARDyex773BlW9rlUkYntiJ47tCUiRIjx+jCdOwuoWkdgee5IgIKkqiSJmNklVrdWkQHyJY8cOVAIR3/e98YX5DTkAkiCIgyBhO06CILETAlKpqiTHOaiq0oOP/5IkiCMJAkCqokTYzgFSpIgcIBAkpKQqEQgAAiSrSiURiWfPOAhEkSBx2EkQxHEOgCCC6qq1VheQZPxbHOcAIJWKh8jYnvEYAVVVfYAEAaq717VWr+rqKkmEPQ87zsw4pFS/EQSCAER8jI8Zk1R1F2zPeB4ejz0OS6UqEUlmPDP2OKkqMoiPJMgBAmJRJDEzJKVe3aKI35LYGSeiSMBz7w0EIJDDcRIEBHEQBEQCMYLAjhMjJFSq7tVNEnFAStVdBEj+E1USiHh8xJRIMLATAhQlHDxEMnYAEDzwd4S6u0pkPOOxQ5ESSyWRxPhI7LHHdgCCZHWv9bquQuLMeGYcJGM7TlQqiofomT17ZghIVbWutURSpKSq6uo6uld3VyF7Zu/ZHs/svSlV91q9VpckIEEQxDGAAAFFUqTf933vmdn73vveHhta1d2rSmTGs2fPnhmTBILEDkHkAYSgeMA2SKmqWyUSR5CHxzYfQDyexCABJPGRBMERgBAokngQGI+TAPptreta11qynQDsdTUO8r+pri6SiWf2np0gAAMn/LskqFLX6k78Wx4ACOJgdZVEIc4BkJRKXV0FIo6/7HsfYwMExerqdTRFe8YzYxCJf1NJoiiK8cz4IL6oenUdFCmVfitVV5dKRJzxOIg9e0LoqOrutV5Xd6lAPEiKJMADAuf9fn/++vX5+fl+vz8/P/d2sK7rta5rdamy956957CT+IgdEwABgkDgAAjikGJVdVFMbAOEJMKeBCAE2GPHJMUDfsRxfgNBEMTBA3ASB+yuXmtd1+vjdWjPOAkokTj477tXN0nE3vt+32MbARCEBAkSCNjd67quRcd7z57D+LuEqlJJIkEQIAhVVXdXIYmPiec+9r0nAEhK1dVrdVcpmS8GkPiIQx3Ul2TsICAYe6Dq6u4Sj5IokpJYKh3EEScgk5lJAIJUVa2Pj2+v1+taIkU9qgiQBAlg3u/3jz/+9sePn5+/Pn/+/HnvhNfHx8frel2rq3Lf954942PsPeOxEwQkRUp0xk6cg6RUBwDPHkdSrxYzdhJCgOOJDalUovwv4jgIjuALKRIEPAbX6uv18fr4+Pj28fH60MzYcRBA4vHfdncVQSSZed/3jBMAIZDYAMlS9bWu9UCQfe9jJiDjI06kenR1NUEkAbu6JDL27L3HiT0ze48NgADq6HWt7irE4xnPHo/HAUgQVKmkEoKQFCXFewKS3atwUFJVSQS/SAKDACEoxM4BgKDEXtf1+vb920d3VVeVDgAhQQKY+/3+42//8a9//fnz16+fv37uAXR9fHy8rmtd1cr7/TmHHXtmz9jjfAEkVXclsWc8cRKSUsnjOcDuXr2KsZ0YIGLHHkNV1VXK2I7tOAGRL0YAECRFxXuH1fXx7fj+D98/ruuqAEESAFrrquJ/3dVVBJBkvPf2OAdAArEDgLV6revqLglBZu9tjyExscdxSFV19VpXk0jsoKooMLHnfd8z+c12cASBqKrVq7uLRDKz59732AFAIqHUVZJAQCqVSognB3QAILurq0vEbySAHAhAAgEoUioqAVX1en3/9nGtXqtXiSSC8JFg7vv+21//w1/+8uPnz1+/Pn+NKV0fH68+qqsy+zHbHnvGY+cBgKTUvRqJPXtP7AQEJY63D6i7uroIBI4dx/kCsKRSCTkcOzZA5E/4IlAl2gar6vXx7ePj27ePj3VdrSoSAKla11XFf6zqLhx+xLET24FEEkicVHeva5XiHBhPAkClApI4DoBSd1/X1QScGYciHnbmft+z7ZAiCOLIAYKq6uruKgmz977vPcYjsA1Vd4kiSNZvJAB7JjFAqq/X1dVFEXScL46PBAAhruNaV9WebQR9vV7Xda11va4SgiCRRMSZe99/++t/+I9/+fHzx6/3+zPpqvW6LhKkqijyvu/3e+89eThBQD1IVfdCYu89M3ZAkCDsSQBQEvWFtD17byegVAQIPiQgjo8gCAIEDwICq0qUVMe61tVrXet6va51rSpRVdXVVeI/q0qVxH8XJ0EISQQSO6muPopBEGRmHBCskkQyD4csVa+1SCYzDsAgiRPvGdsJQOIgCIIgKVV3dZdEZPa97/c94wQEEYDUg6Kkri6AOOKZIUiKVau7q0skkb9DkCCOAUnr9bqutYr7vp2kaq3VvxFxQkBVpO193/fPn3/78ePnz5+fswesruouEOBD0njP3rPtHAhIqqrEAJREIJmxHQc5EMcO+BABkBIFIF8QHkAOxySBILEDgOCBLwFAUBQpda9evZoEudZ1vT4+VqtUh6ok/ntJpMceezx2HEDUA0lsJ1VdB0UQQGb2GAir1F1VCOKZgGRVtyTGMwGS2HF+Q5DfAB5SSSxVP6qBZPa+j/e9ZwxJpAAElKg6urvGdpB4ZqqrJJUoVVeJAoMECUCQVOwJVFofr2t1k/t+O4hUhyQKyXhAsqpI2/f9ft/v4/PXrzuIVF08QAIIIApAMmOPkxDU0d3C2AFAEbATxInHHk9iUBSPHCD1KJUII0ES27NnIwhxJAFJsSSAyIEACECwal3X6lUz91hVr2/fvl1XVUuiHvxnEIBnxnaMIACpB8UAsROpVFUSSACZRxJV97qu1SAye8YJKIkEgQAU4zg+YidAfASAHhRLrL7WWt1FJHO/j/vee2xI4hEkIFFHHxUnCIAAVSUGAMmqLpJgEAQgeEjMAZJVXSWRSahS9+oWycSx4zgOktje7/d93/u+3+97i6xaqwQwQJAAEkEEtsfjBAApVRWZBCREAT4SJ/Y84oBVEsAAAUJKVdVS4t9yOAkCPgDkAAiSQpAECIgjVK9eq2vuz3uDXB/fvq3VUmYcHPy3DhLP2HFCEASlkkQRYB4UVSoJJEHMw456rdf1uppA9t7jcQDiwUNUxYk9Ho8TIvYYIaWSSJZUva61uptI5v35/rzve884kEgRyEGguqp7VSM4SJCskhInBKq7yAAIAB4gRDFAAkQkRYpdVatXr+4CkRnbSDyzZ89MnLnve/a99547krrXKuKIkQMCiSOJx+MkIEQdIACRFBmP7TiOZ/YeJFS1hCPIAUpV1QXYnrGDgCCDkKIEwuNJDFBkgAQJQCAgq6u6ud+/3neA+vh4rSryvt/bdsx/Gucw8gUIAUoqPQgCQShSpERSKs3smfHU9brWdXXF9szY+RMCSBRFJM7smfEAJOIYBPWgKKmqu7qrScT35/t93/dsO5AoEkgCEt3V3atKIiGSACkRCB7dXURiAJREIgHyxUl4SOq+Xq+1riUCcDKeSUB4z9z73k6Qsffce9sTqR4igMR5AMGfGP8WgIdIkBAPIDPjJD5m9gxJqVokaMdGgJJKIhLHSUBSKgGgDgKYPdueWCRA5HAQUI8Sgdzvz/cGUNe1JCT3+96T2PxHxwiAJEicgAAlqiQSAAFIIhhRUlXLe++x3a+PV3dJ9tiOg8COnQCiHkgyc+89Y4AEkpCQKEpkqUp1SAJg7/vee8/2OKQIEo6Dknr1WqtX16NLAsADCIKkDmTsJCyVcOSwx+MZUo9eH6+P17ouYjwz2w4AEhnP7BnHSZyZvcdxKEqicOSBI0gQfLFjxwAIEAABggSQeGzHv8URRVEkCGd8BBQlkgi+kFR1FwlRRSaZ+94z44AggMBxEEilksQge997QLKqgMT73tuOzX8MgBBADh84CJIlMQ5BsUoKAlapu+V9zw6yvn18FAF4nOBIYHvsBBKrqpF47vt9jycggQAUKZEi2fVFyuHYM+M/JQIRxJ5gdV3rutZ1rF7rer2qQJAAcoyHEuK9xzZVJZI4Mvu4741SSep+fbxe12sxs+f9fo+kEol8QewZ/za2EwAEcQTBIZIJkjjInxCQRL4geASJE88eTwxKIsUcOBJ79owRUpRYEvilevUiRUmE7f1+v2ds4xEEOQBIVSUVScROCCJIgniOeGL+U4IACRLHBwBKVSUV7EmM8CF2X9fqbs3sbQB1XRcRxzEAJuOZ2eMErCp1FYF473t7BiSBJACkLomUqkrVUpKZvcdjJ7H3OEBEIZ5wPa5rHX2t/vj+D//wWhCDxM7M3juHPTNJcJAiKcEez947AEGornWttZqxvfdEahLJ7BmCRBAf8TgJ8kAAigRBiAQIZ+wcCILgIOIkAAKEOJJ4ZuwAIIkAQYIgiR07AcFDJIEAKnWttXhIQsZzv+977BiPAMFBUgdBUBRAUCQce/ZMDhzhv3V+cw7bCcju1UtVmd/shNV9vb59+1jVmtljEKoSMM4BkJ593HsnELvrQTLxHDYhIXEOVa+SSB1VXUqy9/veYxvAzN7jJFUleMJ1rXVda3XX6tXf//V/9m++vUg59th73/d7Zjx2DCQeg0dXkTk8fiQhuqqrCkiQhKoCYt/3e5MSScCOj4CMjxiQqvgnELRn7CR4BAiAHPgSECRyjJ0EAfL/MgU3u7ZuXXJWn4g+5lr7nEzDVSBRokYBLEEVIX4kEBI2Eq5QcsUFbhzsNPntNUeP4F17n5TdWpu20F+SAsKSkAQlCT5nznkdSVhu9+79ujcpBcpvsmxZkFS2xvbYJsl9f70vkmwj/fMmDaWFNomQz+sxnu4jTZMwcz4+//zjj9eMd+/dFiTRNJQ2f9ndgjQzlgUlTUIr26KlYJ8ZAZI8r/Ny2n2/3zffmuxuC1iiSXmd8/H5+flxzpwZf/7593/3+ZLcRx5772abUprHbqiQx7YsCwFNkyKQEAVJWFi2cnfTNk0rlCaVRJrdu8HyQ7bMI9mkSQGBACEhKAj6F741TTbh0TSlTTYFacZjW5Q2xePxeAq0NEkflFJKaYUtHv0Wqsecc+bBbu69u34AQv91vvFbm0bynNfHeXnM7rZAW2bm4+PHj89je3dvkhZKeVgk2WSz2QCSLQH9J1DJFkKWv4m0CM/rdZzk3vfd7SNNk4KANkk5Zz4+Pz8/zpmx9Pr88ePjSAbaNNndlocgj03Kww/528iWaJtk++CbrAf2mWn+yaYSTVMhmux930XyQ7IEtE3zaClCCOSHAAHNo4Dsks0+JDXfaPNoheYXi1IKtmWJpk3TtMWyhNSWppLHtM1u0oKkeb3OyzPd3bub2uNS0H+VbAqitE3rmTmvc47HTSLZlj1z5pyZAfpIk6YF2TPnjMS+v76+3vcGWXxL0tJS2rQFPDOv12tMu7tXyDNntHfv+31T/QKl39LmUc055/V6nXNmAL9erzPjkUzzuBv0F1Db8NA3KEKamTMzYu/dpi3fJMuesUmCpDZN0yQt0N27j8hjWdCH+KXZbJNCBWJmbMtQkrQgyaJJkxTa3U1oC6StJH+TCnrYg1o2jz6ywdhzxqVNimYsaDabbJA95/Uay9n33d3UY9OC/tumLahtkqae3yyJtPZ5vM5rzngkNf1GS1uKZJ/zGo/3/vz59d4bJMhvIOhvaWDOOR+fH2Pa+77vtsJWd/fuJmDZowfdRzYplT3nzJkZT1qNZ86csa02zWZl2ZYsGfEQ6EHpN58557xGSTbfmiJp7PHYbWqPLKBNmzZN3ve9u4k9BtokSKLtZndL+UXF8jdBm6YFJEs80rRJNpu2EeqDgiTbkvybRNu7dxvaNLLsOeOmeSCPETTbbIIfM2NEs5tvstWG6r8D8a3Z3TzksWWppS0+r4+Pzx+fHzO2EUn6AIlHKchz5tH9+rq7SVH33rtN5TFJAzQp53VeH5+vM6L79fNrd5M+sklLAc14PFbe7/femyIEmjljy9q0kj2vczwj+kgrS2N7ZMnWA2RJ0GxWnjmvcyyp++1uJHtm7LHUdnzGZ2wEtNl779fX++42ttU22RTb2b337kaSJUFpqbBEaZu2Acv2SCTdvdm2aQKiUNpI1sycmWNborTv+75Jy8Oe8UO7m03AljBNH6lGRgIKFU0bHnlU/708lsdk797dK8tQSpE9r9fHx8frvAYQlDYVSLZESTbxjMfT3LuBPnbv+24be6xstmkLfn08Xq8xdL/e73vvbpqmD6Cg8Xhm1Pf7vfe95ZuQLMtSUpA853U8Y1FaKkszZ8a2LOufIJK7t0g+Z0YSLUkby54ZWxItssfnzHgMZO/X+9umFFGgaYOsdLPZREKyoOlD2KJN01BAlvVom7s36W8USoFSQLZ8zpkzNm3v+31301r2HIu2e3eToBkj0TRpgngIWpAFbSltSvU/eM7MOcfZe+/7XhBtWmBer4+Pz4+PD1tkk0KhSJZnRrR733c1tmy6CRLJ7n7du03tkbJ3synyeX1+fr7Oy6LZ97137910+wAKhXn4WL33ve+7oXwrIFlqC0hzzpmHxC+y7HPOjG1Jlq1viO697ySVZ0YPBAj8mBlLogQk+8yZ1zmo2ffX1/u+b0LpAwlKC+ovoSBkQdOmkm3SpmmFAPGtj3t305ZS2tLyrd9AOue8zutltX3f972bdMZzxmR3794kxTOWoNmkSVvKI63GlgptKVD9z9LMnHPcdPd93+k36Nivj4+Pz8dHk733pnpYtjU+56jNfX+9F8uW2zQ87n3f+743aUB0N2krkM/H6/U6xzTZvUuhJU3StE2rc86Mpdx7dzeB0gLCtpxShPyYc8Z6AJ6xLcvyQ/5Ntkz37jckGanfkJgz4/FD6gMhjT3njHgkue/31/veuwXZI/VbWhCShSTbQtAEnRkhtaES3Xt3k4K4j91N+K1Jf0sB6cx5jNVy9+5uwvyiJvtI2kq2KE3TCsqjtEmwRwK1gAD9r0XSeESbvfemLZI1M6/Pj88/fvz54zN3319fXxtJ8/DYc84oyX3fG58ZWSVp0rx/fn293/fezeaxSaoHQnPOmbHIo608gibZpI+0nDljmewjbVEp6GFZagv6xfObjJBlCliWH5Lt+cXaZPduW5BEWx7yt7E9FmkByeNv4pfmvr/u+/3eSrJHaulDkiXrmz22JUE9r9cZW1BAzfv99fXz59c7be/du3cTyaA2j6ZpWkDnnBnbULK72ZRzZmy1m02aPoRU+g2EBKjQbPBYQvQhBPoXN5tQ2nSzWSTNOWcsvz4/f/zd3/0nf/dHN19/+8d/fF/KvM4Z22NPdzct/vjx42WJdnP3vv/2t7/9/Pn1eN/3425aZmwh2WMhmlSyZo7JfkuRoEWWLNMk5WFJIHssAU0rWR6PpZnXawYpm01a/EAIpDnndV6v49Lc3SRF/iZomwbb42OTFLDPHEHb9Jfsbh6S+YtkeTxWW0Cec0bC55yPjx8/Po5txKPJ3fvv/+H//bf//m/v93vvTdLKMwiaTdrmW4FzzlhChWQ3TXXOsa22aZpsNqVIiL9ICIHayrYEzW7LQ//yfe/dQqHp7lbSzJlj++PHH3/8/d//p3//J9n7j//4j1/vtJ4ZSSAExZ7X68cff76gu/fb+/23x8+vx/v9vo+kRZYK2DOSaVNkzYxJNg+QaFJAtqFtWpDssWfGEuUhjS1ZQjqvlw3s3k1bxrYQFJ3zOufMqDTJJinzG2qaprJsSU2KHrahDyh9pGlBY0tIsmyPLJGUOfN6fbzGwJxzXp+fr2MJaPZxd//9v/t//u0//O3r6+vubltkT4E2YJlHoZo5FpSm6Wazwb9BS9LNbiuQEC1NWh4VSLZnIMnupjz0v78fV5JltffeUCx7zpzPP/7uz3/2z/6Tv/+T9v7tb//49d4ESU2zTXzO+fj8/OPHH3/+8cq976+/ff28j58///bz59f76/2+N9ukTb8lqc+cmSOatmBbom0ooGR3S/HYgu7dVJrzer1mxlKLx55zRFtAc46VxyYtyGNbgsDr9TqSIE1Lk7av822ktlCEIG3SWII+KMgShbYUPOfMjMczfog+kurHj88fP358HrcVss85Fmqz9/31fu/ef/yHf/cP/9/Pr6/33U1a9GhahOf18TqekYCxBW02myb33k2pHxKQdJOA9aBtsvdu0rSFMzPndZr3vbsbBOhf3Pe921KhsgkIf5vx559//vn3f/f3f/5Buz9//ny/synQkjbVzHx8/vHjxx9//HHe7/fXz59fX7vZr/fX18/319e9e/NLE6BJi+RzjiXaNOLRpoAwkDZNQaW/yfPNY9mSkDVzzhjUFtlSEhAgyR7LsrBfH68jtb27ySaltfDYsgRthRClefQbyH/Ro4Bs2WPL9oxFSVJ85vXjx+fHxzkjoxawRJq77/fXz6+fX3vv19fPn++7u/feTYNkUZDl8/r4OGeOjbAMbbO7ye59f73v7tozliBJH8iSgDS799601cP2SKLZLKV80/9x793Ng1IKsmVZtvXx559/98eff/z4Qbvv99e9m7SlLX1oznx8/vHj88fnp79+/vx6vLfN+973++v9vrubbPOoBE3TljlnLNNsSkuSApJlhPJb0xYhzxlbsiTbMmjmdWZkpwEk0li2hDQeW/Z45vXxcaDJvXt3t6UkqR4em7SgX5rN3k0k5pzj8fgbYHkkIVn22OSxW70+Pz9/fP44R5JlpWlLd+9+fX39/Pn18+f7fe8maWnvvbstyPrmx3m9Xucx1jdom+y37Pv99fV+37dmxhY0KUW/QJtk795S/E1Sm6YPGRWK/tXeezffNsX2mTNqi8THH3/++ePz4+NFmru7SUNpdhvEfHx8/Pj8/HzZ6tfPn+/HTTab3Xvf9yabTUqFLWi+VbKERIokyCZpkCzLTts8SpGQx+Ox9R/YnrEtQZEsoOLRoDPHlr/N67wGmqZ/SbKbtLVmXFqEZImmu0kleTz+ZcaUbxXC4/GM2d0k1bzOx+ePzzOIZlP6SPbefb/f99u+700pCNJfgMrj8fg/kC1Z7e5ms9ls9u7dXSTLEm1KQaD+QkspiEeTBQkEpS1Q/V/Zu7t3v5WZc87r0E2B8+PHj4+P1zmCNs0vTZMtll8fnx8fr9dMN/v19XUfm2xKk3vvbjZpQLJs2m6SRQg9QH6QZB9FyLZKm0cBPezxzFgP9ECWbdkyCFkPoCVNOWdGli37nGPaUh6iTbK7aSuNTSkgeSRok1QIPSzPw4iStiDPjG01e9uCPfP6ODOC3LuFtsneu/fuJqS7SXkIgehvmYfHFghJtseSu/fuJtmkSZO2PPSABiiPlhYKCIRKm91bywhoKVD0r5tsvr6+3ptFM36dc2hTis/rnNd5veaByN5fFmSfM+d1XpLo/W3v3U1TS/Teu9ltC/qFPvINCfkhezwSbd73JhQkWtJNi9DDnscZSUhIgGTZsvULRkB/Y8bWw9+OTR98k6DNowXZVksf0hk/RNqmbagke86MLGjagmcsaDcrQAgkWTbZXaClyd7dTWpL0ActIIluNg/Lj5GgenhmbDl737vZJH1QLAEVvxQEtEXi0W9IKqRJKok2RQhB9W/azb6/vt5JqvE8TJO2eGZer4+Pj3Neps299/24ku0zMx63Te7ebdok/WaL3nuzSSn6BZom2YSih8fjmbElcu87m4RHH0laJECyZ17nWEIIWvB4vvFLhSwJaIofQr94LFHa8lAppWBZttQ0baTxSKZJmvSbLHs8FhJQHuOR2nyTrAdsUh59IB5q06QttiXRzaPUEt1HdgFJlqB6eM6M7Wbv5remAdmWxF/Ko7SyELRJkRC/FZRuqrEeVP93u5v3+94kyB5ZajYptWc+Pn/8+Dyv4+zufbx/fl3Jj7Eoye4mG3sQUEBSu3c3DSD0ANJkd/MoQvY8zjws7mPvTb/RJmkl9SF55uP1siUeTSqf1znnddomTTWesU3T2voGBdt6lLSltEWSZ854JG02aWAsoJvdpC1g2SNZBfSw0NhSvjWyx7b6fr93k8iW0G/8IsmW0O69N00tt5u9jz5AAoSw55yZMaSb5rHJbmt7Zix+6zce1oOWNAhkyZZpm2w6c2wh9G+au3vvBskeD2323l3onHM+P//4/DFztLmbTe69m6TIkmD37k22lgSlBctSWyQko0f3ce/eTdIGSZ7X6zVzbInce/fuJmkRAtFC00qyz5zxyEKUSjPj8ZTSFs2MEL/MHEmUNLsbEEj8Itkej8cS0DSPYkmFNC2Utnr4obYUKpBlkaQtsj22lUeTIsimIPxPJEvWvr++7raZsdpk791Niyz6LWCPZ8ay+NYm2Q2Wx3ZpKZRSHhJQiiQeRWCJNE3K6+Pj9TrHo3+d3XuzQeMznslm7727wJzX+fz88Wa13YMAACAASURBVPkxtvIobZJ937vRA9h9v2+SSvxSKj+E8PgXPfK+7/fX+32T9AGS5/XxOjMWNPfe3WwelSzZ6re0SLLnF0tCSPJDMlBAGg+06DFnrNIk+/X181a/8fB8O2NZopS2mxSJX1oqaBM9/FDb9AFCMk1SgSz/Iok+oL33bgue3ywkWfv++XW36YylkmR3k9YWeTQpSB7POccji6abDbL1oA8e4lFoaQuMh36jWKa0IP14fHy8zuhfbTZJi/yQ3NL0AXg857zO0cOWbTnZve+bWIL2vr/eN2kLkqzfDGmwNHNmZHHvfr2/3nfTlkdBM+MZS7T7LZtCBUji0TaVZM/jnJEqJHnOjGXxEJJs801IQjS/7L3vlQclaas5H68zYz0QUNq04RdRaJptWtkeWYKWgmQh2mwqhECA5xxLQJvspglYliWV8kju3TSVhCSgpE2hTVuJ5m5Acz4+z2vGzS9FEgUqmBlJ0Da7dwF5xs0mLTrfZs7j448//vwxZ2z9b9mkgGxLLQgsCVrJmjljIc2cOedMs7v3JkCT3Pt1b9qCZHssCWh2t8Ccc8Yj3d33++u+k5ZHW5Dt8UOQZrObPqBUfCtUku35TaqQNXPOjG2BEEgWDwkJ2uzNL5vKhmxaOOfjHFtGsh4IWloopZQ2u2kq26NHKQVkSdAmqSQoLdV5vcYSyW6TfkM8Wtoiq9lHNgLJsoTob2mLLPbeTavz8fF6nRn6SB/0AUKasS2B2uxNAdlqNk3F63U+Pn/58eOPP/78GMnS/5hNIstzXrB3JXnmWNmANHNmJDQz5/XxetFk92422b13v7XF8nhsS2p29967bWfOzBmze39J0wJtkazxeB4Csnv3G20ppa3lb+MZf5OQLHu+nTmSEOVbkZAlpNz73qQRCAGlgDzjQbJsz3hsCwq03QToI9lEko1E+g0kIUSbIgnoIzrnZYve9/s2rWTRsnsTJJ3Xae573/eukGRbsqDQ35BEHpvFM+fMGduiSXa3BfQA5G8zEtC06YPSFs7M559//vHnn3/+8eePz8+XhaT/Jd9kyWN675XlOWPtpsJzXq/jx3jON7XZe+9uch/ZbNog2R6PLWXv3ve9oYzPjG327t1HSyltWlmeGc+ZMdX+ki1S2ySb+Nt4fvHYQiBkz+McBAKB+CbZEuq9d5MWQVsqWZLtsdEvfow14tFHHjxKm00KCPEXIYlvfUi2ZGiDbESbu7dJQeKx925a6fV6kd29d7cUy5Zt2rRJaSVLfdx7K/t88wPabraUX0qxZzxjIdq06YNC0Xhen5+fP3788cePj4/XsSTrXyZNhRA077vYnhlpdyv5vD4/PubM8XjGNrTve9832b33Jps0rcAez9ja+1sleTyWxN1vCUItzYOx55czouwjKR0P2dy999qy53HmnHmNBX2Ax/OAIsl6UJBtCXX3ZttC212wZzxjewwIhGxZEo+maVN+Kdk8SqHYlqxvtJQW2fNNTZr0QfrYPEqxtPveTeD1ekGT3SSbShrb0ySbTaGyLUHf73eR57xeL+sX+o2mpU0rzYw9BtGW/gWE/Diej4/Pj4/XOUe2rP9zkxQKTXLv1XgedluN57weZ87YliVl977v+333t6QJhZnxjG2ZbDabYFkytM3u3r2bUhCUguR/IqBNUoo9tMnuXZDsmXmd13mdMxJQin5BgO2xZUBYou3uvUmpLJIt1njGY0lNeUi2+UtbShGPpknTAgUk68GjhdKi8ZzX60ybpmnTljabTVNkJdk8sEdAk3SzIFmW89jdVEi2hei9t5JmzjkghPjWR9r0gR6WLKG2IKkPELKtUs+ZM2cskPSvdjcpfWRz93q+nRkkzzln5syZ8UMS3fcv9252k01bkPx6vcZjCZGm32Sb0uxm7+59bNpKQgIh/NBfStMCshEle5eCZZ/zOq/zccaW+FboA2SfOWNLIBBNsvfuFvBYTQKyxyMDSSqQLbcp34QQQsAmaQMSFJCEIEnLo0hjv14fZ6BNG9ICzSabFqSSdDdBEpaaNtmChFA22U2Q/E0CdlMkeWy+CQlB2nyjRSD0C6XgcR9IyHZ3Uyx7pDZF//Leu9vSb9mN5zxmxtaccyyQZY/HMtyvr69739k+kqagOfN6fbzGAgQtpRRJyW7u7n287727aYS+IcE8LMmyS9K0tawHbILKLx6f18frzAMJSpJdSXNeH+fYoi2lbZLdbSXmjPoIIFvQXyQZCTYbwJ45sgSlu0lTZItvBdrsfV8QkqzHnDMWUCgUSeTRB4+2yd67UHnGtE3TQtM8Nm3B43kIVNrSFsRDvyC1eWzCQ98ASZRKsttUsiypmwX9kvt+3+h/uu/3vYhvbZo5rzNz5tt5QFuo7LEt7ft9Nymg/gZnznm9XmNKaflFUNi/3Pf7677v3aQtyLIk8Nge22PTTdIgP8ZSW/pIi+1zXufMQ4i22b1rzZyPjzOS2rSolLQJ8mNGtE0aJKBtWvQbTYvkmTOWoE12N00kWTyafsve96KHLbXIDz34iwRJC4i2lHbvpo00MqW/0GZ3mz5Ats/MWI/SZpMKJFlIINome3fbajxjS0K0FCFK9YCSNhQK5N53Vv/N+5stS4LCvF7H45nX6+PMGdEku5XkeXQ3eliWCklbSX6dY0ObhIdstfm2yeZ+/fx6v+/dUGilGQvx0Mw5c8bkbtJiz8wZW1J2N2k1Z8Yz47GApsne3Zk557zGpU0j2eI3zZyxLGiy95ZHoUnaIs/Yli15bAvaZB83SQuIx27Sb0kkW7a6G5BkW1AhKG1aZJumCGjaJFAo0FJos3v51iLJnjMPO83u3SDJMxbQltLu3ve9u3p9vD5e54yAtGlaZEHbzRZo8+gDiv753rvXtiSg1PPwnPP5+XFsU8q3fqM8dL7NjJGS3Txqj1Sa3fCLaBJKH9mvr5/v931vKHogAUL2zDlnbJFN0nZmzuvjdcby+/2+N0Hndc6csRFtmqbfPDOesfmlegCVJY/HCNE2dy8IKIXysGQJJCQ/pJJks781tEJqS4F+o+hBEkDyjAVC/NIWhJqGvzRN6V9oaZtk+daCkGR7xtNHEhh/E7RNU9Lm0dTn9TpnjoVo0gdItEk2W0qaFj2Q0D/fJJVlHn1I8sy8Xj9+/DhAeZxztHt/0Zn5+Pz8+Hi9jm1l774fyy9t7i6FNk0TfWu771/uTct4oGmBc17nMUbQpkmZ49fnj8+PI+vr59fX3aDXx8d5mLbZJC16jL9JsiwhoLTIMyMjCrTp7kpWKdiWJUFJthTJDyDJZpP7SNpiWQ+MWti9rcyjpXjmjCUB+lZCH3nQggRNS9o8Sn9J0/IolEdB9liICvmckaAlyaZpEHrYM+OxjUSb8k002c2maZu2zJyRhPRfJmn0DQkQksbzen3++HGQ+s022U3azuu8Hh+vj4/XALvv+77v990ELNGSpt+SbB6bvfknpZTSUtmec+Yh860U0Jw5Hx8frxG677sp8pkzsmiTvZtQZHtmPLJsWdBmkxadc8ZIIARtdjW2Jfmc8zpnuu/3+77f2xYsCZr9lk0fCCSLIo/dPDZBhjRN0XnYlkBCStv0PwBB2ySbuzfltyahIFtCJJu2MP6m8ZmRBG2ye/MAS5YtWbIsiaYFiUd/oYSmBXnUpui/aNroYVm/II3ndT4/P4+kdlMeSYqs83q95szrfHx8uHTv133vvbtZNGNJZLNps4/7y97wS4GSpAU83874ISGggDTjc16vY0SSItnjgZImubtJK419zpnxQzJ9ZDcCn9cZ65stiSaxx5LsOef18XFy//a3nz+/vt5NWwFt91t2q/9IWnmOSbbZ1oJNmqLzGFsCIUiatOXRBwjabnb33r0IEHSzLWjGRiSbZFvPN894LAna5N6bbLBsyTyELCGaFiGBBEISlDYFiWRb/edpqWzPjCX08Myc8/HxGolmNy19oPHMnLFsv85LpXvf97blYY9HErt79977fty7u2nKf6xQwJ6/HI9tSJumlj0P6y+WLYu0TZpNkxaN/fH6OGds8WgLyDNz5oy/zTljG9pi0TyAeb1O9ufj6+c7SUOTbDbfGtADIYkkaMaSyG4rIP2GzpyxJX5rNkkLCEkIQdIk3c0GRNvk7m0KsgVCgj5k2WNbloC22b2bpLItoJRKiEJKKUi2xx7LFmo36YNv+s9oy8yc83rNgABpPPM6x0CTTYEW5N8E6MyosI/Ysj2yLBX2cd/v99fPr593b4JA6P+nCg5ablvX7SzfrT29j7nWPsnPsGZFCEQRsZCAHIkKgZRST1EQf3v2XvMb/WnNd3xzraNeVynlEEKH5/CMr5mxDW2TFpAsW5ZnPLYl1LRNm6MFzXXN677va8YWEsJz3Pd12ZZlXXONbUFbmuf5er+zq/Hsfv38Ot75aI5ND1pAfBTRJGDJtvqBSluo5LksPsTHZlt+0YFE07RNmgTRJtlnn7TlF9ljiUP/Aiht0822AR2UlpZSCkhQKh/XzPib2uw2qSTQfwOF67pfP378uC6hJK0kz1iUNI2O8k0SaguWBfTQ3HNd1y0amjbZfd7v988//vhjn21lWVabtiAhe2Y813jssceSEZRCkiIkW3Nd18xItLT0yCbFM/frdd/3dc2ffM3c13Xf9+seAQJ5bMmIsrvPz5//+OPn8zxpu8/X++v9/nqabT7a6oNf2iaUpmkBH5KhlFIBGtttACGJpEWGtiAQkIaWtCnQJHs8pU1SDl8zPgQqFFRKS2lpSikFSqFNsoBmLjmtLHsOy56ZNrtpqm//rSR83a/79bqvoeTZBSFZh2VJlCYtIFkqAcltAduv+/W675fI5nk/z7PPPs/7ef98f+1uK0tAjqJv1ow9HsvyIYQOKD3AliVZthHQemzRdnermev148dv9+t1XdfM2L5/vH7c1zVzzSWVNo1l2RbQ53m///GPv//jj+d50nT3eT/v9/vZbDZJC5ato/nWItFSQD4oNA2HJUsybZEtj5WmIGhpaZsmDRLfJGiy+zzvJJvdBvBc40OW+NaPlKMcEgJUeiRNKh9zSUkr0GFZPtrNUmRb0r+x5bnu131dMyp99r0gEGhmruueSbJHK8mW+UVNKl/X9eN4vV7meZ6ff/z8+X7ez8c+u8kWIZpmN9XYkoUlW9aHLRUkS5SqyOOREEebUnrd9zVAn33QzP367bfff/z48bqva0bSj9//9tt9WbYkSrLPSmg8Utv3++fPv//9v/79H7ubtsnu87zf7/2WIGSPLCvP8yTb2haHhGyrabpJJfkDQak0nsNtU6DQI9nsJpFsWZIl2uR53u99nt19Eoo9Y8v22AiaNkn5EFiyhVVIsukx14zHIkdbCuiXNhtJnhlJ/5Ms6bpmJEFp08qWhTwz11z2PnsEfIztMUpSysx136/X676vu/n6+vrjH3//43nez/N+P082+gbdbBH2NReCpukh2Z5DSEKAsKTxWBSB+EhiX7ZEk1TWff/48eP3337/8eN135fs+8frHgGWBLRJELIHkv3593/8/e//9e9//GwLgjT7fn89z27SFn0YQZs02ZRDMhLim0ra0lq2LAsBAllCggIFJLqbzQZZ1lEKpclm99l9dretPix5rhnbNL+0UEopkm3JtOmHxx+ibUpBfJNFKQgdSP+zJeSxBRRKiz0+NHPNjKXneTYpsj32HGJ3QZrruu77usfjPF9fP//44x9/PPvs834/29a+bNFuFnlmrmuAZp9nNyvJM9dctgQISZZnxjYIgRAkBQuJNgFp7h8/fvz+2+8/frxe1z3XXNc9VqHQUkCAkNw8z/PH3//+93/8/R8/v2iRRI/3+/08uw0gSwLaptCmaQs6OJpWGgnUpujwyJJLSwHZgkKLbJGkSdABKC1I0HY3zz7PblKQhNBcM+Oh2Wy2LbRN0yJZtiTohy0fqKWAJMShgw8BBfQ/WCDbc0iUpJFsz8x13bdFu8+GQ0i25LHIppJmrhnbos2+n+f99f7KsUcBz3gQpJFsz1wGmvfzPPu8haT5ZgkQku255rrGY76Vj5aWttlU6Lp/+/Hbjx8/7nvmul4/7nuua2bE+3k/+4S5rkuIts/z8+t4f/38+cfXz91NKYXux7OpDtv0SFI+CghR2qbZdDzXeKw0tMgfEmoprWRANKmwhBDf1KYtlT1Sy272ed7PJpFsaJBt2XT3SVIkSNKmBQqSbHrI30RbWbItWwdHqTha0L+xJc3HdVlpdzcg+7qu1+t1zwDZpJQeCBCQFMueQ3KT7POxT1qaTSKwxyNZbSXL47FQ++zu8zwFJMseIyQf1zXXdV/XNR7aJmlE6Ue+Iem6fvz48Xrdt4/rdb+ua67rvi5vNpsgWUl293m+vn5+vfd53u/3897dlH7LsbsFHVbbNEkFAiGZo0fa1PZ4bCX9kA/ZQAtFB5JIOYQ+EJTmADRzSW138xy7SaSRmkYSQu3uhqKDNmnTD5DsKUkk2R65YI9t2bKhlFJoKaD/zh7PXMeMSPI8z7bY9+t+/fbjx32PnW6aYzcfbfohezyescTuPs/X+9m0yG2yLbU847E5JPkXQZM8+7QUKBZC8nXd1+t+3ffrvsbjNHmOtOVIsttGtue6v42FfR1zXffr9bo9NiL7PM/Pnz+/vt7H1/vr2WfzrQekmzTNQREg2qRJkNCBZST+XwIdbdIDjz+g5cOSbFkI2oJAEi3NJkKaa0yTPZ59sk0km6YF+pFN0GFLbdOkaZGwx+2zKyTP2LLG11jIsklSjiYtBf07fbM814hnn90Nkue67/t139eMnKaltM2x2W1lXdd925aS3ffH8zwpyIY0aSrbcwghJHuu8Vg0yW7KnyR0zH3fr9f9ui+Pdey3Z7ctgiabNNLMXPd9HQPlkOy5Xq/7ZY+O3ff7+fr6ej/7PM/7eW82pUApbZOG/oXSsjna6qAU/YL4Jg4JNWkpWP6QONrK8ocOoFBAlNIPQBqLpvvspgeUin5AvyWNPySRbJq0pTps0zSAZFvWL0i2h2STphTJOv6TKKSV56Lv571NbI+vYw5bToskJJTdfZ6nXHPdP378sGjf7/fXz68/3s+zKTC21LSbWGPPjDiEPNd1zTUmv4Ak9C/mfr3u+/UaC2j77LOb3bQg0WaTBo+v676umRFpsruA5z5kWyL7fp738zy72X32CQEdiNKmB4hC0zRpdjehSHKTFn1Y/CJACEjKoQ9/CDWJ5Y+RkBCFUqCUIgpCEk332a0OpKYHpX+ixeOR1O5ukh4gJMuiUIokSxY9wBqPst+CrJmR9V/UNm1Byv58f6XBM7Zlz2FbFM1hS/t+v59nq/t1v+4ft5rN++vr/bzfzyYBZI9I+uHxWIIkBWmua64Zk6OtJHuuuQ5INddcc10SpPvs5klKK2SPSLJJkD2eGVlqPnZ7eA70jSZ53s9HtimWJUscbXogy5LabI791hbZbVoJyRJQQiVZQm0qIQmEhIAe4/EhkgiEjgKlIJD1AWn2qCSOIoTEblr0F6Btstmk5ZBkWRxJQNYctEnTWqJJdjcgdKD/C9ocTfo87693JXlsAfaMPyR8XTOSeN7v97OL7/u+jvbZfZ73s7vZplAsi1IkjW1Bu7tt0cxcttU0SLI9c9/X/bpvNSk6LKDNs8/upkiyZ65ryOYD+WMsIB+bTVI0MqADSJ/38+yz24JsSSB+KSDJOto0m80+m22LpH4gJJm/yLIEtJUsUXpQKFT+kNRsACFLHKUIZI8O2ia7KaK0SPKhbAoSEt96pM0mbUESCHG0BWFfc1GaTcLRNh/8Rf+3BN3nefZ577NZX9dYFm3lsUfjj/HQbPbZTYpsS3KySZrmaJo2hUr2+JpLFipNNkfxNaY0LXPd11zXzHVf1+u6pabZTdJWtEmf926lmfvjGnWTtNieD2iT3Ry7G2QbgaBN9nmeTVvK0TbbgDS2ZYvSgwqym82mQqVtkgoJBJJmxtYBlMayoEl2G77pQEAp3yTER/nmGcmibdqmR5qC7TkkoM2x/KW0SdqCpCZLJSwbKjyWgKZN00IpUEAI/Z8eSft8vPfZRDNjW6IgYdmeGaO2u0laDgHNR4Mk+kEPCkW2xzMUWtr0A82M+ZA01z0zthEeW4Imm6YF8ZFNQPZ939c9l2jTRvYc13Ak2Ww2u6kOKEfbZPdJD1raJLuJJYHQYUtpAzT7bBOw3CbdpEgqINm+PBJCH5ZktUl2t6V8a+nBhwSUbwIJhCSE+Cj0X4Ble2xBm6PlEP2Wcqglu09BmhlDW4okLERbyof4kHX8l+uamX322efZZ59UkmdsSaRBtucaZbNJgyTLKO3z9f5qK801hoIASXyTEKRJW4qQbM/4l2vGY0uQ5/0sLZIQLR9C8hgQBc/MNTOWoKnGnrnmQlLT5NndbIogKeVoyUeP0GQ3m3Q83WeTovv1cpu06fM8W0AzZpPsJjpKJVtjCyo8nvu6ZWCzyaZAS5tvTaG2RNMWJFsfaVqQLEviW2myaUFzjcUvacvHJi3IQvvxbCvpusa0ybNbWXNYSPxFkseW/vN47CRNkybRn5CgbUqZ8ciy+GhLSyG725ZDtEXfTJsiW5bSZHtYsmeuueabZVEKJM/7WVp0IGhLBbbHtiTQ4Y+ZcRJAkm0hoPRPFJqmB6Uf2We3FFmih6RudpNWlqBHvlFAUpvQgmSBoCBL/tNcMxxNmzRtKaVp2lIOSRz9JgSIUsqfSvkQtGkLjEcS0G/og7ZpKe1mQ9GMB9rdJwE0towkhDgKpfIh/Ud9lAKCgmxDAdEjm9T23Nc9Y4sm2U0R9E9J2oJkWSbZ4l+azQe2Z67rmuua67osaHeXtnn2SVt0IEhDQfJ4PCMJBDrmuufKR1uEBEIIWSBamqNJC4WS5/1OhOa+LkG/Jdls0qSCkrSUQmnpoQ9LlkTTApq5Zjz+oKUtbdNSWkjLN3EIECRbSiniEKVN0rSgD/oBWLYQbVrAsiyUo2m6WSxf131NnmffX+/teDxjUT7Et9IGeWT9b7QNhz6QPDOWJVnZZ5OCZ8a2LEvQ3SfhKG2SlkqWEEKiFGR95GOT2p5rrmtmfEgl2V0Q0FJaPlqStAgfCCRZM7Zlezwt6Yf4ECCNB9Q2ye6mCbJcaHaLNb7G9NjdZ3cboGnTtLQISg8KVLL+ZAT0kI8Zf0BLW0r5aEsLSFBKAQl201JA4hC0+dYKSVbb9GA84mhTJCQhjrb0F8nyjJ09nieRZMuypBZKEUeLbUn/TJrwJ1me677GByjPPq0kjy0JWbZEsgmlbbKbSGg8qNACMpKFRD82qeT5sGwkoMmzS/WNj9LSNkkLWHYpku1rxpYsW0glLZSjgDwzAtIkm6NFB0db5EN2abPP8+xuK9Gmm00PJNpSkIQkhH5BQA/J8p8QUFqoEPQDkAQ9KJVoNm0BSQgEtEmTUIEl+gv2qLRNC0IgDvFRSosk69jsZrcF/G3sQmk51IKs43+hLUd3t9i+X6/XWFKaZiONbVkgaTy2BT1odvd5no0sH6JtksrjDyEso2wKaGyLggRt9nm2LZIsJEopNEcpkoUOe2zLQh+WDS0tpeXDMyPRNimlpfTgkIQkhIQozx5JK0iTPZIGSimSxweUCiNBm3KMLYMsj22pLR+C0gOQEKEHhbZp2iLJQghx9EiTggxSCbVMm6ZZ2gok9AstaQqIY/fJ0Uoaz1xzzSBB6TcKQuifddAmebbY83r9eI0F+2zSSraFKMKe8Ywljnb3ed7Pe+MPGVLaMnNdc1iWbfHs82QXLAt00CTP0RYkC8SHgCSlICTLx4wFEsiSdTQtiKMcsi2gH0JA2ySlOoxA6KN9nmeTlCObbDZHQ1vAnhnLbVJAskpbQD4EOmyPzSGQBIg2bYHS8pe2SRoQCCQhIaDfQB/QVhJtml9aimR9QCE9KD2ySamQZXu+SaZtskmhCNB/uMb2bnY3ZTyvHz9eY7Xv93vbCktQSsV4jsuWVJLn/byf98Yem6NFyPf9uu7rumY8tsn7/fPr6/2VCGksy+3uPu/naQs6SvULSsohQB57rhm3RSCPJGiSStYBFIQ4SkEygiS7bZFsAZJ1tO/3ezcpons0aZMmKSDPNba0ebJQ2UZ8FB8CIeQZ2/qTJUvaI20oRbKQVJrdTXoAOixZH7SUypZ6COiRJns0pbaRgELptzRpgyRLliz/IpNk93mWP0n/+1jyZvfZJ7X947fff8yYfr2/UirL7iGQj/FYCFrSJs8mWB8IIcuv+3Xf1z3jsVD3/fX19X6/N7SUWmqT7GaRBKW7i2RxtJHGFsIez4xdyiFZAnqgDxCHJD4KwhJt0iSAbEtQAaXJ83520xbY3aSh0CahlWasNmlSCR8S4qiEKBViDutAksfW8Ty7mxbJwkIfqEeapgVkWZZlIG0SPsohCUFbNkmTVlKbHiBBmh78SYdlW5Ysm919nmcXiR7oP9iIprvPk0r+8dvvv82Yvt/vICRbTSrJ30aG0g9E07RUkmX5Y+7X676vuSy7Jfv19X6/n/du0xxIbdIPedQ2+zxPZRtEE/kaG8n2eGxRCghJfLRCEhQhJEAFHbbIbpPWssaWSj/S7D7Ps0nKkU3SFqGkTVtss5sUkORDAkFBQFtA9thCH/aMJfHsk22QbRAgNJYFtElbdFi2jCDNbpIWBPqwBChpmrSg7GZ72KJNOXTQgrBsS0i2+zz7fg5JNC3691CQpVKQdN2veyQ1WZCESnaL7Jm5xraAPvskbRFtqWXPdc0119z3fY0tAW2S99f7OXaTNKXQbIJk2WqePR7PdY0tJykSkmWPD4m/CCRoC0ht+dZWIHvGYzebhDIejy2lab5tnufZzSLbSXO0oFKSbRBNAkLosGjaImZGbmnTIhBorvEhcbS0BVnZZ9Oi677HtkSBcuiwQAd99knaylILlg85u2nLR75tA0iWaEFGUBqwDiTZffb5ev98v0EIIf37J0nnILqzbAAAIABJREFUsGVbmusaQWmDJGjTpLJm7usajwXtPk82bVWS1PJc931dM3Nd1xhBS9LNc+w+zx5tOdokWBKiu5u2vu7r8li0ICRbkoVAHKUIyRK0gGhSCqWAGM+MpGZTLM9hWypNNrvP7vPsbiJ53LRJWmhLN5tQSgMC/dJuCtJcY7fkoy1QXTMj25IQRwuS9mhB133ZkgBJSCAkQZEN2SQNGKVFsmy5SfnWjxybpngstdWHBZsgCQq2m93318+vrxbkQfrnr/d7d66PmWsOj+mmbTjapgJ5jvu+xmNoydE02exR2XO9rsuSZy6LUtocm93N7vN+nidtZYvSljZp0mJ7rmtmLMvyHLYnaZO2ghx4PPYICoJs0hYkAcI2PbbR3Nc9nrFky+7uvp+v93ufJy1IFqVterAfaQrloy2yPtq0snxITZvd/gmPPbbH4wJNixAgf0hqk7bg8ViWgB6SEKJNSr8BQkggyRJJoG2SPrvIFqXCmhmRpEA/ZEN5vo7N4hlJ//H99X4ee45r5prLsmhoKVAoyJZle/yNj5YmzWY3m0qyx1bBsgQUSNMcm93n2LR4xpZEaZMeMJ7ruu9rxiNZsgQiadpSSrJFtsYjI45u0iIQv8gSqC34/0dumn2effYjC4j+Qgv7PJsefJT0kGUdPSRkHUCb0EKpsKzDRz+gQh/+UCFNWsp82BbQ9OAQ/aCQkh4c4xmPpabf0jYbEEcrJNnQpEKFogO6z/N+dreykf7z+3k/D0j2HNdYgEAcpfqYGQHiw+iDo2mSTdKWX0oaQIAQlH4k2Wc/QnvNNdeMDWpTChrPfb9e93UgSJuPpq2AtOm2khh/U9ukqWRUWoo+PJagTaNjZmxJHGma3Tzv95NS0qS0CPZ5tuVDbZqmlWzLqC0UyfpWyjcJEBRkqUkr9ItlWaS/cMwvNpA0SVNKKSDUdjebAtd9X9eM3SPpQUvpBwXKR9voFyQENJvN7hYK+k/v9+7K0niuue97xpaAJG0jyZoZA+1meyDU/6+k4aOUHpRyND0QEmmSTdIy18eMOPSLZ6779Xrd14ybpjmaJk2hzW7TIls+ZEEaWhDQhkOyfEBLQ22PLQvxkTYfz5FtmqYgQCSbFgptmpZiWUCbBqHD+iiifIhSoJIsPoSEBAIk0pZvZTyeGYs2R5MWAUKS1TbPPinSdV/3NTNqmiYF2pJs0jalRQgL/QVxNE3SUkrR//H17K6Pmeu6Xq/Xfd1jiT7Pk7bIx4xUkmefTVJok7SU0jaJCpTS0tIC3aQtsi2gaZOm1y8jQP7Q+Lqu1+vH6xpbu/lW0qZNSfbZpuBD6ADaQoGWtkLIsmWpDS14xhZCIKBNskn22SNJC5IQtOlBS5sGEJZp8w3rT0gg/pLSgmTLkhBCUFpKaUEHFFtzGNrs5mj1YcuyaPM8m0jc13Vfc9lpmgREm+zz7PZPkqyZEYfQwUebgkSbov/16+v9fmTNdb/u1/36uGcGvr7eWyrLHlulyWab5tjsJqUfSVMhaCmlHBJN06TosCSgOTye67rG1i+W53Xfr9d9X0Zkm6RForRNs0cK6EjS8iG19AAd1p8sKOWQLSg6bCv7PLv5ZQ+KkBCiR5oUSimSLIl8NMX6gLboG4K26QFzyBLf+i1NK2SPTallz1x24XmePVrZnsOy2iSbtGiua+65RqXfBH2e5/283ylCSJZn5hrSNC22JFQOSWS31b97v9/PI2nu+/X68duP33777cfrssnX188FJNuS6F+S7pHdpO1ms00ri6N8tKWlUCgtRYAQpYxn5poZ2xJIaO6P6xqVNm0oSKJqmuxmW4GQkrT8kjRpkW2Jo3RsHSCgVEX4m5J99sixH4BkSRylbQoUCjoQzdEWJPHRVgdQxFFKYeYaHUDpX9Ii5IOCLM81I8Q+z24SfFzXjCWlaek3S54ZGwHlaPf5lgLC8jHXDPmlkjgkfwzZbfU/7iaR8HXdP377V//0r/72+++/Wc1+/fzaIsl2fwGLbrK7SZqmeT9fz9MUy0IIWclmn91atkckT3YTkDwz133NjMf2SIiCruua8Qh6UA7xoTYfPYSQxCGONPs8mxbNDEl2N72umWvGCHaf6LA9klWaPM+z++w+u6nQzBjKL6JAoQL1SNMDhGgLCB3JppJ8oILnGiGgtA3fStPyi7A1M7YlbY622OO5xkYkRTZNmm2RfAxC9EibP7VCsj3joW02mzY9PNfH7Sag/363ja25X6/ffv+nf/qnv/3t9x/k/X5+fn3Vx4zdpEmLBW03H02TPs+zm7ZCCHTQJLvPpi0y9CMBpLmO+7rmGo9t2tKCrA9oyy8SwrIkRI/QFvqNNm2OgoRQ/8T8YpVmE6gkZFnQ7vN+jt1NiqTxWEKy1SNNKkAWPYD+ixR0gJK0oF+QPDMgmvRDWJIl/lKOSrI849IjRbKvGamlrea6TNPneVIkzwxpkk1AHO2mLViSZXG0pUAPJMszFgj92ydpx3P9+PHj99//6W/H76+8//j6+fX1xX1dc7hJNlskIZE0SZM02SRtSsshhNqku/scDSBZCCQ818d9zXXN2M5umpaW/kVIgA575pq5bNrml26ym2wPQBqbJAj9Yo/HUmh6JJRWtoDk63m/n+dpWiRZ/tOMm+w++1RIPlqQRLPJJmlBNi2ltJRDkjVjg5ps0tYfc8gWoLZstkXyPZeONKnA1wykAXy9XiPa9/u9AXmuK8/z7PvZteWDJmkLQiBA6MMytDmKsD2S/m02rezr9eO3v/3Tv/7X//qf/va3H+z7/f76+loK4mibDUjy2JvNpvkXQA9KOZpvzR5Isse2JEuew3+R1Hw0KU3TZBOEELbH1+Gx1NKmTdMkmyZpU4p8yB+CFh22RRpa2tBSBLTps9+SbQHZlpElq0ee/X+Igpddy9YtSaufWR9z+d7nRAavAwVqQQ2JOhUQEgjEIQVKKcWlxksT7nN0M/4xl++M1lIQCFGQRJPsbhCSbdry6KHDkm0ZiTZNUyQhyfbowdFSQB6PLJGmpRpbfJOvyxLsUSR53GQ3m0gWcmmbpAUkmZZDCNEWEJJ1IP3nSVrZ19cff/z9n/75P/vnv//tb3+Q+37/+vnz3t2kqRBJKsmecXY3TfNbOdqmD9rdTUtJa3uOa/yQZUuUQ0iobbpJ2qZNskkpkjxzzXXNWBLlKG3aNEfTNLRI9sxcM2OaRkKyRA/api39LU2aNNtNUoplCRCCQjdpRYEKhFRy7EbfDEUImmLJ+g1LHE0DpRwe25IQAiGELFkWpW0iybIsEOhbsi1CttumD8sgWsomaUGyaflNPZAsy0II/RcpZa55/fjzz7/9/Z//3b/7+9/+9tX3z58/f/36ed97p6GSlRYk2SJJCzSbNAltaT4K3Xu3SJ7DM9dc1zUztqU22SNJa4nSZpOWUkpoksryXHNZEgLZEmqbhrabpKUS+hiPZyxaJCRZQjTpZtOWZDdHDyhtPioZtUKo0N8ACYE4+kjTlgKSjIRakCV+kw/Z9JGWIstGQoA+zENCskS6HPY1ltwmLSVJC5JstUXH2Ka0SdO0FCEsyRICNT0AH/r4L0HWdc3rx48//vzzn/7+T3/++efXvv+/n//669evO7vlsK0eQI+0ETNuNkcDpek+WppsGc/MdXk8c13XHDYiu/d9v/feDZYpbTbhEEJISSr5Q4CEfAiRbnpkd8NhWweS8IwtwELfUNLcu5u2eyRpQAXatGlBglIJtQ1tKaAD8SgFCmnTFiwhUEGyoFAOyx5bQJu2gIRAIHTYlmhBSDYkacG+5kJuNimQTQvIskDyN0Hb9IEQtEiWbEvQfKtsy5b0L/Jc11y+vl5fXz/+/PPPP/748dr3v/7rz1+/fi2tsHyItjnu9/tu8Xx9XdrdpKkMSe5935u2gOe6rrFH9njmGo+l0t37ft/v+96NbFGabIuQJT/aIgmVh2SPLSOabLJJ9t4WMTM2grYaeyxLMhIClDR73/c22d0kLZLaNG1BFgJKJWg2oQghCSEoUIGO0jZtEaWAkC0o5SjIM7akpuEoLQV02BrbIq0QkiC7BeyZQWqTgsgmLciS5WM8SByl5ZBtkaQIe2xJ3b33vneR7LGlf5nr9XrN5et6XV+vHz9+fL2+vO9//fXzfr+DDnvsUZpjs8nSytfrIgmlCJq9N7tJWwmPZyx75pqRbY7S5njf9+6mlYC2SUGSZdkWIARtWpAsS4ijTdI02bSIGVtAAVvWw7IO6LfdezfZI+EhSEMBCUFB0DbZTRGSrAeHHpYEtGnTNAkg2RbiL+XwIUQPEAIK5aHDstRSDkvQJg2yrAMqycpREPbIsmyrLSDZljhE2QQsz1iCve97702K0IH+ZV4/vr7mmmuu63W9Xq8Za98/37/23sqyZ8ZjdfNYEGnAY7UgBCW7d9Jvli3LsvS6XpcFZJN+0HvvbHpQ6APQw7JsJBXaZDkkAUUc/UibUCGPpQL6DZA1OiBpabPZ7HFvQOLogRACWkCQ/Ugl2ZYti4KtGY9omyZNuwfImmvcBhDim2xRSgsSOjh6BNAHKC3YkkWy2wKWLVk+kraAPR7ZOthsJfk6gDZpDtkzY6tk3+/73qYftOi/smfmx3EdnrFKdt97J4vlmeuYsSTokWTvTUAUEIKWNCCJwlxzzXXN2J4Zk83uvfceTbv3bpIWlKM6ELSVZ0aINC1UCEqp+K3NvQ88c9mWZMkyFBASEvrWtJtN7n2kQkIcetAP2jS7e2cT5G86EAgsy5S2aRvSRoc9ozRtQQf6Rh8UEJYti262BNDDpSBLlqGUthw6OITopozn6+vrNSrNJhR5bEGzSYXmmmssiXbf7/feSXbvbdrqvxaS//jjjx+v67KRmmSzecjj63XM4bFEye7e7/vepuVbeQjJOtB1Xa/r9XpdMyND74/33scm2d1sD0R2A5YKzYaZa4RIUiQkq234VlC73/B1XT5kWxJ9IEFB0jxoc+ze9727AUlQSZYsJW1Ksse927T4MZYQkmiLHogmpa1ACMmycrQVsixZEvSAklaS51B2t2kLkmweQvKho00PQLTUHjVbxvP148eXSbtJ06IHtFkYz/W6Lkui7d7v+97s3keyRf+tJPt1XHNJlD6yaRJd1/X1+vp6jceSoCXbvY/dpJQmLZJsi0O2rrmu63XMddFm73vvYzd77/u+N1sebZO0hSZN0tpjGQFFYI8glKMPWqBNwfbMWDLNo+GRRDPXdX29XgLS7P3+9b6zKYY22LJlNW2T7L33JgEhf+NDahMqyR41mwKyDYVCky0VetiWEG2F6d5bxFyvy91NUz4kIcRjfEjqQekDpBmPHh6PLZqjSVuQBOWQr9d1jERJk713N/uR3VT/I0K6Xtd1zRhaWpqmbXxd19frx+tlW0CbY5vNJpuFQluQZBlKPfbY49d1je1kf0uy9x73lkKhadqm0G7StGjGCIT4kCgBJEpbUglKAWGPRNvdLSAk2mo81/W6XpJosvt+vzdJETRF1oOmTZPsbpoKSZbsMZQCPcDyoTYtINulLX2E8hAIAUIgiWYbCXusJqX8J5JRASHLlgptaQFZM57x+CFESY+UUgpNC8gzc81lS5Bvm2w2yWaL/n1Lub6u65qRW0pLD8Az1/X14/WSgLJ7752DqiQpQpKFENADz9jC8lgte9/3bhIge7+3pZKhaY7ScjRJA/iaaQuIRzZJA7aF6IOjUNrKojk20fghS0iWPWNLNNncu2laoCUYcXST0CPpATqQ5BnUI6ke9sgIKIeQelDKR0sfSUsl23wIHfSD6qAUqGUJaFL5kKU0RYetseeaa0ayOASUgpQm2aMFLGY8Y0vJ9pFk06QP/W885pprDkuiB6Egeea6XtdFW1C6SR9ADxD6C9AklW0ESII2u/dmt0CSDQLLkDZNhaDHbtIWLKcUKEfTA5BEW1rKQxytZFFKWlkWAgqS7PFYptnsZvstPbDEY5NSStu0pYjDnrEF2Q1gz4zEUUBQ6EFLBULQln5QyeIh9GiStoD4psMSpU1jj0eWNtsKaezxzDWXR7b4Nzraze7eacvD8yEn6ZFuskfTVv8wQrbHc3hMaWkBSfbMNW5aJGh5lFI+JPSwoM1uEI+WUiDJZndb6EOSJUNLaS1Dkz2S9ICW0lL+Ih7ppvwmhCiSrUc5pJY0LUL2zNim2WST0DZp2mAbAUnD0dImKaWA5mGz926pZ64RUApIJKGhFASSBS2F0hYhDiEJ0WTb8lGQbFmCNj08hyVyb0qlGc9xecbWg1JqYVl0P9JS2no8M5eVPtIku/d9J231j/EhocP2WBISIISEZRsdlnhIQEtbdPjgaNm9703TpnmA1EeapjQtkiXLQpJlBN3j3iPZppVEk4AOS0CPZNMiJASiUHtsCUpLyaMUSzPXXLbVNNlN2qZHWvkQUo+kadI0oYAOP2SyG0CyDJUQEsq9d5LiGVsSRykt9EAICYEEtGkoj3Lot/Ioc9iG3U0K8ng8Y1mG6qAF2bJEk20KqE0iy5altIW2Se7dTVv0j3lASyuNxx4fOhAISUiWbVmWZQtQKbJ8qG02ue/3+06a7HG/t0I8+khbir5Ztmc8pe2935LNUVk0CUjyCGjzrQVkiaNt5pqxpbZ5dJMCkmzPeMaiRzbpBz00th6U7m42SQ8e+g1BkgpJiIeEBOS+72zLXNdYRoUCKW0pkpAQCErTQ4CAAgJZQkIgzzW2pN1NWuTHSEL0gEKRPbIE6QFIkAQBAloO0Sab3Raqf8xc1zSbA83MNXPNdY31DXG02J55XddcM2NblvVhyO7+en/cgd77fr9//XpvWyFEIS2HQBRJY8/RNN18NG1zCEFbDsm0aR60aVqPBW03ueZ1jUckue/dbYtt8dvMWAj6G+UhWULi6L33HkGWOArl6JEUy5YEiJaWHklbkG3JEt+a0gKyQAjUI02KLFkiLYcPPRDja8aWskkPWbYkaGmavbcge8YSQqIJCAnUpm0KQpYETbKhgP57X6/rsiRa4bHnmrmuGVnG+qAFYV9zvb5er+uaGY8tCYnuve9fP3/d972b3dz33u/3/d5k2zRtkdCBCm2FLM9M/w1Nk91EDxClR5KmB6VtgsaCttn4IYuku9kWkC0ETSOQkBDfCsjYlgSUdvdO0iIJIQoUKG2T6uBRaNpSoLQUhBAIkBDQNiDJ+galaStZB7SFYlsS4rDG1tG0TVtJtoWgR7JBsmULxKNJKMgyKk1SoQfQB+XQf6Pr6/X19fXjNbYR+JiHxzo8Y4uSFGR//fHjx+u4xmNkjt73/f7582dC+/7589dmc2zux/u+N9vrumwLKGlKQZ4Rf5GyyX3fu2N5ZEF73+/dTSuZo00rWUCPtGmB0tLyISTLbXb3vguSrG9UjDWHFHok2SJUWmGEEIckspse9EE3bYWQVHrQllKKbdlqN0Fixg9JFg1IdstHAR2UUg6BeKg5CsyMD9GGwx5PKUePNJsDjT1jp9uAAJW2OoCi/06ea67X63XNZZWWYs/M67pGssczOtqC0OvH68tjz1xzeQbR7L33USTt/b53977f71/33vf716/3e3c747ElaJuWQwctfYBAtGmFJI5+y27CIdFstgFkJGjSUkp5pGkE9owlmqRNQQgEbZGwZWhJW4R80LQcsjgKbZoA6W42CbJkiVIQQgaUblJaCWhByONDh9WHhEqREEKyJAoUHUApbZOCxIdAICEhQcE2tGnTJMjj8ahtKgGCgh5Q0D8ky3PNdb0uq02ylWbm9Xpdsj2HxxKFlnldY2G/rmMuaLJ7p4014252975//fz58717//r18/2+965ly1ZpkxYQoDTNUZBnbCEepS2t5GbvO00lq7nvvXeR/JFtWgoFQTYbwDPXzNilzW7LUbVNaQEBhaayfc2MSdLH2KpokqYFKdn73r3Xc40lkUaHH0LZ3Xs3K0AHQj70wdFSQan+Ykvimw5o6SMBSTnagmXJQClFnhF90AOND6mEWuJDD0MB/S+ex3XNIaVNU8n2jC1r5pprrrFRc98re16v19fruq6xnL3vvbOV7JkxTe5773uPe/d97L0JiKNtmk1KQVKaZHdre65rxpYQAkEhzd6/3u+7qTymm917iyxZapoeUBBt0oLkD4mSJi0P0UeaQCVZFI09tkSSNjBjS2o2aYtlSLKHMGoprf5SSHbvHHrY1mEJIXoIS0IChCQQshCHOEppAbVJK6lt2oCsBwjxEDQtRbI8ttukLdgSVFgSopTqf5q5jrlsC5JQalnWgWRfM+Ox5eR+byV//fjjx9frugbYve97k87MNdcMae/73vTYzX2/987R0jZtms0mpUhKm+xuZ3wdY1sCfYPs3u9fv973ZiWbprn3boVkuaW0pRRomwJCD0v0g/+klDwaZEuyxiMjmqSNGNuymqQHHku02WxLSVtxCCiP5lt1+CEbROkHsmVZSEjiISNoQbRpC0jQtJWglBYQAkm2Cy39RvHYYzu7W0C2RIssc5RS/Q/XvK7XzFiQ7t6SbMtCUCpZEsgW3aTCrx8/vn68Xi9Dk82mZa6PIc3em3Ckue97N23Tpk3TJptNWxCFNknHnmtmbLmA/JA3u/v+db/v+25pm+beOwU0tiwJ2qaFPgIFCR2lPISA8tE2u9sK5mFbhWwSKiwjRKEt+JCl7CZpm4KktklTZInSHEiW5QelaVoQSPKBJCQE2FKTlNIkLcIyPZAERUKkLciemX6jQJIiyUebgLBkmsJI4mip/ufxzFgW0Gy2IFkH0IIsUZDUNinoev14vV7Xy6W0BUkeX/OaIU12CxJtdzcpbf7SJE1DC+KjLZZmrrElIYQlIZpm37/u933faZtjs1tA9lgPaJtU0N/QB2paDh1AQVDY+763pXN4LAFNWgQUoQNBkQ9ZdHd70AIij6bYhrY5LFu/UWgpkjgkWbIQDyGZpimUHqDDgCqhUpBok6bYMwbatAXKhw63CSDJbjZItmzx0P8hCUERlHwUdCDaSragHG2Stsz1el1zjShI1sxlZPu6TJM2IJs+QoHubrKb3aSU3wRCIIQ81yUJrANo2kL3/et9H+mxR1IkjeUBcbRJKqn0SLEtCZJtKbIlHuWx7/d7t+14rLEetIBpEiRbshCyRxZkN+VDPbJJmmJP2TRJx2PxURBCkm1oi5BlKEUgRA8eQiD0zUIobYGSdJNIHltik7Rgj3kI5Sgg2917wZqZy7JA/4GWCiQBaZIW2Xq0pdAkLVDRJqFI13VZEiDPdY0k+7KhD5CsD4Sg+28CBYokPJYoIMaXRaktCei37P1+37m3hWR32yIkgaACAW2hHKXgsQTd3aSRPBZQDku53/dmiz22LBC0gFBBHxwF2RKQAyTZopuPTSoJaJtE1gPEIUAIHSDJQgiJj0KBHrTgsYUQksamLS2lTdPyEKVHWnlkHaVQWookkoJkeySg+o9pWiHJQJO2INuSKE2a7N5piyzluPdu55AtkK/rGlnWWCqlgIQ9Hh8IdnPvIxugtJWl8Vg9hDxj2lRC4ii0Se773s0CbTcpR6Gl5ZAlUJpySMgai9J7d5MIz4A4JEvdezcp0uhAHG0pSNaDtrSVbEmQNCB5xmQ3SbNJS3k0qfVASEI8CuiwbLlFsiRKaUGQo63nugbEIc2Ytml59EgfgATdxLI9I6UF0YNHC+iwKW31f7UUyQLaNAiBod/Sprv3JguSoM1ugyrJ9jXj8ViWkXiIR2V7PB7bNNnNBkrbNClCQrS0Qp4ZJZs0BSRLlGaz26QVlHL0SJOCkGRJzu62oOu6fNBtNmnScsiWbQna7LaiDw5ZajfJ0rGFaJIi5rqumbFy77aVPG520wdtmmRTkF7XjFqQJQt6UGRbxmqLZYmHEKJ73yDNdSCgUGDv3bbIFk15yDpcksryXJeUpE0/oLRFSLLJptH/KQ5JlLZJdRSabNIGVPZIgmQLqb8B9RySJQshoDxaKlkzHo+stmlaSTRp0xZo05ZiyWPT3aQBIVkC2jRp2gqEoKRNmzYtIMnj7G6L/Pp6jeU2yaZpWgqyLUukSRN0JGmosN1ssim2VUg2EZrruuYau7vbFmR19+6BLJLuboLl63XZLZIsW9AW0ANQqSTrL0h0d5HsOTja5rG7AYQEbeXxIUuihyTPXFKyTZO2aUuB8lA32+g/IvFoG9pUEk2y9/0OrT3jvTeA7RlbliwETQICCbWAgaZNP3SML1v8RehI2nKU7m4CaOaSCjkk2bJoy6NNDwpIKE1KgXLf721B10yTlWR/vV5jCdLsJk1BB1Zpu5s0lY+WpgVLJCmHJNqmmwDyN6n0oBK57zspmutSk6YtOixbsiRLliUhREubgj6ssSULiZYiCQkVmmz23huQbHNvQrmur9fLOjhKhWRbpOmRY5tWgubYPIr+HyFo2iRNWyRImt0tRR5p914Je2Zsa2ZsRNv0SLItCIvsvU0KAiH7soWASkgcTVqEhLKbFORrxNEkljWSSCIJmqYHD9Fk26LHHkmKZZpKsq/rZcvQJtmWooOKljZt0whLUEqFbdICRUBpuumBZVkSlLY8mqQVmmucNn0IdFgHQpI/hPJoi2U9LMsei6MFWQJBlf1IEHqQbUEzr+uSBBQoQgeQTYGWNkmB5tijDej/RZTNsUnaCKkHpTwkuO97hTyeseW5XjMIKM3mfv9630LSiPv9fm9S2YZiz1hHqbCgTZsW8HiSbdoyHgnRppJsCXZjDySbpoAoTXbbIo9Nm9yblIcQtmdsGWiTFoQQ9OAhsU0LCBBIHkOhlKNAHm2QjST6oHwICVn2qDRt2lJ9IFoQ9lwziNz3poDHNkJCnssGekgeCQHKvu9NWyFKeUjID6G2lEPi0e4uAtkiu2nJY+9dCuj/RpS0TdOWQzRJG0APyG4q5Bnb8szYhTY9kvu+V0i2ud/ve5OWQ0iyBEUg2eLR9IGkHhyyRxK0RYcPQVn8AAAgAElEQVSR2kYSzW4LCMjRloJAHM1RwId+g5bSQtHRpi1FlpB6UB4qLUhCQhRKS2nTpKnlB21SChIqyMfMGGibNClCoHYTJPuasSC7mwrGYxUkWR5LCCH5IQnI3nc2jRBtKVRCGo8RTbYt30pJg4QQzW5B6W7uTUCg/yCgoB5UfGQ3SYs+SjZBWNfYsmxLKWlC2+xuiqSRct+bRxt0IGiKhGR90NKGUh4SlmXJqKV6IFQe7W4iCdRmdyUQqIeApi2SZ0ZCUNq0lIck02xCkW2Jo1AKiLQpIFlCkD7oI0lleyyRlAKSKLU8H6A2j40QR3vvCtszNtBsgpDHUguWZVkysix/k2h3N5sEKD3Ehz2eomQ3odCWlg9JPZJsJTW7OdCB/ncetlVaxKO5701aJLXJHtV45rouCR3QtGmSbnY3acTYlB5pEoQ42rSSSqksCSF+k5AsyZYsPgpCEqi0zbaWKc0ekmxLpOXoAcJj02+SLAS0SKhJesiWoRylLYI2fciyZEjTNP2LJCSEkIR4tJVle2xQurvJxvqgSRCyLXE0rT4MbbEky4ckEJbHthDNx/ZBwRIUyXJpk7RAmweyLYnkziZbQZtUsmxL+vdFMDOGFiglu/duaaHNbo6CpLGtw4Y0H5tNmx7ItmT1IC2SgNK0QiUFgT4QIHRYlqwDcYhDEog82jIeaJtNJMsStOFoKSDZok1LbY8kaMtH+gDrQKW0aTgKpS3WYcjmaKG0oXxIsiSOQgE9bIGazdHalgS0FUIPBJQiQIiChL5Z4hDWeCyLNt+aQpEsDklW2jRtBW2TTbFHR3azyVYcBWtkPf5XQFyvy9BvSXY3C3Sz6aag3ve9aeM5PKLNfktlCyHJH205hGwE9OBRaAsSQgJ0WLIsGcohrG+03Pe9adF1XRKFFknQlh5QKFXRA8qh8UiFllJKS6E6sEWbdJO0SBZtkZCA3Ww2kkWOtlRIsoDSFkkIKgQSfQAeS3wTEgg9gLYph2QJAQUBQoA047FNfmsDBSQh/n+u4FjHtq29qmgf31x1/W7OCUnAYCFsJCJAPAMSOQ+BnwNyYiJEAhKSOfec2muOzly76v62aS2ZSXqo5SG6t5LMTLS2uwYymRy85a+STK51DdrH7t67VRJtPUjC7m5VJuFQ2+43IfGAMGtNkADJ5ACPhPBQ8iCEkEBCMpmEkISEcFi9772VZNYECDkmAfzGHzIJKMfMLCIoRwAFzEESqT221cyAAgmg+95VQqC7Im8eEELeFE1IZkJAJAkhCSSEQAiEQ2sQEIFkEghJgCQrk0RrVRR5JHjAJIooJKC2u0VmMoC25ZiZDA+R/PXMrFlrjXb33r3vvbfKZKIcYTIRRBTb3dZq273vXY/d3aqz1koISCbHgEreCMpkBUIORB5zZCaZRMCjx967hAlvyXzJgdYqRwjJDLRKkpUhKkdmEgSEHIJHj601hwoMSL3v2yQgPcyBdN/3DplZsyakVnOsNUfigUAyIQkQEpAjohDs3i0y65pJyCQ8MuHwgeFPAu1dDXkAOcba7h7KZHLQKjBZM4oo5C+TmcyaEVHcR1sMzFtmICAQArHH9qi1rUf3vXcPAlaRkIMEBDGZRGsIySSZ2EqSyQwImTxA3XvfYmbWDESOOTIzBBBU5O/4SDKZwbZi1rXWJGEIb1rb7t3tASgC4dDu7SQctrshIN333oZkrTVJBAxJJpOZhERRxCoYMslkSEAEtd1VXHPNTA4EIZNwKPVAIJAEtXJMJiQQtGrQ7gqs65rpYzeZmYTwyD8max4ByWFtrQKzrrWutRYEMMkkgD1ERTzQ3q973/vebXf3rgYSQnizTSbYFkgmM5lpq5kJCVYzRyaCvfcOmVnXjKBAJjOZhCNEDlEsKkeSyaF7bzXr47rWmiNBsLa1u7vbR1UOw1tbMgTU3SIg7kMga81MJiQIhGQmM5OAj3Z3iybzWAlBEY9WgcyazASqSL6B9CFHQg5EhGQmB/glM7j3VlnXx7Xq7r23TDI5gOTPsz4+rjULWshMZgKVY9as6+PjuubIYzIe9SDmAEHt6369Po/7se9djiQcAlYR6JFjkswk4RBFQZisOUICaEJCovWAJJODQAiT8HDvXWRmrcmEoO1ud51Z1/Xx8TGToLa7VWpbW3eL4ZBDUEJEbWstEOyuSmbNzJrJAFYgWTOTg4d27x6SzEwmBDzAQAgEQgK0VUgmk0kA3XuDkC8oJmQyCYdIIIl0V2VmrQG6912RIzzy55mPj2tmsJVMZtbwlqxZ6+P67fqYWQkhBypvCZmID/p63Z+vX5+f99veGyWJB4JVOTwIk0wyScBHrRyZWbNmEhJIZiYB3a0HRzhCQsgbR3cNzDpCQO0Xk1nr4/qYmeCxdyti1da2EoJfAEPAo1YrJNhdWzPHWiszAd9gJpPJA7F776rJTCZBUDHkQQgIBGwrITOZTDjs3hsFQg7eEiCAIWEyIUGrQjIJwXa3VkEE8o+YtSaEWiFkkkAyM2tdx8d1zUysAgnkTwBtq/a+79f9er323r33vbfKUWsRtSGEBJDMJJlYa9VWSWbWrDUrICG5Pq41aB9qrUUgIRBykHAkmcwBIlpbBXKsWbNmQOxuVQS1Wk0CtW+QhxS1IiGk+97tlplZs9ZMJoC1CmTegrZ7bwhZsxJSqwKTScI/oJUk8+ChbXc9ipDHhMNWLcm1ZtZMElCQkICARw+PKuafJDMjqFV5SyaZZM211nVdK+C+91aSySQhEEHbqvTe9967u9qHj1qtiFSTTDIJGmbyaKsErAKZIxNQksnHda2gtkW0u62FhJCEhEAeM5mZpLXWR1EJyazHRGtrUSAg1MpD7W6bhCQo1JoQjn3vu7uSTCaZRxJs5Zg1kxlQu7vJMWsC2KqEmQzhEOSLmmMyEw6P2vqNkDmCWKuYmbXmyEwi9LBIEo62uyKC5F/lAOujqGhm8pjHutZo+/p83RuZWSu8idpD0b23B28eYPfeiggeyZpH5JgcpFZnJh4UkowcCmvmuq6J1FoIdu/uVnKQhAQwx6x5hL13d7eCokKyZl3XtehDRUISEmpVFG23zSSEQ6xmBsR933erhoDOseaoBZJZM0mg0iNMJitRWgskmQnhEEUIIEwmDxDxaBEfhMxaEypWCck8MrMmAffr3ruVmQmh7S5vgfx1AuzuciQZFPKNkAxp9973vXcrM0MSQrTd9703hxryIFIftR4oSMisOUIO5AgJycxEW1vlEEIya81aK1jbvXlYrUKGCCHxAcyatWYytXu/7grmEMi1Zq1r7N49mBwkZNBWrUf3tvmCCphkwtG9Ww8OK0Jm1gAJmckMAVsVSEISu9sqmVmZCeEhiITDEPIABK0VEiZfZkJ3qyYzk8nkmAzu3dfrvjXJmgnQ7pZACORfJuDeu4RMZlAkkEnkELu7u7v3bklCQkK03vu+yyMkMwlBqiiH1ANyzCNhkqBAMm9Jag+r0FaSrOtaayaxdu+tiKIcGR5J0FZr1sysmRF733cFZiZAsmZlJnX3kFmTgxxqrfXYe9uQh9YmYTIJYFsVQdtaJXNkkjBJBmK7KyEzGY69dy3MQRL+EAgPBUImAUStNTOZNWvIhMR9oJlHEnJM9L736/W6yyTXWiPUVhISIH85BFoNQfGBymSSgEdta93dJRCCByTVihwmmbgtYjKZTLTWSjL5A4FAMo+VcLRahITX63VvZX389rHWzADuttu2KkIgmUwm0drdCmTWLMG2kC+TL6AgHplHZhAC2lZg77YQAu1uyTGTALYV8LFrRUOy1iQCebP3vhWu6+NaAawiiH8gkDmSYFsgmTUj2tYis2bNmpnMgNruikAS8pjMYNvX6/O1K3x8/DYEFPPgyD9LEIQk2r3VAmEymQTwqEfdLUgCqCRBfENJJhwiJiQTra2aBBKSgCIkmVlrTVBrBZJJ7vu1d0s+rmtWJiH22O2uFQjkmEwSjx4CcwQECUkgbzwUQkAeySSBcGgl2L0rJIQ+CJkMoLZyiI/yLZkEMWQI9gFc67qGw4NDW2utkMzMmiRE5cjMBLTWInOsmclkENvuipCEkG943EcrfHx8DCBHZhKO/NPEmseMve+71WSOZDKTEKyK2lolmSAyiXi02sJk1rUWWHcV8FErBAgBrK0Kmeu61ni0hUwyE2utJhkSEkLrbndbG0hCSAgBRGuSmWSikgcECIjKkUwSoN1bQjIDIgQIe+82b2OthBzY1ioQ3iQPDkWOHCKCIWQmeGB5q1VbC3NkJo+Z8DYEEL/kmCMHR7v3RpmZJEACiGhbhXCtKx5AZq3hMH8BrQkza8BaFcJbyDHhT0Q0Dw6x3zzCzKzrWgRsy2G/QHiz1drWCpl1TUAQSEJACyFzKD7avVXkCAEEIZMhPMxkEoIHDyEkgKgJCQG/IBASvijaVjN58AiEgFarIo+EJBNAVI5kVjx4TBJAK38iHj0kGULeJkExB8Tu3ceseQsEwVoJ5CCPAb8ASWZyrRUrAjlEyF9Aa8LMWhMCvtUDMZnJF5JAkBAYYru7771tCyRrZh3JoBVC2727lRDU7l3tm+JkJQSGhACiNZlZs2asfex9b8k3gvXBrDVJCGEy4eE3ijk4BJMgaCtJQBBIAmptPZhM/oRvSq1WDWRmcoBvhGTWGq08VkawViA8QlD7gIAQ8mZFMiG47/tu917rmjWTCCgiZBIIJJkZsD4yx1qz1pqoKIgPyD9PAoFMJgnah5qDIwmBIIgQIGDA2u7u1ppjHpkhQSskWtvd7QPFt3bvesxMEsIkIYAg5pgcIIK2lTep9oBk1rVWeMhkhkMrb4o8AiGCtopkrQlgSCBq66PVJDNrJgEUMBCs3feuhFmzEqBuAyHJTBJABEIORFoRAuHQevAmkBAUSCDY7rY6Rx6Q2hZhrTVJCJAEEI9ZM7PmkRDEo4qG/IskBEwmidC9W6tJQEhCDhGVJCD1DW2tlclkJhOSAFpJeNi9d7sFBLR2791iZyaTYxICyCMk4Q+BoMihtrsPMjPXuiYg1WSGwwOSIFQF8kBt1SQzs4g4MyHRtiJtNWRmrQS0FUkmofZ137uEWbMS0LZD/j7wgZkMAXYr3wL4QDlUSAghhHDU1urM5MFhd6tyrWuOoAIhBGQmE/JlZqQ+SEjyV6IizCQgrbXWvklmZq01QRBmJrZ733s7AUSFmcnkIIAoEsgk9t49IIltd3e7u7XOt0w4FCFvRCsICDkgiO1uVZLJWitBe5CDgEgOjrYKZGZQUVizAiiyrrWSaK2EeuRtQLv3LjK51qC973tvIDNDCCr5QkIOsFaFhCR4IHgkIL5xWDWTORJCiNqHM2smA2qtrbrWrFkTrQqZmRwc3bsmmeu6oJVkrrXW5F/b3apMEhAEUXdbq8lkXWtCtDWZtHvv+77J5ACBTL4QrO1umcxa18TdbUsm6R9stRJCQsJDBBJyoDY8hJCQgFiVI4RJAlQrCUl4SwiH1ipMwpfMrBXxgFkzCWiVQ4EcgNbulmPWJOredysyk4RDmLxxhEMpfwggImotD5FHAhYJISQkM4O1VmfWZBIQRauQx4QvyUxCELXbEmZdaxIIyZrJ5N903/ftERKOzCQgVbE81loT0t57K7Td+763M5mZBCQkJCGh+z5e22utj4/fPha2tskktlbFR+3DA+RLAPNADSEBxDABeeQggoggj5BMCEcIyMO2CoYcc6wFIgqBELTKtxygtqLySDjs4cFkQgBJJg9QrApk1oAHKqDY3aocSchkJaJiuwvJrGuNVoHMypDHcAjaqpDMrMzkgCrKm5qsWde1FiIK+bfdR7slyUwGQkAO7ZtrrUmie7fVHvu+t5nMmokHCTkmE7V739ska66ZAB6ACGIIaLuPtsoXEVESEsJkAvhgJuFLDqy1QpLJA3KAiLyFRERUhDCZNVFE5EgCKggJ4VDbKpA3AohVa0kICZhkEsAHkEwS3oQgImq7u6smzGSSCYqIVklYs6LlSDJJmKyZ8KZtFZgjkwCi5o1gkbDWtRZI3ZJ/193uoyRr1hqUtyS2+9FZM0m0x253be+9SbJmTdoKCUlmzZDI3hUlIZnhsLZAJGQCtfe+965KOMRvkGQyR5DaNjOTg0cSu/duNbNmZk0COVA8QEK+oLRVCDMTFeQtGRBRcoxQe1iTSWYmBFBEawFDCISZgFZrMjNrFlbBJEQQtd3dbUmYzISAR0BECJlAJYR8m7VWEkBptwrJZJIgimTNTCZYH5lrTSLtrvn33bt739tk3lCBPOixWzNB231Yu/euwDwC9ECEJGsmGbAKyDGzMgntbm09CKBtd81BOORh68GsWZmgbXd35shkeNN9710lszKPfCMB0fogM5PD3VYxExBCvkygu4qTyZBYa5VkckzCoQioIPJImASsB4TJzERRhMAkoPXgIXggqAjIEQLBAwiZvM1acwRqd3d9gDOZPCCZIwlYUZhkZrDV/If7vl/3636VMDMZFDBvPhAS99733vdWe993m2TWNQHdu7ViSCaTSaIIiGRmzYG73yyKohYyCchbgrVWstbKBHd39y7zyISAtt17K2Qmk2Qy+TITDltbSSYziW2tQgAhmWSSTLS7KpPMJEHxIG9MAqgcERAFTAhvKgTyBSIgQhJABZOAR2v9AhoIIeBRgSQzmWSy1ppD2973bm0VZ82RScJkTRIiahVhrRlR8p9/ff789fnz189XbTKZGEQgmSSTSQK9X/e9d7e2r/t1byHXWgl2v+7tQQ7yxiEikFlrZhKtb7XuqhzhUFSOQIDakrXmiPvobjKZJIRoD6uQhASSTELCrElCfCBHmEB98KaSTJIJohaRhAxJJoMKQpIJiVYI4aEGwqHylgw5gLwN2HoQvkhEVGytVtE8OKytQpJZazLHWjOT2L33fd/7EMi1rjV5kKyZECLYXVtdRyDkv/76+ePH75+/ft71qJrggZBZ8wjQ+37tWmt7v1733ZaZSdDX6/O2QiZfJoEgIklmTRKoBx7YqsjDA0X+jhVmMmtid3e7k8nkQWx3rQqEECCTEEhmEkggJFiVLyHh8IAkJCCK/H2ZNYAgJJOQiAbCmzwiUiUkk5kkRI6QTGyrVcJbOAQCrVUQ5SGIDyRkzZrMkZlJorb3vR8KWUce5JhBBNS+OUdCyP/49eNv//b/vj5fW9n78/NlEq3umnWtmUlQ974raO19f97HLiTEvj4/X+0OM5lJ1hwQBIEkkxBpPfjmP8ChiAhB5MisCX3bOWYmE7Dtri0IBEIOgpCEQCazJkN7t7aZbyIqXwTEAAl+Y80K3yYTQgiE/49HazLHWpMEVMSQ2FZb5AgkARImqVUSRG2tGAIikDkyk4RJSIjsvbu7qzizMkkIIYm2gqi7rSSEkPyvz58/fv/9ddz3/fr8+evnrq31YH389nFdM2Pt3ruEoO5936/X56tCJvD6fL3aCgkha82MyFtCCARta5UkEPEARQR55ADUijJHwN73bYFZMwRraxWEcITJwZeQZI4A7W61mZl1jKCiIAjIl/DQwpoVEh45CEnAoyKZhBDAWshk1kwgiDx8UGtrNZkkhEAmg/KwtlYJIYAHkGNmkhBQAtQqiphJSCBAAq0KHvXgmEzI/3m9fv769Xrdr89fn79+/vj999d977YKXL/92W8fH2ut3d29t5lJwN39uj8/XxuZWeF+fd49RBDWWoPKIwFUgrbaShICiBwSkCNhDqS2FclMDn19vvZWZq3hsD5AjoCQyQERSDKzZhB7qM1k1rrWkigeiHyRI5BANWsmD4SEEEJgt7u1mZkcMwltJckcAUEI1F1Fqu2umUlIAklmCI/a7lqTTAj4QAjJZBLQyhcJgSABASM5rAf4BcFkJsn/3vfn63Ufr8/PXz9//Pjx+brvba0618f18fGx1v167e4m17o47mMfJFlrhvt+7d3DepBZwXpwaPcuQgh4VCDhDwkhhMkcsQ9lJiFg3a/XZ1sy11qAWgV5C9omJJNEYDKzDkC7FQ1kHpkBsWqAhD+EAGrWJIGoTA7Qtvveu7UkmZk115rRCmHWmoC2CnTvXYFM6q4kAUPIZJIAPlrlCDlAKkpIMgniESBIyBeP3W0DMxNABPzGMQnJ/+x+ve79uO/Pnz9+//Hr9fnq2y4zc10fa/Z9bzWz1gqwH7ZZx6zkvu+9u1utBwlav7X3vhvyBtJWQjjkyBfyzWqVzBpA2+77vrc1mQkgKn8IQcuRhACZYx0EtCqCSWayZoJfCCEEiBwBrMkkhCgkE4Lt7r3vViVkZs261hofQGaSoK0K7W6RHLaVJAIhk8mEoPULCiSTIB68hRCQh7wlk8xE7d67JWQm/EFQkBAg5L+7f32+/HJ//v77j1+/Pl93d/d974qz1hpU8iDhrbZ7Pj6uNRP2vvdRBY/W+m1377u7zgyBcIjyEA8gySRgMZLwNplRtLXttq3VooSEb8nkIfiAMMeaNTMJ+AVxMjNrFloU5BESohiQWgPJJAFykFDb3W2BkMysyZqJ33gkIIrKIVKrFZJASCZZE4haD2pbgZkFyEOrCJOExKMck5nMJFJ3Wx6JCOEt5DGokP/mft03Ccj9+v3Hz1+fn5/73nvf+25VQB7JhCSTIYA413XNJHZ373t3WzG2u4pU7/3aW81aK+EIJATRHhZIQpCqkRBAciBqreKjVjAPUCCZTAgeKIiZzMyamQTwUUjIZA7wjYcUQkgC6G4FJjOTEEVCeBOS8MhjJeKfBAiHFiEEundbhRDIrJlZE1DbCuIDSQjyiIoISSDYA0xmJpMJUWtFCCKPTGaS4VGL+S+625kJcL9+//33z9dx3/fe+652731vEDJ5zForIcxjzQS07n3ve+9dEtpdAWvv+3UXMtd1TQKEzEwi7X3fthKCeFTCETwgQNTWEAgqhrx5gMmaRKkVArUkmWPlEB9NJiFfAGsloW4FZq0F2u4tITOzkqF7K2TWPDKTwXrAZHj4qEVDAn7JzLDvfVSBwKxrrTUzUttdOQJBsYJAEuQRQEC7d9FkZpLJJBGPCkQRZNZ1zUzSh5X8DQjr41qB7s/P1+vz9fp8fd6vfd8maFuVHKi8STJfkqD2vu+92yaDrYZD7/3aW5h1XQkhjxnUPhQVtdQqRwjyCIgPkoCICBICCEImxC+ZySgS8gdEhMxMkBAetjWHj2rWmskQqwghyYTutuqsa61Zs5LgA5g14xuKth54lCMzye5+KBKYudZaM2Pt7m6RZAIoajDJhDc5DEfbbStHjlkzCdhdRUWQWeuaI7ZaJf9phsxvH392Jdh97/v1en1+/vp8ve6Xk4BvJIFd2yqSYzKZSSL0vu/uajKhSgjCvvfeStZaCYS8Ya1VQGptraKBhBDerIrkABVExfAmIQS1KDNrTQiHHMnwJcxMovJNt03CobUzs2atGYiiIAFqd6u51rXWmoGg5ci6ZqwV5dhtrRYNhAm03Xu3IoTMumbNjO3eu7vgZAZQkIRkQniIIAm2e/eQI5lZayaDu9taEYSsWWtmYi2K+Y+/XWut3377uJLo7j7uz89fv359/vrcVg4RCFgVIQQkhJkcpPvebTUzAQFB3e2uwEwSgmI4PHYLAdHdYiAhmUwS7JsQSMADFMWDI5kE0Vpl1rrWzCQgakJISMgBrQ3koIdo+DJr1pq1Vg5AxKMeVedYM8HWtslk1rVi6wEBW0UgEVF0790DeSRZs2bWdB/dW0gmATRhZhIQQQiiiHvf992WWWsmc2SSgdpaRRCS+X9MwcGqblu3ZdXa+vj2uY9n2pTpANM+gGBORBElUCM0LiGCiK93z9lr9lYdc63z37CUzGRiLSD5H//4Nef88cevTxJtt7vP77/+/Ou1bQVRIcELgUzAb5PJzIRuW6tghIBYrRUICSAquUC6uyIvbUkmF5NJiO6zrQIBRJSXaBVCXiKtYubz6/OZMxMQL64EEgjYaiCToBUxEpLMmTNXXlyC1hcKmbyg17ZMzpzPGa0oBLyAZDKire22VhGRQDKZOft6ds01IYIzmUxA5VvEq3Z3n0XmfD4zySTkhVitigoTzsykF5f5Pz4nmV9//PFJ0Lb7PM9ff16/f/9eX7W2JhOQVjMzkbq7ycw5nxOvbrvP83Dl8oUSEgG1XOecBOizu60SLjOZTF682mefekG8kCsBYlvIRL55lcycX3/8+jVnwkupLYRvIiohF1fIhVzJmXMIl4D8UEQghHBJtbtLMvP5fAYEkYAISWbOIG13qyh4FVEx17b7fD27M5MhBJiZhEtJAojWdvvy/MgICYQAwWqt1TLJOWem+1Su/McJyZyZJLjd53m+vn7//vq9+7S1amsF8lLMTLDaSmbmnImvtvt8bSskQRFERIXJt8mFtNtuW+VyZjIhERHtdqtCggqEl1dbmLy4RJ3rfM7nzBxeCcELVIQQIGG4tEISfiRzJgmRl4AgKHLJK4RAlZBrAPNCQQi5Zki0WyGCePWyLVe13d0GEhIIuXipBMLlj3bbmTPnnATIRSAkbe0l14SZSdoVQvJ/EsBKMvjsPl/P8+xu0d2uRetVyZlDQhK0FUgykwlotd199lKSAALa1pr5nHNmRgTRart9ScjMhMuqaG29SAYEBlB7uUImMxOQ15w5k8lkJmLmSoLaWpnMZPIC7e6WEH6YzJVJCIIUefkNFZLMmUkIQWpVZs6MF1e4QjITrCYjiOA++6oX4FW1hBAChgBqQZIQMYH2eTbJnDmJYWYSCCFut62dvEgIVvPtn8Nlq9Vee9VXu8/X0wJJ2G6d5FwzA7utmjlnLtDt17PP7lovJCQkEC7zAiGAWF/4DYGEl99qvYCQEOSy22IJBIgKAufMnExCSKItzMyZM4CoIZzXZKK1Tysv7XaZmfP5nCHgN5zJiCD+ACYTElCqgslMEDPhkisvwjcviPt8bV8gKvIP4VsugqK8QvjRbjeEy2+lFTUAACAASURBVItzPmcmQeklii+cOWd4BZL/nVzbdp/dqtunEqh9fn/9roYzh92tk5xfn1+ThN0WnTnXJOI+X19fz+5atUomIeRvgFobAlpUCIiiQIDg1W1VCAmES7DdLphMgtKtCvl8PmeScAm0NZk5n3OCgIic8+vzOecD2nYroHSffZiZ8+vzmQSsL+bMhABita0mEECRlxDCK5OAokCSmQR/EHj2a3vJpUBICIRvSSbhElG+BURtBewLPZ9fZ2ZA6ytgL2Xm8znhJeR/yZyZ7vX1tVWf51kJaX2+fv9WkslEm3zOfM45IKKZmcwrCdp9vu3z7BbJzFEryGQAvwHSKgmXVpBk8q22++yKTC4QL65aEUjwqloln/M5cwZQUUIyM2cGsFqtnvP59fn1648h1G1BvHqR5LySofWCTM7MCaL94bcq5ppAEFRMQkRFkZyZEV8Q2H26uzWQhARCyDdCrkkAxVov5CUqqFsFZs6Eb/ISfCWZTIIXQv63mXOOdZ+v31/PPvt8fa0kKPvsyiQhiMlnTjIRMWHOnMlMJkHsPrvP7rPPsxWYmXZbhZlJEGtBtECCiAr5V7TdfZ5VmEziVUsAf5AElfot+ZzPmTPgq2SSOXMyCah96cznfH798esko20REV8E5spMaL0gyVxB7GVrpVoVQiYXAVpL+FcqmcsLCQn7elpDfnDFzExeQAj4rfWF/FBUrBCSSQiEK6C1YM45SUBbFfPPM+ecJD5//f7rz79+//X1++uBJBKuzEz8BkxilSuZzJkrmWRS273abrddlST7PFsl55wMoZfKKwQVuSYTIFzd7vPsVpyZ4NoqBLRVmQyvekHm8/nMhd+aZOaceYUEty/nOp/P58wc1Gq5wktMSCbDtiKEkASstVZFUPCFcuaV9NlFICGXSDKDFUIyYZ99aV4kfDMzcyaJ36q2tsolEECl1ZBrQkgyCeGyu1vCfH79mgCurZX8+5k5k8R9vn7//v3X76+vZ80FCCQZEAS52ook8+0kmUyG1u3u1nbbbS0hWgUySQDtpZJrJkQQIYAg8Ox2d1swM2BtrVq1BTKTcKkQZs7nzIVtUSYzcyYZEgJeSDKZzzmTBF+ASC4ICCYRFeVv4RJtqygIRq2eOTMZ3G1VEubyIglXSEKS7W63JQkBvJBkZjKJqLXt1hYmE0AUxIskk8kFk8kkBNh9ngL5fD6JaKsI+bczJxNg2+f56/fX1z4lkyAWQwLhm1dbFXJm5szJNZnQbrvbWrfdbmtCLhIiotjaWshkPmcmBL8VFZHn2e0lmAm+eu1urc0kk0m4hCQzc2bOBLdFM5OZTAIhQAIJCcmZ4fKCBJXMZJLUCyQBXyAYMuHa1noRvtX1zEwmsXWrhsyZo1UgyYQEQlrbrZARsLVoMplcgNp2d6vkfGZCtEVACJPJ5G+TmYRr99kVc+aAPwiQ/3kmiVrrPr+/vnZr5mR81XwjXFqt32Bmzud8Jt+w229ir919ViCTgFi/UavAzJwz52QSrG0VwuU+X7ttRUik2u0PrZBkJiEBQ65J5syA35LJTDK5uJJMJgG01gtCCCHJXEnAiysERBQEEgJaqxQIr6p5TRKhVpAk4BVgJvgC1HpBoqgV8hqS8E3b3Sqc8zknE2tba645k4R8I+EStK2CvEQuQfLfn7l6Wff5er5azZwJKjWZDAmg1ipeMDPn8/k1CfHqtqKg3e6zz1ZNBtS+QFSuyZwzc2YyYF8LgQT3eXafXcVcqN1ubRUVk0wyGXmFvM5MQFSSzGReCZJrziSoz26rkgRIMpnJhADBEJLw8kIhJARr60VICFoRkpkk+AIRESGQpO3WCyLKS1GByclFLsKldss15zNnMlS7204y55yEVwgEkautFV8Qrvgi/82vX59fH2t3++zzPL2SyQVo5srl1dYLCJmT8zmfJLDPrpVMgrrXs6+WBKzdrQ4hXCHXZCYB2q2tCATa7te12s/nnCHadttqRIFkMjNUEZJJZoYAWkMy5/qcCSA658xMktbWWpQfCQEkZ84kkxdBsbZAkjPT3e0FJHMS3bYLk5NJvBCo8jeR3We3qzOToKiokMw5ZyDJzCQDyks0r8kEcXcbmHM+w6VFCJNr2Ofr2bbkRQBpq/lvP5/zGdTuPvt8PXvJFUhIZubkQlBEyWuuzzkzE76+vh4kTOh293l2u31hpLXbykwI4UdISALt9kK+ad39ep5azzUJ2na3Gn6EyZzResFMEsI/JJk558w5ARGY8zlnzsRrW4uGRCAQAplMQjKZJKC1LRBmJt3tbqswZya23V3IZAi2XqhkJoCi3d16zUyCooBcycwkZP4WFJJ4IZBJAF1LyMyJilqvZHI+n3Gf3W1V8hLsZf7dBHm1fZ6vr6/n+Xq6rWLmzLdck28EmUwykzlzPp/P5Pdfvx/CZZ/fX8/z9eyqINba1lYyk/BDAXUmode2kuBVa2vVTpLJkNq9lJAXZGZOrVqYCSpKZjJzZs6cJKAl1/l8Pud8ZtR2W66cCRiSzCT4I3MmM8FtvSAkZLvtbqvOlX5bSILa7rZVyOdzzngBWiUhCYiAmeALSDLXOTMTBDLBqtUkfBMIgehWwe5qJr/++KdfA7XbZ/chmQja1fxH3BaCdffr6/dztVaEfJvJZF6ZyeucM0OYz/l8zmfy159/foVod7/++v376+trFwKh3e5uC+ZFgARfxZlJ+kMIl4Bau20gmQRtd1uFmckkk0z6TQ1/SzIz58y5ZgJoEZhzPudzzgC2ViAzk4t8w3phzhwubRUVuVRqrW0nk4C2VbHfthIy15nEaogUSQgBlYRcXlWT+ZEQEQgICGSCglyi+C2EdgvJrz/++DUDad1nHwl4dav5v7tf+/DS3a9rn1V+KK/MzJkzc+bH59evc4Tz+XzOOeHPf/nzd0i7z9fvv/766/fvr21epPvsPrslLwiQDNbWOnOS2tYiISEJUNunyyshare14pw5cwXobqv1glyTmTnzOT9A1Ipm5pzzOYfEb0hmMjN5gVQUyMyorRegrYoQBG1Lflj72u6ztnJm5nxOErQ1CShXSPDKD1DbmswrIyCKXCEkmQSrXGptRZJMbOX6/PHrc2YStbtbRdttq/l/9/n99VWt3X1+//7atjNzzsxg3d02k3PO58xk5pzPH//0T3/8SjLnnGTsn//yL19Cu/v89deff309X3UyAbrdfZ4tSSYTUQLWWhsC1XLlG6Aodat809qqQL5NEgK9RP5VkpnJnNec8RtCSDKZK5kIcuVvQEJCEkAue4GEaF8KISSouUDc7Wu7uwqZM2fmENAqiXihmYCFkJkk+GoymcwMlyJymb9hL5HLdlWYc04IgZzzOZkEpS+vrvWV/+d5vr6+eu3u1/P799cq8/mcz+ec1O7zPCXMOZ85meucf7r+mHPNJLR//fnXb2t39/n911+/n+cpmQS07T77FMhMQm0AX/VCawmZzAS1VoOoXGJtVyCZhFcggK1IyMUrySQz55y5tIrkggAhkwkQ8jcMkkwmM4n4rReBJLrttoWQl5ALane3rX2hYc7MmQHUagjiVScBFUgmF5dcyeQMISDfhGQIst1VJMTuY4Hz+XzmCpDJJBDRatW2FpH8h+5uX8/19fX1bPWc8zlXQLdbkZnMdZLM5/PHr+vz63xOAn59PV/7PLvPPl9fX89lkxBS7e4+K8IEqyFBVFTqtmYyZ4Y+u93KJBCSoLUXeU3ihVzijyQzkwvymjlnZhIUBZLgNwgJIfM3lNfMmWRABcWqSAjuttsiV0CcK2qf52lBLltJMp/zUWvVJFyKJuDFS3JNElDJzJnMhATCKwG77bMLSUj6PLsm+Xx+feZMgoJc4fKq/wnk3/altttnn31EMq8MP9TWi2RCyPlcf/z69etzPhOwu/v1fD3PPs+zr1YCSbR292ktJPiqWsXwikCumdDn2X0eDclkkoAXSkIIaCGEAL4KM5kr/zCZmSSKF0ziBUImIYQkcwGKZGZ4BZJJ/FYE6bWtF4jXXEG7+2i4olYhOWds65WZCZfIS0RAJZOZZLSSuc5MCKAJQeo+2+2SSYA++2jC53zOOTOTAF6oVZHL7hYL+R+2rVyivcgAARFh5iTd63ksCGTO53x+XZ/PJwHUfn09X8/X87Raq2AuqW1324Xw8vl6nmdbSGZy5nPOQCDY7T5fX7vKnHNCCFcSIP5oMjOZGdFeTiYzcyYzCQlhkqj1YjIoIeTMCUSrmckQaSWJF3NyPp9fidpu/Vu7rRWvtpmZgLYLSUS8EJmk2xbI+XwmXMpLLkFLMpPJeJFMzjmJSG0ubXefp1YyQWx3NWSuc33mc0Dt9TxbQibh+fp6tJh/16q7ffZ5ttXkTCbBC5icyXb3ebYiBDKZnDPn8zmTgO0+z9c+uytQkVeI1qtefBO7vbQiITkzowhqX6sSEr6FhITLFyFzZRK1KubH5OIVMpMJl2IAITO5+JZrzklE25KkVpKcz6/PBGhrra/urn+rmgutVUjCZesrM+N25fp8PgFESAIqAnnNBEQkkDkJVm1nkoh9nqdXciZobc115sw3EkKs7e5qSEK6Wy/yf1Xx6+v5/fX797PVZObMJF6BZCa73X1WgYQg3/KZM5mw17NPq3KJXAHEyv+PIooXvVCYTGqxfsMAAa0IeRFQrM5krgxJrfwIgRCCAklmTibDSxSYCyxI5nwb1NqSoFXgfD5nJtHal2i7FdH6IqBtUZJAQi8rmXParUrO5xMQhEyCiiRzJhdaICC5oK22M5NLn322bebM+INkZs6ZXGhzUfsSCCGIF+afa6S7zz57dbstSYYEJAl0ewlJJolad8tcGXy+fq81ORNqtQiokBcBBESg1gsvFDLBq62KmRAC/sjf1Gp1MpOEAPJNVHLNZBARQ5KZOWcmCAIB2hWY8+ucmQyXV0JAUHPmhMh2u63lFZKA2EtR8Bsvwb8xmb4snDOTSRRzkSHXzBlatWZmQiAg9WonF4HdrTWvWgRyTSYhUOXS1q3mRfgmkH8vgbbba1/PswghQUWwrUCSySRB7bOPgSS4X88COXPG/hBFmHNmJgmES8W2/qgiJqFYtyrJTAiXWoF8o17VySS8JAQCopBkzgTQqsjMOefzmQERUdnWkDOfM7n4puFKCCSZCWC7vVQI+YbodrUYQr1QFFGqQGqrwpmZkxnEEJJMMt/cbbVzzkwCXvVVSchlW6+Q0KqQb4RLawVFrSWTCSEJIZD/NYS0u/bH1tr6qltbq5KZJJMwIaPd7SUvBYGArdvtZWbmfD7nM2cmmQRot7Vq7e7WK0Sll0IyuQCpF68hBFDJBYIQ8iKXSnImoN1WZc75zOfMIKLWVzNXvhERwRdk5nM+c4VLfGFVLCBiba2Sq/gNRdTWIlUkzDlnMpmE8BIymQt2W3XmcybBbrtt1SbkhVUxF60VJ5lBtPZaFZKAkMnkNSeTIfmf5mTSy2qtfe32sq21vkgGRAyZSWov5Qrgq17V1qoz58yZc+acM+fkortVa90++1Tlsta2QphcBP8BISSESxIQgTCZDHmhlckkoPXCmTNXuERqVZw5ZwIJgYhalcx1zkwmQSAQAtW69YXaSyGZqAiKvKy1tlaSzDkzmSSES65MJhOwXuTMSdBuu7u1lkBIIHgRAqKYF4LV1lqEhEAuQkjmleS/+3zOnGoFrbbdfXa323ohWIXY7rY6c2YALwiB2G6764WAkJxzEjJzPudzPjMJvUTb7bPPoyJqu21tvg0B1Io/QkgIEPBbMnPmZEgI6UVeJPwtCeGbXLUKzPmcCZCEIbqtkPmcMwRCQMw1c4i13bZW0d1WYa4iBFDCgLTddlcyP3KhyJXX5CLyyjfU1n3VFuVKZoZWDeQCJVxBRKniBZMEIiIkc06S//rzOeeAXPby2le3RQPBC7Ht1nXmZELQovJS292K8i1kJoFkzpzP58wErA2IdbtbUWt3t60SEhIutUFE5Zu8koDCJHOFQIhVSLjybRIiiG0VCAmBOWcSkZBktK3IzJlwJSGA1ySTSdRaa2t3twpzyd/EmUlAt91dJSSTZALVKplXJiT8QxLwR22t8p+kVjO5BuRHCC+x/oAEwjeFkJD/6nzOOUkI0G4ldLvdrkiYAGqt7do1M5MLX1WEkLpbtSFEyEUgOZnPOZOAIgkE3dZXr93HWgTDK3gRQBBEBWEyQSAwmRAgRJQQRJL5Bvjq7nLNnBnCZAZEIBfWomQmIxCSELptYOacCeDV1+6jhcwJ8kOYOZME2u5uFQyEBKpbycyZmVyEl0CCCIKgaEjwVa0mM7lAEAgJgSjWH1wJhOA3JP9lJpOZyQWigNprRTKTgLa73W7VJERe4RLLmcFuXyFByTdyTWaGyCV5TaL1qr22VdRaFRJAQa6QBBQCIaiIBgiEJICEoCLkNUmUekGSORMCaCAQXr64zpwZiFdIcFttZs7JzHCJ9tm1hVyt8grMnHmhtlsrWpUfrRJyDQlJAOUKVyA/JhDpayuQlyIKIlcS4t8AQwgJSfBVyX+RzGQuXiEkgFirMDmZELvb3W6rCQFBQETkzGBbW0mkLQmTTF6ThCt8S2YSwG+1tb76w1xcKiTMZEAgAaL1qiCBvEQwIiiQayYR5W+ZzCREJZci8q/OXCTWhpDW2pJkkklISHDbWoHYFki4ZjIvrtaquK3yClYNvoDMmQkiL3llrjNn8Gq7bU1IAP+hCrkmiIgCImSSSYL4Iv/ZzK/zSUJbmdcZfoiQmTMXtnZ3u5W8iN22a0MgoKK87PNsxZlzJpNMrgkh2MJkXiAiVtvty92VTBJiNZnMnEEghBBrayuvkBC0XgiEkMzkAgUCKrnOmSGQhLYCycygMEkIqLwU/4bWZDIX/gPaSmaCQMgLEBTEdoEAwQvi/v76jcz59etzEhCttZo5n885c+y2tRVDIIho63bbzLcEScCr3XLmzCRBgUD+88xMELerk2Qm4W8hyVznpLbdrmIyBGJtu9taCSFcgrTPswXO5zOHkIsQCCCQTGYOQdS2225rVUwyRMRCfqDINRlEbeXKi4AXiiKYzAwEFQgvMTnnTBJA2prMnDmDCiEErFx5td1eKslMziSIFLmq8koIP0RFvBBzcUWRQHcfhcyVCYi1tjJzPudzjt122yIhfJPYa1vnOnMyXL6qbcnF32ZOkn8DarvtrgIh/Agkk2vOmbHbF5NrAIXQ7u7X89WQzEyiqO3z1Ek+n88ZkBARCWRCQiaZJFi3z/O0tYpnZk4G2oq8Ir6KeGYmAWshTC5CeAm9tMnMCIoI5NLC+ZxJgtW2nNfnHK18C9ZCknM+2X12n2ch18kkE4gUcql9ZWa4tForaqszmZkE+VvCpbWtnkkAX21J5pzP51C7z26B8C1AtK3XXOd8JiHdXasiWl+FzOfzmcm/wUhbayUEY3dXkWQISWZwq8jMBC8kZwZsn+drwXmBtrWtuc7MhEB4CQmTCZBrAGl3n+epgEoyk0mwAiKIisg1M7m0W5JAAMk3gm1VIEAgIXzTVicT+RHInPmGcoUACiSZOalttzXkGwQBMSRBtJWArS/CS3fbSeZ8zgCiyCVYa6tnJi+vtobJXEBtLRC+hSRoX2bmzOdMkH32UcLM0NbWkuRzzkz+P67gJnfX9l3X8X6c1zPG1E0UsCKiRMxEokB8NGD1QAOUFBAVChL9Yb6/+zx21/2M97+EbfsPRFTkH8R9fnZVkvAV2C5mMlcvhfmcTwI+z7No5syA9hLJRQgQAoQr1yQRkgyI7e4+jySgXLmIfHmh8gpJZhKiuyXh8pWZyavWF1dIJkNA1NYKeMEkk8lkMpnwFQh/C8lMAF8IAaJ4gbkmBKl47bbFMDMQfZ425JxfnwNYX4hiba3MnMwkqLVKgBACIq8Qrlyg220zZ845E+0+u5LknA/dtdUkM2cm+VfttiSZc8Cq2MsqEPCru6tDJoO1EuacE0DbAslMAl7IZahVuZJAIIQkJOQPqG13IQmEbhVDEi4v1JBkZjJJALUFROuVTBKCrRfM62QI+KqitFYlL/KazBkuIYCAIGQyM7nAWhVFtwtMPp/PgYDotrUqSeaQ6O4WOJ/PZ1DbVVGpV0UmM7nEF1Z7JZlcBEISIBf925zPnJmkta3kD7athDln8vXvd3ebmTmfT6hFtPUPRPH17FPBXIqG5MyAf5BrJgmRS5HQLxVCEnIREgKBzBCvtpCEwO5aJZMB/EKSyVy5iOCFaFuvzCQEWquSc86cMwlq1wsSuq0aknAlmcwMBAWDfAm5JskkUVv/6G7JzPn8+hzCV2u9wJAEsc8+TXLO5zOo7SoIYr2AmQyJV8VXu938GySZIYQQd7e1nisJthXJTAJ4kZlzDQL5d9vamTPnnAmC0G6L1FYkEJ/n2W0lCYQQmIC1tmQyM5lkEiJVkvSPrUomk5l8ga/JSRCtvAJ0Wy2ZGUBbIddkJheBACpguy2acw6g1moz55ozAdvdWnJm0q7WvBCYfEHwFQiQEBJQyUy4tGq/5lyfzzlcARREvrTd7nP1zJzzOSeGboUQklrlOjMB7G5VRG03EDAkmTkzISDd52mVM2fQtltIZs6MSML5fH59zpxYNf+OAslkMqBy+QrxAkKgz/Ozz25F8gchUOtFvsiLS5FMFLW1iiGTeSWAV16Itsgr2FZLzgxgWyXkjwkhEFFBbStw5hzQ4oUhmWQmGahtlUwiWksgCJn8AVgrgUkmF4FWSUIAQbS7e87n8zmfM8gfBuRL67a77Tr5QuXKC4JfwMxw2VYR8QvUVkjmfGaCbLe1ArnwCy+SM3POnMmc8/mcEKw1/zaZDF/iVoEQkknAvJD+PD/PPs/WmmTyImhFroD8Tf7IRQhirQqZ65wJl0L4ctvKlURrlcwcwF7yFTJJCARR8VVIMmcGX1xBrCGZORmgl0AuW0W+JpMvSC+BzCsXsa1cgYQkxO6z87nOOaPytyAvrW6r8mW7vTznTCbhEl+QCZcXl1i5vHafNuSczxnU5+enJJPLegHJtFsyc37//v1rzsyZiVe98u8VCEhtbat4kXPOJCEhiN12bQUBUZgMIggJdrdFCOFLhADRCkkmc2YmIXhxBfR5HknmXNa2CgmXrUUkZDKThHCJILVCmDMBL14R5DWZBNJuVZIZbHnNJEC4QiJ/CIQrXJrMTCaZM69gm8xMLuTLq7sq2rWt5ELsJTBXQKrIJSEgIghq1YBXLxPO+ZwAWiHhsvUiyUwgmTPnmhAEu1Wu/CsRRNvt17Yq+XzOIYSEAFoRA/HVbWaGcMmV3ed5quQl4AsMSTXJZDKTDOESCULs8zwwcz6/PqfabhV5qfUCknkl4SVfWhFmElD5Cl8SkhDSl+KcQUsgcyaKImRCEsAvFEIIM58zZ2bOOXPOTHglXOEP2+7zPK3SP0wyI2gVQi4Q1yJfISB/KLZqQFGrSWbOCVdIJpHWVg1JZs7MmXNmklBbe20bEvIfJiSttdf2eX7+ekhmPp9DWzOZkHgRIIGg2yWTF1qv3WdXYBIuuXwRCIQQCF9CZoaXYtvMzLlia1uLAl4V5JqZM7mQf0OQr4AiV0IIr5AQgm29SAaEhMmlVjGTSQj1QlEyyWTOnHNm5sxM5krCZBJCQkC7z9e2+Gq3kAwJghC8Ami1eJFkkkl4idUCQahKXhNEZiaTYFvFZMh1vmYC+OzT1VqBkPxHk2u329fu/jw/T3LmzByffWBmcoEhISFi211mJhe1rbbb8qUIJLEqgUkIiIgIJGcOL5UrM5mE+A8oXlVBrsnMkAQMSfhDFAh/MwTCK4QQwFoUkoBAEl4BxFwEUJkExZBkMv+QmWTyNZlJwmQCts/Pz/Ps0yoC290CSYYQXlpI0LZra2FeZyYEAvXij1oNIQkKmcwVtQhMQsI5c64MZp9nt1JEufIfzyQ8z7PPdrvd7po5MyF9ngcmM5OE/A26u90t58wk0G5RVAT2EshMcDWQmSGiVblynQwEEWaSAWwNBAhCrW2VLxMmJECYKwQUq5DJS3mJGELCl1WukCACQWXmk5EvUULO+XzAVyEhhMnMZDKEhGQyk2TOTLT7/Dw/u2tBQvZVJZNMJhBUMkO7u89uWz1zXjPJJINVEYLtVjEXiAlzzpkQL8gQcs2cayB9dlsusVXzzwHdZ5/tvyFJRnFbSTJJZiYJEe1ud7fMHAL2UgEJsLttBYJWQ3LOyQCiKIRkJlwqzEy4rCZDCAR8tZWXEAKBXDNnCOKrAnkRXmq9YDKTy65AkkmULwtzZkBJ+Ic5n5MAVkUEkslMJgkhQMg1cxJr93l2txZEUCtKXpMg8prgdq9eMnPmcz4zkwmxu1WcSazVyhWSEOacM0lotyKZM8Nkzkwg3d36ByLmv9Ta7lVbta0i+AdXwuScM1yt/douSUDtpXIFQrft1qu2kmTO5zOTAMELSDIDUpWZCSLKZBJCyIjaVnmFP0wymTMD+Ec1QoYkg9g/JOecOXPaLZC5wPISmEmoZjIhouacuRKv1ormmskMSRAUSDITtNf2UhE1IXyFJMQrEBLsbru1hZk553POzATo/jxb8XzOgNpqJXOR5MyZSbLPs+2Sz+cz+Rtgd/vyCoH8N+DVdvu37dZXfWFIZs58TiK+INLWat2226qIKIL42t3uajLz+ZyZBLUEyDUZiC+SEC4lCQGSCZdt5cqLpC1C5gLE+iKQZJIMiLXutpkz5/PrY1cJSaAthFyAKJ7zOQn4PGuScz7nZEIvFQgzmYSgIhjCpajdepEEIQStEsJlNX9A7cuLSeacMzMJ0OfneYp+Pr/OANoKZM4MIWdmkkm3WyvnnFxAINjXdq0KmP+OV7W2292nu1uvVqtCmDPnCohKZki1e3X/UOSyNQkg7e4+WyH5fM6ZCbYmEybJJCAqJoRLhYSvmZBIVSCTyWtbLzIJLwvKK5lMLkTE7SrJfM4HFUIA24ZMcY/qRAAAHHNJREFULmwVM5/PJwk+z1PgnM/nM2fSrsorySQQUBEDWEW8imAAYTLRVggvxRBygfZaK0lmzplcSPd5VuV8PicJVAmZOWfAzCsTr1ZJJhAQkmDttW1VJP+tXFqvPj8/P9tdXtZeCJxz5swEFWQmSaXPPrvdfX6eR00mY9sEEFC7V7eccz7nnEGdM5lcE9qtEJJAta2ZgJjJlyAhk5mE4B98yRVeIiRhQggQQNzdFkgmF4Fw5YXYC0MyX/FCMiczSaxAQgIEMglBKwRq1UqAaJ/dqp9fv85QEfJFUoUkiNvdfXY7k3POTABfFblCCC/nOteozJx5QagXQUUgcyb+0W6LYP4r5W/BfX5+np+fp1xC20XIzMmFL3SuAN1nn91nu1swhNgWRCSZ2NfWOTNnMiCTydckvRRCIta2TiaCvJIQkkxefCX8IYghBPAPnEzODLkEd5+tNjOTEJBXJhleFiGQa4IomswXVgnJTOTKJIBVklDrBQG13V3Fz6/P5wARQxICXiRB3e3us+3JzJkJatUkBFCBkJA5c+bMicqcM5kMIIoBFBEyCfKyuxUk/4UXM5kLdvdf/q//+1+2xUzYroS8vGq1dc45k8TdfX5+dklIon1ZvyDnnAR8JSHyFQgkMxO0KnKJVp1JAtYWyHVm5iC+OHMmX6ACIYC2u9vOnPP59Zkhkdptq5AZAlgVk8zJzCT8v4zWWpuZOefzSXcVMueMCEnwCzKTWv5m92nlSs6cMzMJioCICCReu91WmcxMgtvWMnMmkFrI5DVzzmQmxcw5E4JWICQhiC+EkNc+XRHynysycyaJ7j4/f/31s1UBu+UKiW1tLRAmAeK227UJIWAva1sJM+ecBGiVSzEkJOHKzIhfXNYqcGaCVGuSyR+jaJUzZzK5AAkhiKLdbZOc8/k1Q1JtLVdCAuILcs3kRSCASCCVXpCZOZN2qzCfz5kkk0lAREJoV7kStluR18ycmUnUtiqQhCSAbGsVCAkB8SLJ5LIVkszkzJwQEHPmTEStvGoRkxD+IWHbipB/lmvmDGCf3Wefp1WrteUKxG631mSCYtVWuZKAqNVqtzKZc+YkQNciWsxrEpRMRkSRq90KyTkTpGLnSiBcviozZzKTQCAkgSqXvcCc85kJaatCJgNBvBByTcIrhCSieSHtLpJMhra2Mr8+n3PNTCZBkMvtWjRXLwHRzFdS292Wa2YyIVz1FZFXQogIkslMq0Iyc+aKqJg5JwFbleizWyVz5hBA5arKK/+swlxA293nebZVBG0hJJNYrZWQvvayzWQyM2mttYDtasLMHBC7FREMk4SAhYRwhXB1uyo558xkgjUkIYSXV3XOXAloLhKpTSaotZJMCCgi5EL+fwKiQJKZSSYXqNtyTS6xlzlzPp/POTMZEi9eFgWxttUQxHxNUqsV+f8SeYX8DWhrESbDFZLMTCaJ17acM585M7a1ar0gyeTC1lcyyeT6z9Rw5gSou/vs83hx2RbIZCaAVrnabp/n2bYznzkzQ7u2lkBbBZOMor1ArmQygG5rCPkbpC8L58yZcxKRK4QQEK96ZjITQHMBXp0zh4htBQRE/gigEpIQQEGsgpmZM5MJAfFFXpMA9srMnM/nnEkC+ArhK2i/JCFcERKocoVAtVYFc5FArpkEtJcKmUnI34YEUJ99mHPO57J120qAECAhtNZK5syV5D+RzHzOZyLt7rPPs3KpfXaBycyEoFZClPbZqzvzOWcS+mUhYlVUEF8t8spcavd5tsAkk0wmCdZqPWdmMkkIIRASEFF0kknCZS6tgud8ThLUav1CJFxiK5m8QEW0CslcAXwlhCTzRwCrZGbOzCQD1heZECAJai/JJIQo1iomMxmC7T7PboFzzkz4ymSgagXMNSFfBFBePvuYzOf8+nxEd1eTTCaIIviFySSTkP9Uk3w+vyahPrvP7sqldHdt5UoyASFg3e5uqzOfc86cqLWVl3jVVkXFCxFydbsvEkK+Zs4BqVcmXCGvCSEJERHMNQmgDZeV63w+Z0JQ8R+QP6TdQl4DovVFMpkkeCEECMzrnJkQLzKvTAigVsnFV1C8ICEJCdptkUxmcml3n2cVzjmTiFcmo21VJvM6ivkiWORqK2HmnEHcrkzmCra21SqQzCQE8s9byecaovtqixKw7T4/z7MtZ86cTAD77D67lWTO9evzOUmsVa6AvXar8lKxFtHnebrVzBwRSPLr80kAL9BWTZgzE3JNRCQkmQnRblFAgZzP5zOBCATwhXwp3aflmkwAe4GZcxLQ1jCJiJrJnFdmQE0mM5lACFiVJOKFCCEJV8hk4j5bCLlmMl7dbZGZE9TaJhO3z6I553Od013NdSagIhBAIcSrFs68ot3dZ7ctJDlzBoT81/s8z86Zc4XtZS8bQN392We3JWSuJOzzsxXmnDOTmd+/f39mBlsxqO1e3Sp/CHa73WfbSgiIcgUmAxL+QQIyk6ByTSbhlS+oVgV5TSaTCyIKSEIQqdpWhBACeCFMZpIQYK5YX0kmMwniRWYmQ7hCsNVcgL0EZs5ERZ2LWpUkk0yCVatiJtFaW5KoVUwyk5lBSWYmEyJJJgS1cnV325JzPrnA2lYxyWQm9Nmaf/389ddfP4Q5n1+TaqXdbTGK3X32qpqcOcPwPD/rzDm/Pr8Sc37/0+9f5wxaMdTu7vNsWwXkq91nfy4kMxO7i1wBQRQChGQyIEmgrcqcM0ENuQaUqvxhgEwmgLUYmEzAq/WFXCYEkdfkmsxM5pxPYteLXCT2sjpnTviSEK0wCdB2C3LOJ7FqO3MG8MVMvuqFIIRgLyqES5CXBBJmzjkDgTBzzgDaKvo8z3YbPp/PhAREJGQykwSfn7/a/Pf7/DyPSs4E0Wpf1na716OSZM6cg7q7cj5nroTM59evMzNQrUjQbru7tloraHf3569/+QlMJrFdBHJNBtvu82wmM58zAyQhXGpCtO1kMhm0JQl/yzUzibXd1mpeXK3WipAQLpV5ZULIOZ9zJd3WShJCqG23nXMOL5EQrlzU8rfwUoRkJtoWzQu0rRIymRDdVq4kaEXCRGuTzPn8mqlVyXzmoIhud7tVSc41kyCikGRmEqCt5n9on31USEBprVat3e12WyAkk5lRu7vlzMnkNfP5fE5mpJc1l7Xdrq+u1V67z89fP1xBbAtJIHNJu/s8m2HOOTMkIS/Q4tVrJpMZbDuZBBHMzJkrvXa7rU1IAlRbq0BeRJBzzkzC5fl8zjkTdru1ZDLJ0HZ32/l8DiAKCfka0hYSUBEJIQkZ6FYwEK1t1ZDMDKBdzTWJbsuVRLfN5JzP56Ttts2cGVSC1loEMpk5MwOI1ZA/ILzyP7W7BULAai8VE7StCAFbkZfPz1+7wPztfH79/iSh3W23mWBfNhfW7qvd7m5fu1t1ciYIJKIiJCHkDxKCtPbyIq9JvDIBtWrOV8Zeu1YlkADVVquSZK68zpxB8ZrPmQuen91tM+eaw+6z23o+vz6IKGSSTDKTIL52n5JkzplAIGCFgNdeCCRBQHwxV4jdLS9fdebMOSfR7rMLM1EkyZwzyB8JmQSi7RouIS9C8r/ZbhGEutvtVhKSEEAU6e5W+XqeZxeYzzln5pzP59cB7O622yS43drOhdq9em3bbXf3adVkEpQvJSFfhEuuELTXViCZJASqyYDU2szrZJS264sAQaqtF5DMzDmTyYTBL8hMksHn2a3NnHNmJntZOZ/PISCS12TOzAnSdnefZ+c6n3MirwAhRLT7PIvCBFQUBGYyCWx3a18qnHM+Mwfs7s+zZmbChEnmzMg1IQQQiNRKsNZMkgnJ/6m1rVW7z7VPk5kJmTMn2tbd5/mp4WvbmuR8fn3OmXPOfKbavXqF4O72mjkTbe22tt12293tWoQgariEhGQySbCtaC762prrTBK82kkCaFsCmUkgtn4RLqXVVvLHmc+Zk5mqVYEAgcjuVs3MnCTYFcicM5nwFZgzZz7njNp9np99ds+Z8/mcE+U1mUkIaPd5tq3JgF9ASDLJxG73+dqa5HPNDO7u8/Ozzpz5nHMmkwBics4EsFUCIoR2u5lMZkL+j/Z5nl6g+/PztDrnSnLmM7Hd59p9knPOXLU6ycyczGSSobZ9tpeCfZ7dtnPOjH8g+ly9FC+0fqEgXyHJJKAoCbHb3S2ZM2cmoO0Wwkvky/qCkARERQR8EQiZc85kJooiEFDx1aokmUwCCknOnJlJIgjMzHlN2919ttWETCYXCcmcSQhin2ef3VUCYhJCICQzo9t9fp5dS87MmTOEutvWkmv+hoqQmcllq1xnJmC7Wwj5+t/7/Pz81VaI+/PzI+GczzmZzDkH2v15ftY65/evX5/zGVRyQSDgq7a7vaxun2fbmjMzCgSCPn/9PNsKAaEvXy0qLyGZScIlIbjbZ7fknDMzAdvdla8QAtHuri2TmclErSIJeCEG5syZTCKCQEDqVV8ISSaZICGZnJk5k4gImeucSV/bqoAgSWYSJmcmIQh99nn22a3KlTm5IDBnBrf7PD8VMp85k0Hti4RLkswVWi9yzWSoCuTz6xNxu125Qsj/2j7P065k7PPzEDKTGcLMmQCCnJnP5/evz3UARRHb7j7P0xDttdezbb2Qr5CZQNvn5+d59lECCXYtYm27LbkgmSSElyDdbreSSSaJus+uQDJ5kUStbYEkMxOgiheKVUPmfE6CoKJAgABKvWqYycwEsEgmM+ckIoGEhIRXQK0ir0yYXJMJCVe7r2ef3SrOVyaTnDkHn+4lJJMZEnwRcmlr/sBu29Uk8zkHhVyfz4n2JXIZ8j/r7na3Qru7hoSAkjnXnAnJOefz6/ev1ycB227tPrs/104GW7fd7lZ5aVsIOefgdp999tlHeYVuq+C1uy2ZcOXFpXxZ+0LIhXb3WUiYvJjJgNqqITNnQqjWC8RWSWbOQatYq+Q6M6DWKpJM5sygtW0mmTmJkAvkMl9Eu5IQEoIhfyNc2na3++y2gcxkJjPJzJxJu70kL2IVDZPJELttEkC7XS2Qmc/nhECumaG2VkMAQ/4XbHf3efbVVgTE3c359fn9+59+f1CSfD6/f//+p9+/f88M7j777LPbfX5+fjYTbIvIpQJh99kScj4Ht9uvVUDb3a3Kq9saEhUTXm1lMiFoa1uTYN0++2SSEAicMyeobSGZmXMIbKu8gr1CXnZbrbsrZ+bz+XVw7UUIIZlzgq3bksmLkMyMF69JoNqtc86ZTKgXJpkQQPCq9jKZCQkZEnINqG0lCYHn51lJ5swJ0G6bib322Z0zM8nM53MmM0G86lVxMgOE/I9Qu93d7tar/tFtPp/Pr1+/Px8vyDmfX7//6d/6p386E9xnf36en223zz6dmYB8Be1asa1mkkx0a60vCLbd7lpRtBWS1AsQsZLMhODu9iIzqG23QBBImDOD1lqSmTlnuLat/OFFJpPEXmp3V5Oc8zlovSDhMpNI1UoSMoRAEtv/pyg4NrYs65Yy+mXOfarfswsB7WnIGEAE/CIyFuABJuBfnTUzWftWdzBGi2Bs1NKktmxZpMkmIMkSlB+lpQhJIISEhC2L0mxSQFc2KRWSCoWKmWF3s8naEgU9M5YFbZM2DUXYIyjo/0KvpGlTSq4mbanmmRmPaCnIM8+//fu//9tIdM/5/v7+ztV08diWBQKUnrO7aQHNjJo26QsKkiDJJtk0TdtQJJGmLX0BkmUBe75nE/BY0B9JSwvWZTVXW2R7bFOaq1wtBcnjkd02bXNt01a2RSk/VHpRoFB+yJJ4tcm2gGbGEqItVJKh6dmzAck2PyRBJUtqeQkJS74k2pxNUuQZEE2bJm2xZ57n8yjnJL1oky2ekURpmzZpkGR71Jf+D1cFtOkP2iQNrT3jsY2gQtbM569fv8aC7/m+Gi5JSFDQZZnu5uxuizQX6EIUKFehbV6b5rVJQeRHC0iykETL7tktBSEQstw02U0EnrF65aIISX3xt/JDly/6j7RJiy0LUUpLQwOUUgoteOyxpV5JCkiWBIKSJr2QVMpLliXEq5SrbYr1w5LGFiQ5Z7et/Hkey2TP7tmV53meX8/HY7KbXrt79pwy89iWSps2F7IsS33pf4OQLZW0TRGk2wCyx7Ysfsiyn8/zjE2/fxTJc5U2aZE1M1KuczYt8nhke8amXKWlgHI116a7J8uVZDcpki2bq1d2k0JLkax5Ztpkv99dqGdGakk2TSglTfXiEi9RkCXRlgKlSYolWVJLrzQNUCiUtjDjeWYs2qahIF4FJNLsblL/kAS6LAtaWtq0uSRLlmXJlkiy52wKns/n45H2nO85Z/38+nx+/fo8kprdlvZ7vud7Tpl5xmNU+spGWBaiDdX/kiXPWLRNGlmiKUga27rStFQaz/PMI6k93/P79/d35fGvX58Hmuy2SPM8Y9Fms5ttQWN7xoLShoIkq23aNGmSTVuaa5MiyZJoKW1ebbkky/M8T9LdczZpsQT0D3qlaSoZAZIlKNlwqRRdQNsUkIQAUUiy6SUJKC+Px2OLlra8SpumGlmiObtFksdGEpIsiZZCW5Js9AMJsCyaVyvJ88N0z26yfj7PzNgSydm0dF9ZOrZlCSGgaQAJaJtW/9OyPM8Y6Eu2oSBZloGSTSjSjJ9nLJqePed8v2hmfv3161OabLYt88yMrSY5rySMPZegpAHJugqF0ryaQkmyORv0sigvJWnSVIBkzUXa7G7aQKEXBUSv9JIEtLos6J5NWi5pZEHpBRU/xNVcbZAtFUqR5JeECuVqmqRBM/a4PWcjkMfWC734W9u8VheSKJUETUOR5H+oudrKY0vW1ZxNrzRNCrJUKoQumlYXiKZB/7IlzzMjiUsaD5csC2iabLaAPC9Pc21+yJ7n8+vX0DbXZit7LrPZ7/f7+7u79XieZyzapjC2CuiFmt2mRRLJ7vmejZA1kpBst0l3E15Fsi1Bm/SPtNuC0EUpBQRNFoFtON9zsimSxmMhSCktlFIBpX/gGQvaNLTIGl8C0TabTVs8P+g5G8CXbBkJcUkC0mySDZIsobZAaRohyZasF1AKlEvIHiubqxe0RZKzSYuwpbbItmy1KfofQtJ41BfS83yesawLQZLNhSx7bMlqmmySFnnmuaZp6R+WZFs553x///6etpp5bAvaSpY9FiCELjZJQ2Upmz3fswV0WZbHpml2N2loQbYkaAsIVJptCm16gSwj2iRNi0TPnr2oLHtsWRRaylVaSQiV7FYvRBtA6A+ERNpsthXyzNiC3ZQiyz+QAKGrtLvZNNHf6EVbWn7osiQumVdbQJJtpWnSZFsQvnJ2W4QlQWV7PGOaov+OQLLYPYnw56+/fj3PeLgE3d00lZ/xyKL0lU1a8Mwz9ihtAf0AIcjv7+/v799npfHzPFLTpp1nLttYXJKgSXpp5N3snpNAAWnssQ1p9uxuklJkGSit5JfUJNuy55xNYWYs0TbdPdvS7mazKZJlefxI5f9ry1iWYM/ZUhAqRbYF9BJGaZJNJWtmLARpS9E1vpAE6NWQPbu9dBmh9EoB0RaoJJtWsiVKG8C6TGnT7J6NZHnsnt22QpZAsmfmeYam6F+SdUE2QdI8z8wzY340ySYpnseWld20CEkULFsSJG2FZsaAADWbnE10IZW0FHR5xi8uvZK0ob6SZvckbdFlyZLaZvfspq1kBDR9IXs8Y/UFyWazqZC4usn+yKaNbEugNAEhX5IlRFvJos0PLhWaRheUtshjlebsaSV5PLKsC4FACCFhvSxtcvZ7tghfkqBtsi1ICISQ5IIki6ZpIo9HNmnTNqWgC9g924LGI4H8Q6Kl+pdsWUAvZMn2+LEo9JUf9YwFzZ4g/xAIAaVNKUL2uC2gC/VCgjRpii5A8tiyoZJsml7gq7R7pY3QBaKkyZ49ScG21JKmSWE8M89IFKE21yalpddms9ndkxT8PI+FOPvdtNJ4/BJXQVKaTS8KtCQpIKC0tccS9OxpQLI8vsY2iAINCGzLlrTX+Z6trPHYkmib3YQKIWS9DBISJE22smc8Q9uUgiUkeu2ebUHjEUWSdUEp+m+W9QMhCckejaVclHJtTj1uz24Kz2WobPdK0lqWCk2ye4o9nrFAyCJXQ+eSZclqU5DksUpBki8g2U1KL6421yZ7dk8bSZbEq8mWGc+lHxbNNqWCZrObq2laCsiWJbG7SUGWZQkVWspVWmiTJmlaCugCWpCwRJumKYgZe8amLRR6AbLHkmiaPSdImmfGsgRkN5tN2kr+MboofSUNSH7mGXGJyrqA0t1NWoTUJiBhWRSq/2qPx2MLCUn2jG2RphdQktSe5uwW6XmecVMkJ7tp4JkxtEn2SnXZlgQStAVZc0lGEk0CyB6bIiTZMtCm6ZW2QJvmtdlNdgvoBbRJGVu2LMuyyaZFSGL3nM1uX4ir+mFpkzQF6wf0ooUioKVpkzSlIJAQbXjJgtL0Qtge26IpV5uWIo0s8WqTIGlsy5IQzSa7SRrkkT0jGdq0pbwk7BEUXbZsIa5k05RXdk8Bjcctrf5jns/zeZ6PRdE1zzNjSxTSK2kpnoGkINkjJWnLnnOC5OfzSH1Brm5SCkh9SZrn8zz2uJRLbQpIHhsBQpJVoBJN05ZCudqmTXPOd5NUtmgLRReX5EtudkGSZXLOnj2nFxKUSkKWlaZJqP6Apm24hGhTQG3TUhCo9AovcZUiXpIsSyYpiDYJBUvisiygkpD4Q3KbpkmbVpLll0QuijyWBW2TXeTxeMaSLNRke4HY7/ebgud53LTVf36eX5/P8/mMhCTbM+MXr15JucYDbaHIVvNjd89WnnmeB5rQ0jZN0lKhNrv1+PP59esRkE0rJMRLHlsSQj/KJQnQJimXUJv+SDa72yJ68UOAkGwjNdkCkq1kr7NpA6W0CEmW2pKmSCAhoE1fvHpJ0LSlICGglEKBgkASQghdqElB0D+w/mYJyqv0DyEkrpYWhJBkW+TV2DO2Ua7dVB577LFlie5umkaQc7ayPc84Sav/9Hl+fa5nLMn/GMviEm1TJNmDSkoqTJvsnrO76cwzzzywSZtS2qalCNpzTp9nfv366/MhydmTSrI9pZIvycKSkCigy/buSQpYoukLaDa7adMGqAoIIeuCdtMWZKtpNrtJ0yu0RVgXpTRU/JAMTZv0gtIa0aaUCkkIkEopLRKSdfESoG4DCAppkCx7LCRa2qZXrkLtGUlc5R+2RbPZrD3jsZVkk1R+yR5bEtmzmwvaJPbzPJ4h2Vb/MfPMPM+jtmieeeYZUZoEX7Ik5EuizZ5FQoKc73d323nmmXlEks2mpYW+eLVlxs/n+Qylm211eQYhWRZCsi7U0lLJ8u7ZtNV41L/RP/LaTQuSzA8hytU2rSWVNn/0oiVclqxSml4UiiwLwe7mKiBZopSrKZWQLV6S+CHxKpcEbbh6Zc8B288FtE1fXH3RyrYuKCCQwLba7O45eDyXabkkWQi9aJtkm6S7CdI8n+exRJJW/0X2+JlRstVzfT6jpptdbI/t0eWxaHO+3yPZHivn93dPwnPNMyLpXqVUomkooMuyx2MhmoCQPLb+4JJkISgtFIR2s2lg5kGlf0NSm83Zs21BMqXlKgiJJkWo0CZNUyilLSBZ4mrSlpaiywh2t0kLQpYQSKJJKyRLCLCltoCA0hYkQQu90j3nW6x5Ps9D22zSUlkSV6n+gFIQetkS6e75nsr2PGMJX7IkCpJK/rHZc04983l+fR6Vpin/D6BHkXOydbo5AAAAAElFTkSuQmCC;" vertex="1" parent="1">
          <mxGeometry x="160" y="520" width="500" height="500" as="geometry" />
        </mxCell>
        <mxCell id="yKRr2xYQavg5_Q21s3uy-39" value="" style="shape=cube;whiteSpace=wrap;html=1;boundedLbl=1;backgroundOutline=1;darkOpacity=0.05;darkOpacity2=0.1;fontStyle=1;opacity=50;fillColor=#e1d5e7;strokeColor=#9673a6;" vertex="1" parent="1">
          <mxGeometry x="160" y="520" width="520" height="520" as="geometry" />
        </mxCell>
        <mxCell id="yKRr2xYQavg5_Q21s3uy-40" value="" style="shape=cube;whiteSpace=wrap;html=1;boundedLbl=1;backgroundOutline=1;darkOpacity=0.05;darkOpacity2=0.1;opacity=50;fillColor=#fff2cc;strokeColor=#d6b656;" vertex="1" parent="1">
          <mxGeometry x="180" y="540" width="520" height="520" as="geometry" />
        </mxCell>
        <mxCell id="yKRr2xYQavg5_Q21s3uy-41" value="" style="shape=cube;whiteSpace=wrap;html=1;boundedLbl=1;backgroundOutline=1;darkOpacity=0.05;darkOpacity2=0.1;opacity=50;fillColor=#d5e8d4;strokeColor=#82b366;" vertex="1" parent="1">
          <mxGeometry x="265" y="630" width="375" height="360" as="geometry" />
        </mxCell>
        <mxCell id="yKRr2xYQavg5_Q21s3uy-42" value="" style="shape=cube;whiteSpace=wrap;html=1;boundedLbl=1;backgroundOutline=1;darkOpacity=0.05;darkOpacity2=0.1;opacity=50;fillColor=#e1d5e7;strokeColor=#9673a6;" vertex="1" parent="1">
          <mxGeometry x="285" y="650" width="375" height="360" as="geometry" />
        </mxCell>
        <mxCell id="yKRr2xYQavg5_Q21s3uy-43" value="" style="shape=cube;whiteSpace=wrap;html=1;boundedLbl=1;backgroundOutline=1;darkOpacity=0.05;darkOpacity2=0.1;opacity=50;fillColor=#fff2cc;strokeColor=#d6b656;" vertex="1" parent="1">
          <mxGeometry x="305" y="670" width="375" height="360" as="geometry" />
        </mxCell>
        <mxCell id="yKRr2xYQavg5_Q21s3uy-44" value="" style="shape=cube;whiteSpace=wrap;html=1;boundedLbl=1;backgroundOutline=1;darkOpacity=0.05;darkOpacity2=0.1;opacity=50;fillColor=#d5e8d4;strokeColor=#82b366;" vertex="1" parent="1">
          <mxGeometry x="380" y="750" width="270" height="260" as="geometry" />
        </mxCell>
        <mxCell id="yKRr2xYQavg5_Q21s3uy-45" value="" style="shape=cube;whiteSpace=wrap;html=1;boundedLbl=1;backgroundOutline=1;darkOpacity=0.05;darkOpacity2=0.1;opacity=50;fillColor=#e1d5e7;strokeColor=#9673a6;" vertex="1" parent="1">
          <mxGeometry x="400" y="770" width="270" height="260" as="geometry" />
        </mxCell>
        <mxCell id="yKRr2xYQavg5_Q21s3uy-46" value="" style="shape=cube;whiteSpace=wrap;html=1;boundedLbl=1;backgroundOutline=1;darkOpacity=0.05;darkOpacity2=0.1;opacity=50;fillColor=#fff2cc;strokeColor=#d6b656;" vertex="1" parent="1">
          <mxGeometry x="420" y="790" width="270" height="260" as="geometry" />
        </mxCell>
        <mxCell id="yKRr2xYQavg5_Q21s3uy-47" value="" style="shape=cube;whiteSpace=wrap;html=1;boundedLbl=1;backgroundOutline=1;darkOpacity=0.05;darkOpacity2=0.1;opacity=50;fillColor=#d5e8d4;strokeColor=#82b366;" vertex="1" parent="1">
          <mxGeometry x="490" y="860" width="190" height="190" as="geometry" />
        </mxCell>
        <mxCell id="yKRr2xYQavg5_Q21s3uy-48" value="" style="shape=cube;whiteSpace=wrap;html=1;boundedLbl=1;backgroundOutline=1;darkOpacity=0.05;darkOpacity2=0.1;opacity=50;fillColor=#e1d5e7;strokeColor=#9673a6;" vertex="1" parent="1">
          <mxGeometry x="510" y="880" width="190" height="190" as="geometry" />
        </mxCell>
        <mxCell id="yKRr2xYQavg5_Q21s3uy-49" value="" style="shape=cube;whiteSpace=wrap;html=1;boundedLbl=1;backgroundOutline=1;darkOpacity=0.05;darkOpacity2=0.1;opacity=50;fillColor=#fff2cc;strokeColor=#d6b656;" vertex="1" parent="1">
          <mxGeometry x="530" y="900" width="190" height="190" as="geometry" />
        </mxCell>
        <mxCell id="yKRr2xYQavg5_Q21s3uy-50" value="" style="shape=cube;whiteSpace=wrap;html=1;boundedLbl=1;backgroundOutline=1;darkOpacity=0.05;darkOpacity2=0.1;opacity=50;fillColor=#d5e8d4;strokeColor=#82b366;" vertex="1" parent="1">
          <mxGeometry x="590" y="960" width="120" height="120" as="geometry" />
        </mxCell>
        <mxCell id="yKRr2xYQavg5_Q21s3uy-51" value="" style="shape=cube;whiteSpace=wrap;html=1;boundedLbl=1;backgroundOutline=1;darkOpacity=0.05;darkOpacity2=0.1;opacity=50;fillColor=#e1d5e7;strokeColor=#9673a6;" vertex="1" parent="1">
          <mxGeometry x="610" y="980" width="120" height="120" as="geometry" />
        </mxCell>
        <mxCell id="yKRr2xYQavg5_Q21s3uy-52" value="" style="shape=cube;whiteSpace=wrap;html=1;boundedLbl=1;backgroundOutline=1;darkOpacity=0.05;darkOpacity2=0.1;opacity=50;fillColor=#fff2cc;strokeColor=#d6b656;" vertex="1" parent="1">
          <mxGeometry x="630" y="1000" width="120" height="120" as="geometry" />
        </mxCell>
        <mxCell id="yKRr2xYQavg5_Q21s3uy-53" value="" style="shape=cube;whiteSpace=wrap;html=1;boundedLbl=1;backgroundOutline=1;darkOpacity=0.05;darkOpacity2=0.1;opacity=50;fillColor=#d5e8d4;strokeColor=#82b366;" vertex="1" parent="1">
          <mxGeometry x="670" y="1050" width="90" height="90" as="geometry" />
        </mxCell>
        <mxCell id="yKRr2xYQavg5_Q21s3uy-60" value="500 x 500 x 1" style="text;html=1;align=center;verticalAlign=middle;whiteSpace=wrap;rounded=0;" vertex="1" parent="1">
          <mxGeometry x="160" y="490" width="90" height="30" as="geometry" />
        </mxCell>
        <mxCell id="yKRr2xYQavg5_Q21s3uy-61" value="500 x 500 x 16" style="text;html=1;align=center;verticalAlign=middle;whiteSpace=wrap;rounded=0;" vertex="1" parent="1">
          <mxGeometry x="180" y="517" width="90" height="30" as="geometry" />
        </mxCell>
        <mxCell id="yKRr2xYQavg5_Q21s3uy-62" value="500 x 500 x 16" style="text;html=1;align=center;verticalAlign=middle;whiteSpace=wrap;rounded=0;" vertex="1" parent="1">
          <mxGeometry x="200" y="540" width="90" height="30" as="geometry" />
        </mxCell>
        <mxCell id="yKRr2xYQavg5_Q21s3uy-63" value="250 x 250 x 16" style="text;html=1;align=center;verticalAlign=middle;whiteSpace=wrap;rounded=0;" vertex="1" parent="1">
          <mxGeometry x="285" y="626" width="90" height="30" as="geometry" />
        </mxCell>
        <mxCell id="yKRr2xYQavg5_Q21s3uy-64" value="250 x 250 x 16" style="text;html=1;align=center;verticalAlign=middle;whiteSpace=wrap;rounded=0;" vertex="1" parent="1">
          <mxGeometry x="303" y="648" width="90" height="30" as="geometry" />
        </mxCell>
        <mxCell id="yKRr2xYQavg5_Q21s3uy-65" value="250 x 250 x 16" style="text;html=1;align=center;verticalAlign=middle;whiteSpace=wrap;rounded=0;" vertex="1" parent="1">
          <mxGeometry x="320" y="667" width="90" height="30" as="geometry" />
        </mxCell>
        <mxCell id="yKRr2xYQavg5_Q21s3uy-66" value="125 x 125 x 16" style="text;html=1;align=center;verticalAlign=middle;whiteSpace=wrap;rounded=0;" vertex="1" parent="1">
          <mxGeometry x="400" y="746" width="90" height="30" as="geometry" />
        </mxCell>
        <mxCell id="yKRr2xYQavg5_Q21s3uy-67" value="125 x 125 x 16" style="text;html=1;align=center;verticalAlign=middle;whiteSpace=wrap;rounded=0;" vertex="1" parent="1">
          <mxGeometry x="420" y="765" width="90" height="30" as="geometry" />
        </mxCell>
        <mxCell id="yKRr2xYQavg5_Q21s3uy-68" value="125 x 125 x 16" style="text;html=1;align=center;verticalAlign=middle;whiteSpace=wrap;rounded=0;" vertex="1" parent="1">
          <mxGeometry x="440" y="785" width="90" height="30" as="geometry" />
        </mxCell>
        <mxCell id="yKRr2xYQavg5_Q21s3uy-69" value="62 x 62 x 16" style="text;html=1;align=center;verticalAlign=middle;whiteSpace=wrap;rounded=0;" vertex="1" parent="1">
          <mxGeometry x="507" y="857" width="90" height="30" as="geometry" />
        </mxCell>
        <mxCell id="yKRr2xYQavg5_Q21s3uy-70" value="62 x 62 x 16" style="text;html=1;align=center;verticalAlign=middle;whiteSpace=wrap;rounded=0;" vertex="1" parent="1">
          <mxGeometry x="527" y="876" width="90" height="30" as="geometry" />
        </mxCell>
        <mxCell id="yKRr2xYQavg5_Q21s3uy-71" value="62 x 62 x 16" style="text;html=1;align=center;verticalAlign=middle;whiteSpace=wrap;rounded=0;" vertex="1" parent="1">
          <mxGeometry x="540" y="897" width="90" height="30" as="geometry" />
        </mxCell>
        <mxCell id="yKRr2xYQavg5_Q21s3uy-72" value="31 x 31 x 16" style="text;html=1;align=center;verticalAlign=middle;whiteSpace=wrap;rounded=0;" vertex="1" parent="1">
          <mxGeometry x="598" y="954" width="90" height="30" as="geometry" />
        </mxCell>
        <mxCell id="yKRr2xYQavg5_Q21s3uy-73" value="31 x 31 x 16" style="text;html=1;align=center;verticalAlign=middle;whiteSpace=wrap;rounded=0;" vertex="1" parent="1">
          <mxGeometry x="623" y="975" width="90" height="30" as="geometry" />
        </mxCell>
        <mxCell id="yKRr2xYQavg5_Q21s3uy-74" value="31 x 31 x 16" style="text;html=1;align=center;verticalAlign=middle;whiteSpace=wrap;rounded=0;" vertex="1" parent="1">
          <mxGeometry x="640" y="1000" width="90" height="30" as="geometry" />
        </mxCell>
        <mxCell id="yKRr2xYQavg5_Q21s3uy-75" value="15 x 15 x 16" style="text;html=1;align=center;verticalAlign=middle;whiteSpace=wrap;rounded=0;" vertex="1" parent="1">
          <mxGeometry x="669" y="1046" width="90" height="30" as="geometry" />
        </mxCell>
        <mxCell id="yKRr2xYQavg5_Q21s3uy-77" value="" style="endArrow=none;html=1;rounded=0;entryX=0.556;entryY=0.667;entryDx=0;entryDy=0;entryPerimeter=0;" edge="1" parent="1">
          <mxGeometry width="50" height="50" relative="1" as="geometry">
            <mxPoint x="780" y="1169.97" as="sourcePoint" />
            <mxPoint x="720.04" y="1099.9999999999998" as="targetPoint" />
          </mxGeometry>
        </mxCell>
        <mxCell id="yKRr2xYQavg5_Q21s3uy-78" value="3600" style="text;html=1;align=center;verticalAlign=middle;whiteSpace=wrap;rounded=0;" vertex="1" parent="1">
          <mxGeometry x="700" y="1140" width="90" height="30" as="geometry" />
        </mxCell>
      </root>
    </mxGraphModel>
  </diagram>
</mxfile>
